<svg width="60" height="60" viewBox="0 0 60 60" fill="none" xmlns="http://www.w3.org/2000/svg">
<rect width="60" height="60" rx="30" fill="#D5C5FD"/>
<path opacity="0.35" d="M42.478 21.89L45.664 17.11C46.278 16.192 46.03 14.948 45.11 14.336C44.186 13.72 42.948 13.972 42.336 14.89L38.978 19.928C36.234 18.7 33.202 18 30 18C26.798 18 23.766 18.7 21.022 19.928L17.664 14.89C17.052 13.972 15.814 13.72 14.89 14.336C13.97 14.948 13.722 16.19 14.336 17.11L17.522 21.89C11.774 25.858 8 32.486 8 40V42C8 44.21 9.79 46 12 46H48C50.21 46 52 44.21 52 42V40C52 32.486 48.226 25.858 42.478 21.89Z" fill="#300E87"/>
<path d="M39 38C40.6569 38 42 36.6569 42 35C42 33.3431 40.6569 32 39 32C37.3431 32 36 33.3431 36 35C36 36.6569 37.3431 38 39 38Z" fill="#300E87"/>
<path d="M21 38C22.6569 38 24 36.6569 24 35C24 33.3431 22.6569 32 21 32C19.3431 32 18 33.3431 18 35C18 36.6569 19.3431 38 21 38Z" fill="#300E87"/>
</svg>
