<svg width="24" height="24" viewBox="0 0 24 24" fill="none" xmlns="http://www.w3.org/2000/svg">
<g id="icons8-android">
<path id="Vector" opacity="0.35" d="M18.239 7.94502L19.832 5.55502C20.139 5.09602 20.015 4.47402 19.555 4.16802C19.093 3.86002 18.474 3.98602 18.168 4.44502L16.489 6.96402C15.117 6.35002 13.601 6.00002 12 6.00002C10.399 6.00002 8.883 6.35002 7.511 6.96402L5.832 4.44502C5.526 3.98602 4.907 3.86002 4.445 4.16802C3.985 4.47402 3.861 5.09502 4.168 5.55502L5.761 7.94502C2.887 9.92902 1 13.243 1 17V18C1 19.105 1.895 20 3 20H21C22.105 20 23 19.105 23 18V17C23 13.243 21.113 9.92902 18.239 7.94502Z" fill="#5627CD"/>
<path id="Vector_2" d="M16.5 16C17.3284 16 18 15.3284 18 14.5C18 13.6716 17.3284 13 16.5 13C15.6716 13 15 13.6716 15 14.5C15 15.3284 15.6716 16 16.5 16Z" fill="#5627CD"/>
<path id="Vector_3" d="M7.5 16C8.32843 16 9 15.3284 9 14.5C9 13.6716 8.32843 13 7.5 13C6.67157 13 6 13.6716 6 14.5C6 15.3284 6.67157 16 7.5 16Z" fill="#5627CD"/>
</g>
</svg>
