<svg width="135" height="135" viewBox="0 0 135 135" fill="none" xmlns="http://www.w3.org/2000/svg">
<g clip-path="url(#clip0_89_9675)">
<circle cx="36.5845" cy="53.9679" r="2.52" fill="#BFBFBF"/>
<path d="M49.6794 57.609C49.0757 57.609 48.5504 57.4993 48.1035 57.2797C47.6566 57.0602 47.3117 56.7545 47.0686 56.3625C46.8256 55.9705 46.7041 55.5157 46.7041 54.9983H47.739C47.739 55.3197 47.8134 55.6177 47.9624 55.8921C48.1114 56.1586 48.327 56.3742 48.6092 56.5389C48.8993 56.6957 49.256 56.7741 49.6794 56.7741C50.236 56.7741 50.6672 56.6408 50.973 56.3742C51.2787 56.1077 51.4316 55.7745 51.4316 55.3746C51.4316 55.0453 51.361 54.7827 51.2199 54.5867C51.0788 54.3829 50.8867 54.2182 50.6437 54.0928C50.4085 53.9673 50.1341 53.8576 49.8205 53.7635C49.5147 53.6694 49.1933 53.5636 48.8562 53.446C48.2211 53.2265 47.7507 52.956 47.445 52.6345C47.1392 52.3053 46.9863 51.878 46.9863 51.3527C46.9785 50.9137 47.0804 50.5256 47.2921 50.1885C47.5038 49.8435 47.8017 49.5769 48.1858 49.3888C48.5778 49.1928 49.0404 49.0948 49.5735 49.0948C50.0988 49.0948 50.5535 49.1928 50.9377 49.3888C51.3297 49.5848 51.6315 49.8553 51.8432 50.2002C52.0627 50.5452 52.1764 50.9372 52.1842 51.3762H51.1494C51.1494 51.1489 51.0906 50.9254 50.973 50.7059C50.8554 50.4785 50.675 50.2943 50.432 50.1532C50.1968 50.0121 49.8989 49.9415 49.5382 49.9415C49.0914 49.9337 48.7229 50.0473 48.4328 50.2825C48.1506 50.5177 48.0094 50.8431 48.0094 51.2586C48.0094 51.6114 48.1074 51.8819 48.3034 52.0701C48.5073 52.2582 48.7895 52.415 49.1502 52.5405C49.5108 52.6581 49.9263 52.7953 50.3967 52.9521C50.7887 53.0932 51.1415 53.2578 51.4551 53.446C51.7687 53.6341 52.0118 53.8772 52.1842 54.1751C52.3646 54.473 52.4547 54.8533 52.4547 55.3158C52.4547 55.7078 52.3528 56.0802 52.149 56.433C51.9451 56.778 51.6354 57.0602 51.2199 57.2797C50.8122 57.4993 50.2987 57.609 49.6794 57.609ZM53.7968 60.0551V51.6349H54.6906L54.7847 52.5993C54.9728 52.317 55.2394 52.0622 55.5843 51.8349C55.9371 51.6075 56.384 51.4938 56.925 51.4938C57.5051 51.4938 58.0108 51.6271 58.442 51.8937C58.8732 52.1602 59.2064 52.5248 59.4416 52.9873C59.6847 53.4499 59.8062 53.9752 59.8062 54.5632C59.8062 55.1512 59.6847 55.6765 59.4416 56.139C59.2064 56.5937 58.8693 56.9544 58.4303 57.2209C57.9991 57.4797 57.4934 57.609 56.9132 57.609C56.435 57.609 56.0077 57.511 55.6314 57.315C55.2629 57.119 54.9807 56.8446 54.7847 56.4918V60.0551H53.7968ZM56.8074 56.7505C57.1994 56.7505 57.5444 56.6604 57.8423 56.4801C58.1402 56.2919 58.3754 56.0332 58.5479 55.7039C58.7204 55.3746 58.8066 54.9905 58.8066 54.5514C58.8066 54.1124 58.7204 53.7282 58.5479 53.3989C58.3754 53.0697 58.1402 52.8149 57.8423 52.6345C57.5444 52.4464 57.1994 52.3523 56.8074 52.3523C56.4154 52.3523 56.0704 52.4464 55.7725 52.6345C55.4746 52.8149 55.2394 53.0697 55.0669 53.3989C54.8944 53.7282 54.8082 54.1124 54.8082 54.5514C54.8082 54.9905 54.8944 55.3746 55.0669 55.7039C55.2394 56.0332 55.4746 56.2919 55.7725 56.4801C56.0704 56.6604 56.4154 56.7505 56.8074 56.7505ZM63.839 57.609C63.2902 57.609 62.7963 57.4836 62.3573 57.2327C61.9182 56.9818 61.5694 56.629 61.3106 56.1743C61.0598 55.7117 60.9343 55.1708 60.9343 54.5514C60.9343 53.9321 61.0637 53.395 61.3224 52.9403C61.5811 52.4777 61.93 52.121 62.369 51.8701C62.8159 51.6193 63.3138 51.4938 63.8626 51.4938C64.4114 51.4938 64.9053 51.6193 65.3443 51.8701C65.7834 52.121 66.1283 52.4777 66.3792 52.9403C66.6379 53.395 66.7673 53.9321 66.7673 54.5514C66.7673 55.1708 66.6379 55.7117 66.3792 56.1743C66.1205 56.629 65.7677 56.9818 65.3208 57.2327C64.8818 57.4836 64.3878 57.609 63.839 57.609ZM63.839 56.7623C64.1762 56.7623 64.4898 56.68 64.7798 56.5153C65.0699 56.3507 65.3051 56.1037 65.4854 55.7745C65.6658 55.4452 65.7559 55.0375 65.7559 54.5514C65.7559 54.0653 65.6658 53.6577 65.4854 53.3284C65.313 52.9991 65.0817 52.7521 64.7916 52.5875C64.5015 52.4229 64.1918 52.3405 63.8626 52.3405C63.5254 52.3405 63.2118 52.4229 62.9218 52.5875C62.6317 52.7521 62.3965 52.9991 62.2162 53.3284C62.0358 53.6577 61.9457 54.0653 61.9457 54.5514C61.9457 55.0375 62.0358 55.4452 62.2162 55.7745C62.3965 56.1037 62.6278 56.3507 62.91 56.5153C63.2001 56.68 63.5098 56.7623 63.839 56.7623ZM68.1408 57.4679V51.6349H69.0346L69.1169 52.7521C69.2972 52.368 69.5716 52.0622 69.9401 51.8349C70.3086 51.6075 70.7633 51.4938 71.3043 51.4938V52.5287H71.0338C70.6888 52.5287 70.3713 52.5914 70.0812 52.7169C69.7911 52.8345 69.5599 53.0383 69.3874 53.3284C69.2149 53.6185 69.1287 54.0183 69.1287 54.5279V57.4679H68.1408ZM74.718 57.4679C74.1848 57.4679 73.7654 57.3385 73.4596 57.0798C73.1539 56.8211 73.001 56.3546 73.001 55.6804V52.4699H71.9896V51.6349H73.001L73.1304 50.2355H73.9888V51.6349H75.7058V52.4699H73.9888V55.6804C73.9888 56.0489 74.0633 56.2997 74.2123 56.433C74.3612 56.5585 74.6239 56.6212 75.0002 56.6212H75.6117V57.4679H74.718ZM79.1952 57.609C78.4975 57.609 77.9173 57.4326 77.4547 57.0798C76.9922 56.727 76.7217 56.2488 76.6433 55.6451H77.6547C77.7174 55.9509 77.8781 56.2174 78.1368 56.4448C78.4034 56.6643 78.7601 56.7741 79.207 56.7741C79.6225 56.7741 79.9283 56.6878 80.1243 56.5153C80.3203 56.335 80.4183 56.1233 80.4183 55.8803C80.4183 55.5275 80.2889 55.2923 80.0302 55.1747C79.7793 55.0571 79.4226 54.9513 78.96 54.8572C78.6464 54.7945 78.3328 54.7043 78.0192 54.5867C77.7056 54.4691 77.443 54.3045 77.2313 54.0928C77.0196 53.8733 76.9138 53.5871 76.9138 53.2343C76.9138 52.7247 77.1019 52.3092 77.4783 51.9877C77.8624 51.6585 78.3799 51.4938 79.0306 51.4938C79.6499 51.4938 80.1556 51.6506 80.5476 51.9642C80.9475 52.27 81.1787 52.709 81.2415 53.2813H80.2654C80.2262 52.9834 80.0968 52.7521 79.8773 52.5875C79.6656 52.415 79.3795 52.3288 79.0188 52.3288C78.666 52.3288 78.3916 52.4033 78.1956 52.5522C78.0075 52.7012 77.9134 52.8972 77.9134 53.1402C77.9134 53.3754 78.0349 53.5597 78.2779 53.6929C78.5288 53.8262 78.8659 53.9399 79.2893 54.034C79.6499 54.1124 79.991 54.2104 80.3124 54.328C80.6417 54.4377 80.9083 54.6063 81.1121 54.8337C81.3238 55.0532 81.4296 55.3746 81.4296 55.798C81.4375 56.3233 81.2375 56.7584 80.8299 57.1033C80.43 57.4405 79.8851 57.609 79.1952 57.609ZM85.9572 57.609C85.479 57.609 85.0517 57.511 84.6754 57.315C84.3069 57.119 84.0247 56.8446 83.8287 56.4918L83.7346 57.4679H82.8408V49.0007H83.8287V52.5993C84.0168 52.317 84.2834 52.0622 84.6283 51.8349C84.9811 51.6075 85.428 51.4938 85.969 51.4938C86.5491 51.4938 87.0548 51.6271 87.486 51.8937C87.9172 52.1602 88.2504 52.5248 88.4856 52.9873C88.7287 53.4499 88.8502 53.9752 88.8502 54.5632C88.8502 55.1512 88.7287 55.6765 88.4856 56.139C88.2504 56.5937 87.9133 56.9544 87.4743 57.2209C87.0431 57.4797 86.5374 57.609 85.9572 57.609ZM85.8514 56.7505C86.2434 56.7505 86.5883 56.6604 86.8863 56.4801C87.1842 56.2919 87.4194 56.0332 87.5919 55.7039C87.7643 55.3746 87.8506 54.9905 87.8506 54.5514C87.8506 54.1124 87.7643 53.7282 87.5919 53.3989C87.4194 53.0697 87.1842 52.8149 86.8863 52.6345C86.5883 52.4464 86.2434 52.3523 85.8514 52.3523C85.4594 52.3523 85.1144 52.4464 84.8165 52.6345C84.5186 52.8149 84.2834 53.0697 84.1109 53.3989C83.9384 53.7282 83.8522 54.1124 83.8522 54.5514C83.8522 54.9905 83.9384 55.3746 84.1109 55.7039C84.2834 56.0332 84.5186 56.2919 84.8165 56.4801C85.1144 56.6604 85.4594 56.7505 85.8514 56.7505ZM92.8477 57.609C92.2911 57.609 91.7972 57.4836 91.366 57.2327C90.9348 56.974 90.5937 56.6173 90.3429 56.1625C90.0998 55.7078 89.9783 55.1708 89.9783 54.5514C89.9783 53.9399 90.0998 53.4068 90.3429 52.9521C90.5859 52.4895 90.923 52.1328 91.3542 51.8819C91.7933 51.6232 92.2989 51.4938 92.8713 51.4938C93.4357 51.4938 93.9218 51.6232 94.3295 51.8819C94.745 52.1328 95.0625 52.466 95.2821 52.8815C95.5016 53.297 95.6113 53.7439 95.6113 54.2221C95.6113 54.3084 95.6074 54.3946 95.5996 54.4809C95.5996 54.5671 95.5996 54.6651 95.5996 54.7749H90.9544C90.9779 55.2217 91.0798 55.5941 91.2601 55.8921C91.4483 56.1821 91.6796 56.4017 91.954 56.5506C92.2362 56.6996 92.5341 56.7741 92.8477 56.7741C93.2554 56.7741 93.5965 56.68 93.8709 56.4918C94.1453 56.3037 94.3452 56.0489 94.4706 55.7274H95.4467C95.2899 56.2684 94.9881 56.7192 94.5412 57.0798C94.1021 57.4326 93.5377 57.609 92.8477 57.609ZM92.8477 52.3288C92.3773 52.3288 91.9579 52.4738 91.5894 52.7639C91.2288 53.0461 91.021 53.4617 90.9661 54.0105H94.6353C94.6117 53.4852 94.4314 53.0736 94.0943 52.7757C93.7572 52.4777 93.3417 52.3288 92.8477 52.3288ZM99.0304 57.4679C98.4973 57.4679 98.0778 57.3385 97.7721 57.0798C97.4663 56.8211 97.3134 56.3546 97.3134 55.6804V52.4699H96.3021V51.6349H97.3134L97.4428 50.2355H98.3013V51.6349H100.018V52.4699H98.3013V55.6804C98.3013 56.0489 98.3757 56.2997 98.5247 56.433C98.6737 56.5585 98.9363 56.6212 99.3126 56.6212H99.9241V57.4679H99.0304Z" fill="#8C8C8C"/>
</g>
<rect x="36.5044" y="71.2479" width="20.16" height="20.16" rx="10.08" fill="white"/>
<path fill-rule="evenodd" clip-rule="evenodd" d="M46.5843 89.0078C50.8258 89.0078 54.2643 85.5694 54.2643 81.3278C54.2643 77.0863 50.8258 73.6478 46.5843 73.6478C42.3427 73.6478 38.9043 77.0863 38.9043 81.3278C38.9043 85.5694 42.3427 89.0078 46.5843 89.0078ZM46.5844 87.4342C49.9569 87.4342 52.6908 84.7003 52.6908 81.3278C52.6908 77.9553 49.9569 75.2214 46.5844 75.2214C43.2119 75.2214 40.478 77.9553 40.478 81.3278C40.478 84.7003 43.2119 87.4342 46.5844 87.4342Z" fill="#272D36"/>
<path d="M42.6173 81.0738C44.6679 81.0738 46.3303 79.4114 46.3303 77.3608C46.3303 75.3102 44.6679 73.6478 42.6173 73.6478C40.5667 73.6478 38.9043 75.3102 38.9043 77.3608C38.9043 79.4114 40.5667 81.0738 42.6173 81.0738Z" fill="#BFBFBF"/>
<path d="M68.6259 87.0295C67.8195 87.0295 67.1195 86.8839 66.5259 86.5927C65.9323 86.3015 65.4563 85.9039 65.0979 85.3999C64.7507 84.8847 64.5379 84.3023 64.4595 83.6527H65.8371C65.9715 84.3023 66.2851 84.8287 66.7779 85.2319C67.2707 85.6239 67.8923 85.8199 68.6427 85.8199C69.2027 85.8199 69.6843 85.6911 70.0875 85.4335C70.4907 85.1647 70.7987 84.8063 71.0115 84.3583C71.2355 83.9103 71.3475 83.4119 71.3475 82.8631C71.3475 81.9895 71.1011 81.2839 70.6083 80.7463C70.1155 80.2087 69.4771 79.9399 68.6931 79.9399C68.0435 79.9399 67.4891 80.0855 67.0299 80.3767C66.5707 80.6679 66.2347 81.0487 66.0219 81.5191H64.6779L65.6859 75.0679H71.8515V76.2943H66.7779L66.0891 79.8727C66.3579 79.5479 66.7275 79.2791 67.1979 79.0663C67.6795 78.8535 68.2283 78.7471 68.8443 78.7471C69.6171 78.7471 70.2891 78.9263 70.8603 79.2847C71.4427 79.6431 71.8963 80.1303 72.2211 80.7463C72.5459 81.3623 72.7083 82.0623 72.7083 82.8463C72.7083 83.5967 72.5459 84.2911 72.2211 84.9295C71.9075 85.5679 71.4427 86.0775 70.8267 86.4583C70.2219 86.8391 69.4883 87.0295 68.6259 87.0295ZM79.5006 87.0295C78.459 87.0295 77.5574 86.7775 76.7958 86.2735C76.0454 85.7583 75.4686 85.0471 75.0654 84.1399C74.6622 83.2215 74.4606 82.1575 74.4606 80.9479C74.4606 79.7383 74.6622 78.6799 75.0654 77.7727C75.4686 76.8543 76.0454 76.1431 76.7958 75.6391C77.5574 75.1239 78.459 74.8663 79.5006 74.8663C80.5422 74.8663 81.4382 75.1239 82.1886 75.6391C82.939 76.1431 83.5158 76.8543 83.919 77.7727C84.3222 78.6799 84.5238 79.7383 84.5238 80.9479C84.5238 82.1575 84.3222 83.2215 83.919 84.1399C83.5158 85.0471 82.939 85.7583 82.1886 86.2735C81.4382 86.7775 80.5422 87.0295 79.5006 87.0295ZM79.5006 85.7863C80.1838 85.7863 80.7942 85.5959 81.3318 85.2151C81.8806 84.8231 82.3062 84.2687 82.6086 83.5519C82.9222 82.8239 83.079 81.9559 83.079 80.9479C83.079 79.9399 82.9222 79.0775 82.6086 78.3607C82.3062 77.6439 81.8806 77.0951 81.3318 76.7143C80.7942 76.3223 80.1838 76.1263 79.5006 76.1263C78.8062 76.1263 78.1902 76.3223 77.6526 76.7143C77.115 77.0951 76.6894 77.6439 76.3758 78.3607C76.0622 79.0775 75.9054 79.9399 75.9054 80.9479C75.9054 81.9559 76.0622 82.8239 76.3758 83.5519C76.6894 84.2687 77.115 84.8231 77.6526 85.2151C78.1902 85.5959 78.8062 85.7863 79.5006 85.7863ZM88.6794 80.5279C88.1754 80.5279 87.7162 80.4159 87.3018 80.1919C86.8986 79.9567 86.5794 79.6319 86.3442 79.2175C86.109 78.7919 85.9914 78.2879 85.9914 77.7055C85.9914 77.1231 86.109 76.6247 86.3442 76.2103C86.5906 75.7847 86.9154 75.4599 87.3186 75.2359C87.733 75.0007 88.1922 74.8831 88.6962 74.8831C89.2002 74.8831 89.6538 75.0007 90.057 75.2359C90.4602 75.4599 90.7794 75.7847 91.0146 76.2103C91.2498 76.6247 91.3674 77.1231 91.3674 77.7055C91.3674 78.2879 91.2442 78.7919 90.9978 79.2175C90.7626 79.6319 90.4434 79.9567 90.0402 80.1919C89.637 80.4159 89.1834 80.5279 88.6794 80.5279ZM87.6378 86.8279L94.4754 75.0679H95.8866L89.049 86.8279H87.6378ZM88.6794 79.4359C89.0714 79.4359 89.413 79.2903 89.7042 78.9991C90.0066 78.7079 90.1578 78.2767 90.1578 77.7055C90.1578 77.1231 90.0122 76.6863 89.721 76.3951C89.4298 76.0927 89.0882 75.9415 88.6962 75.9415C88.3042 75.9415 87.9514 76.0927 87.6378 76.3951C87.3354 76.6863 87.1842 77.1231 87.1842 77.7055C87.1842 78.2767 87.3354 78.7079 87.6378 78.9991C87.9402 79.2903 88.2874 79.4359 88.6794 79.4359ZM94.9626 87.0295C94.4586 87.0295 93.9994 86.9175 93.585 86.6935C93.1818 86.4583 92.8626 86.1335 92.6274 85.7191C92.3922 85.2935 92.2746 84.7895 92.2746 84.2071C92.2746 83.6247 92.3922 83.1263 92.6274 82.7119C92.8738 82.2863 93.1986 81.9615 93.6018 81.7375C94.005 81.5023 94.4586 81.3847 94.9626 81.3847C95.4666 81.3847 95.9202 81.5023 96.3234 81.7375C96.7266 81.9615 97.0458 82.2863 97.281 82.7119C97.5162 83.1263 97.6338 83.6247 97.6338 84.2071C97.6338 84.7895 97.5162 85.2935 97.281 85.7191C97.0458 86.1335 96.7266 86.4583 96.3234 86.6935C95.9202 86.9175 95.4666 87.0295 94.9626 87.0295ZM94.9458 85.9375C95.349 85.9375 95.6962 85.7919 95.9874 85.5007C96.2898 85.2095 96.441 84.7783 96.441 84.2071C96.441 83.6247 96.2954 83.1879 96.0042 82.8967C95.713 82.6055 95.3658 82.4599 94.9626 82.4599C94.5706 82.4599 94.2234 82.6055 93.921 82.8967C93.6186 83.1879 93.4674 83.6247 93.4674 84.2071C93.4674 84.7783 93.613 85.2095 93.9042 85.5007C94.2066 85.7919 94.5538 85.9375 94.9458 85.9375Z" fill="#272D36"/>
<path d="M72.5562 134.157C82.2836 133.351 91.9115 130.435 100.398 125.613C108.884 120.791 116.219 114.178 121.89 106.234C127.562 98.2906 131.435 89.2067 133.24 79.6143C135.046 70.022 134.605 59.8481 132.208 50.386L117.6 54.2817C119.451 61.5933 119.626 69.3774 118.231 76.7897C116.836 84.202 113.843 91.2214 109.461 97.3598C105.078 103.498 99.4106 108.608 92.8529 112.334C86.2952 116.06 78.8555 118.424 71.3388 119.047L72.5562 134.157Z" fill="#505050"/>
<path fill-rule="evenodd" clip-rule="evenodd" d="M108.476 13.9927C120.275 23.1761 128.539 35.9059 132.209 50.4L132.2 50.4026C132.365 51.0232 132.453 51.6753 132.453 52.3479C132.453 56.5164 129.073 59.8957 124.905 59.8957C121.409 59.8957 118.468 57.5189 117.61 54.2932L117.601 54.2957C114.764 43.0957 108.212 33.1413 99.0951 26.045C89.9778 18.9487 78.7542 15.0957 67.2007 15.0957L67.2007 0C82.1523 -1.78296e-07 96.6769 4.80922 108.476 13.9927Z" fill="#E6E6E6"/>
<path fill-rule="evenodd" clip-rule="evenodd" d="M67.4433 15.0957C67.3619 15.0957 67.2807 15.0944 67.1999 15.0918V15.0957C60.2001 15.0957 53.2725 16.688 46.8335 19.4334C40.3945 22.1788 34.5771 26.1977 29.7308 31.2486C24.8845 36.2994 21.1094 42.278 18.6324 48.8249C16.1555 55.3719 15.0277 62.352 15.317 69.3459C15.6063 76.3398 17.3066 83.2029 20.3157 89.523C23.3249 95.843 27.5808 101.489 32.8276 106.123C38.0744 110.756 44.2039 114.281 50.8476 116.485C57.4202 118.666 64.2161 119.618 71.1152 119.079C71.5047 119.017 71.9041 118.985 72.3111 118.985C76.4796 118.985 79.8589 122.364 79.8589 126.533C79.8589 130.62 77.0803 134.021 73.0429 134.153L73.0433 134.157C64.0156 134.905 54.6358 133.834 46.0381 130.981C37.4403 128.128 29.5081 123.567 22.7181 117.571C15.9281 111.575 10.4204 104.267 6.52625 96.0886C2.63204 87.9097 0.431656 79.0279 0.057312 69.977C-0.317039 60.9262 1.14239 51.893 4.34789 43.4205C7.55338 34.948 12.4388 27.2111 18.7104 20.6746C24.9821 14.1382 32.5106 8.93726 40.8434 5.38437C49.1762 1.83149 58.1413 1.2574e-05 67.1999 1.297e-05V0.00386384C67.2807 0.00130303 67.3619 1.297e-05 67.4433 1.297e-05C71.6119 1.297e-05 74.9912 3.37929 74.9912 7.54784C74.9912 11.7164 71.6119 15.0957 67.4433 15.0957Z" fill="#6738DD"/>
<defs>
<clipPath id="clip0_89_9675">
<rect width="66.76" height="21" fill="white" transform="translate(34.0645 43.4679)"/>
</clipPath>
</defs>
</svg>
