<svg width="24" height="24" viewBox="0 0 24 24" fill="none" xmlns="http://www.w3.org/2000/svg">
<g id="icons8-backend">
<path id="Vector" opacity="0.35" d="M19 18H5C3.343 18 2 16.657 2 15V7C2 5.343 3.343 4 5 4H19C20.657 4 22 5.343 22 7V15C22 16.657 20.657 18 19 18Z" fill="#5627CD"/>
<path id="Vector_2" d="M15.5 18C15.324 18 8.676 18 8.5 18C7.672 18 7 18.672 7 19.5C7 20.328 7.672 21 8.5 21C8.676 21 15.324 21 15.5 21C16.328 21 17 20.328 17 19.5C17 18.672 16.328 18 15.5 18Z" fill="#5627CD"/>
<path id="Vector_3" d="M16 13.9999C15.854 13.9999 15.705 13.9679 15.564 13.8999C15.067 13.6589 14.859 13.0609 15.1 12.5639L15.882 10.9499L15.111 9.45895C14.858 8.96895 15.05 8.36495 15.541 8.11095C16.032 7.85795 16.635 8.04895 16.889 8.54095L17.889 10.4769C18.034 10.7569 18.037 11.0879 17.9 11.3719L16.9 13.4359C16.727 13.7929 16.371 13.9999 16 13.9999Z" fill="#5627CD"/>
<path id="Vector_4" d="M8.001 14.0001C7.639 14.0001 7.28899 13.8031 7.11099 13.4591L6.11099 11.5231C5.96599 11.2431 5.96299 10.9121 6.09999 10.6281L7.09999 8.56407C7.34199 8.06507 7.93899 7.86107 8.43599 8.10007C8.93299 8.34107 9.14099 8.93807 8.89999 9.43607L8.11799 11.0501L8.88899 12.5411C9.14199 13.0311 8.94999 13.6351 8.45899 13.8891C8.31199 13.9641 8.155 14.0001 8.001 14.0001Z" fill="#5627CD"/>
<path id="Vector_5" d="M11.501 15.0001C11.447 15.0001 11.391 14.9961 11.335 14.9861C10.791 14.8951 10.422 14.3801 10.513 13.8351L11.513 7.83506C11.604 7.29106 12.117 6.92206 12.664 7.01306C13.208 7.10406 13.577 7.61906 13.486 8.16406L12.486 14.1641C12.405 14.6531 11.981 15.0001 11.501 15.0001Z" fill="#5627CD"/>
</g>
</svg>
