<svg width="60" height="60" viewBox="0 0 60 60" fill="none" xmlns="http://www.w3.org/2000/svg">
<rect width="60" height="60" rx="30" fill="#D5C5FD"/>
<path opacity="0.35" d="M30 15C30 12.238 27.762 10 25 10C22.55 10 20.52 11.766 20.092 14.092C16.66 14.542 14 17.446 14 21C14 21.33 14.052 21.646 14.098 21.964C11.624 23.786 10 26.694 10 30C10 33.306 11.624 36.214 14.098 38.036C14.052 38.354 14 38.67 14 39C14 42.554 16.66 45.458 20.092 45.908C20.52 48.234 22.55 50 25 50C27.762 50 30 47.762 30 45C30 44.704 30 15.308 30 15Z" fill="#300E87"/>
<path opacity="0.35" d="M30 15C30 12.238 32.238 10 35 10C37.45 10 39.48 11.766 39.908 14.092C43.34 14.542 46 17.446 46 21C46 21.33 45.948 21.646 45.902 21.964C48.376 23.786 50 26.694 50 30C50 33.306 48.376 36.214 45.902 38.036C45.948 38.354 46 38.67 46 39C46 42.554 43.34 45.458 39.908 45.908C39.48 48.234 37.45 50 35 50C32.238 50 30 47.762 30 45C30 44.704 30 15.308 30 15Z" fill="#300E87"/>
<path d="M26 22C26 19.79 24.21 18 22 18C19.79 18 18 19.79 18 22C18 23.476 18.81 24.752 20 25.446V26H10.86C10.3 27.22 10 28.58 10 30H22C23.1 30 24 29.1 24 28V25.446C25.19 24.752 26 23.476 26 22Z" fill="#300E87"/>
<path d="M40 34.554C41.19 35.246 42 36.522 42 38C42 40.21 40.21 42 38 42C35.79 42 34 40.21 34 38C34 36.524 34.81 35.248 36 34.554V32C36 30.9 36.9 30 38 30H50C50 27.736 49.226 25.67 47.952 24H41.446C40.754 25.19 39.478 26 38 26C35.79 26 34 24.21 34 22C34 19.79 35.79 18 38 18C39.476 18 40.752 18.81 41.446 20H45.908C45.462 16.916 43.012 14.498 39.91 14.092C39.48 11.766 37.45 10 35 10C32.238 10 30 12.238 30 15C30 15.152 30 44.482 30 45C30 47.762 32.238 50 35 50C37.45 50 39.48 48.234 39.908 45.908C43.34 45.458 46 42.554 46 39C46 38.67 45.948 38.354 45.902 38.036C47.306 37.002 48.422 35.61 49.136 34H40V34.554Z" fill="#300E87"/>
<path d="M22.0001 34C20.5241 34 19.2481 34.81 18.5541 36H12.0601C12.6201 36.78 13.3201 37.46 14.1001 38.04C14.0601 38.36 14.0001 38.66 14.0001 39C14.0001 39.34 14.0201 39.68 14.0801 40H18.5541C19.2481 41.19 20.5241 42 22.0001 42C24.2101 42 26.0001 40.21 26.0001 38C26.0001 35.79 24.2101 34 22.0001 34Z" fill="#300E87"/>
</svg>
