<svg width="48" height="48" viewBox="0 0 48 48" fill="none" xmlns="http://www.w3.org/2000/svg">
<g id="icons8-backend">
<path id="Vector" opacity="0.35" d="M38 36H10C6.686 36 4 33.314 4 30V14C4 10.686 6.686 8 10 8H38C41.314 8 44 10.686 44 14V30C44 33.314 41.314 36 38 36Z" fill="#300E87"/>
<path id="Vector_2" d="M31 36C30.648 36 17.352 36 17 36C15.344 36 14 37.344 14 39C14 40.656 15.344 42 17 42C17.352 42 30.648 42 31 42C32.656 42 34 40.656 34 39C34 37.344 32.656 36 31 36Z" fill="#300E87"/>
<path id="Vector_3" d="M32 28C31.708 28 31.41 27.936 31.128 27.8C30.134 27.318 29.718 26.122 30.2 25.128L31.764 21.9L30.222 18.918C29.716 17.938 30.1 16.73 31.082 16.222C32.064 15.716 33.27 16.098 33.778 17.082L35.778 20.954C36.068 21.514 36.074 22.176 35.8 22.744L33.8 26.872C33.454 27.586 32.742 28 32 28Z" fill="#300E87"/>
<path id="Vector_4" d="M16.0021 28C15.2781 28 14.5781 27.606 14.2221 26.918L12.2221 23.046C11.9321 22.486 11.9261 21.824 12.2001 21.256L14.2001 17.128C14.6841 16.13 15.8781 15.722 16.8721 16.2C17.8661 16.682 18.2821 17.876 17.8001 18.872L16.2361 22.1L17.7781 25.082C18.2841 26.062 17.9001 27.27 16.9181 27.778C16.6241 27.928 16.3101 28 16.0021 28Z" fill="#300E87"/>
<path id="Vector_5" d="M23.0021 30C22.8941 30 22.7821 29.992 22.6701 29.972C21.5821 29.79 20.8441 28.76 21.0261 27.67L23.0261 15.67C23.2081 14.582 24.2341 13.844 25.3281 14.026C26.4161 14.208 27.1541 15.238 26.9721 16.328L24.9721 28.328C24.8101 29.306 23.9621 30 23.0021 30Z" fill="#300E87"/>
</g>
</svg>
