<svg width="24" height="24" viewBox="0 0 24 24" fill="none" xmlns="http://www.w3.org/2000/svg">
<g id="icons8-bouclier-de-s&#195;&#169;curit&#195;&#169;-vert">
<path id="Vector" opacity="0.35" d="M21.997 7.974C22.054 6.964 21.342 6.037 20.338 5.872C16.166 5.189 16.487 2 12 2C7.513 2 7.834 5.189 3.662 5.872C2.659 6.036 1.946 6.963 2.003 7.974C2.433 15.604 5.502 19.229 12 22C18.498 19.229 21.567 15.604 21.997 7.974Z" fill="#5627CD"/>
<path id="Vector_2" d="M16 10C16 7.79 14.21 6 12 6C9.79 6 8 7.79 8 10C7.45 10 7 10.45 7 11V15C7 15.55 7.45 16 8 16H16C16.55 16 17 15.55 17 15V11C17 10.45 16.55 10 16 10ZM13 13C13 13.55 12.55 14 12 14C11.45 14 11 13.55 11 13C11 12.45 11.45 12 12 12C12.55 12 13 12.45 13 13ZM10 10C10 8.9 10.9 8 12 8C13.1 8 14 8.9 14 10H10Z" fill="#5627CD"/>
</g>
</svg>
