<svg width="48" height="49" viewBox="0 0 48 49" fill="none" xmlns="http://www.w3.org/2000/svg">
<path d="M0 24.5C0 13.1863 0 7.52944 3.51472 4.01472C7.02944 0.5 12.6863 0.5 24 0.5C35.3137 0.5 40.9706 0.5 44.4853 4.01472C48 7.52944 48 13.1863 48 24.5C48 35.8137 48 41.4706 44.4853 44.9853C40.9706 48.5 35.3137 48.5 24 48.5C12.6863 48.5 7.02944 48.5 3.51472 44.9853C0 41.4706 0 35.8137 0 24.5Z" fill="#F5F5F5"/>
<rect x="15" y="18.5" width="18" height="15" rx="2" stroke="#6738DD" stroke-width="2"/>
<path d="M15 22.5C15 20.6144 15 19.6716 15.5858 19.0858C16.1716 18.5 17.1144 18.5 19 18.5H29C30.8856 18.5 31.8284 18.5 32.4142 19.0858C33 19.6716 33 20.6144 33 22.5H15Z" fill="#6738DD"/>
<path d="M19 15.5L19 18.5" stroke="#6738DD" stroke-width="2" stroke-linecap="round"/>
<path d="M29 15.5L29 18.5" stroke="#6738DD" stroke-width="2" stroke-linecap="round"/>
</svg>
