<svg width="24" height="24" viewBox="0 0 24 24" fill="none" xmlns="http://www.w3.org/2000/svg">
<g id="icons8-stylo">
<path id="Vector" opacity="0.35" d="M16 16H10C8.895 16 8 15.105 8 14V8C8 5.239 10.239 3 13 3C17.418 3 21 6.582 21 11C21 13.761 18.761 16 16 16Z" fill="#5627CD"/>
<path id="Vector_2" d="M14.5 8C13.672 8 13 8.672 13 9.5C13 9.527 13.006 9.552 13.008 9.578L8.074 14.512C8.257 15.203 8.797 15.743 9.488 15.926L14.422 10.992C14.448 10.994 14.473 11 14.5 11C15.328 11 16 10.328 16 9.5C16 8.672 15.328 8 14.5 8Z" fill="#5627CD"/>
<path id="Vector_3" d="M21.51 4.11105L19.389 1.99005C18.608 1.20905 17.342 1.20905 16.561 1.99005L15.229 3.32205C17.6 4.00905 19.514 5.76005 20.423 8.02805L21.511 6.94005C22.291 6.15805 22.291 4.89205 21.51 4.11105Z" fill="#5627CD"/>
<path id="Vector_4" d="M14.5 19C13.678 19 12.956 19.402 12.5 20.014V20C7.813 20 4 16.187 4 11.5H3.986C4.598 11.044 5 10.322 5 9.5C5 8.119 3.881 7 2.5 7C1.119 7 0 8.119 0 9.5C0 10.322 0.402 11.044 1.014 11.5H1C1 17.841 6.159 23 12.5 23V22.986C12.956 23.598 13.678 24 14.5 24C15.881 24 17 22.881 17 21.5C17 20.119 15.881 19 14.5 19Z" fill="#5627CD"/>
</g>
</svg>
