<svg width="49" height="48" viewBox="0 0 49 48" fill="none" xmlns="http://www.w3.org/2000/svg">
<g id="Social Icons">
<g clip-path="url(#clip0_1524_5179)">
<rect x="0.299805" width="48" height="48" rx="24" fill="#7C50E9"/>
<path id="Vector" d="M24.2998 0C11.0451 0 0.299805 10.7453 0.299805 24C0.299805 35.255 8.04892 44.6995 18.5024 47.2934V31.3344H13.5536V24H18.5024V20.8397C18.5024 12.671 22.1993 8.8848 30.2192 8.8848C31.7398 8.8848 34.3635 9.18336 35.4368 9.48096V16.129C34.8704 16.0694 33.8864 16.0397 32.6643 16.0397C28.7292 16.0397 27.2086 17.5306 27.2086 21.4061V24H35.048L33.7011 31.3344H27.2086V47.8243C39.0924 46.3891 48.3008 36.2707 48.3008 24C48.2998 10.7453 37.5545 0 24.2998 0Z" fill="white"/>
</g>
</g>
<defs>
<clipPath id="clip0_1524_5179">
<rect x="0.299805" width="48" height="48" rx="24" fill="white"/>
</clipPath>
</defs>
</svg>
