<svg width="48" height="48" viewBox="0 0 48 48" fill="none" xmlns="http://www.w3.org/2000/svg">
<path d="M12 10.5V30H34.7929C35.3066 30 35.5635 30 35.6274 29.8457C35.6913 29.6913 35.5097 29.5097 35.1464 29.1464L26.2828 20.2828C26.1495 20.1495 26.0828 20.0828 26.0828 20C26.0828 19.9172 26.1495 19.8505 26.2828 19.7172L35.1464 10.8536C35.5097 10.4903 35.6913 10.3087 35.6274 10.1543C35.5635 10 35.3066 10 34.7929 10H12.5C12.2643 10 12.1464 10 12.0732 10.0732C12 10.1464 12 10.2643 12 10.5Z" fill="white"/>
<path d="M12 30V10.5C12 10.2643 12 10.1464 12.0732 10.0732C12.1464 10 12.2643 10 12.5 10H34.7929C35.3066 10 35.5635 10 35.6274 10.1543C35.6913 10.3087 35.5097 10.4903 35.1464 10.8536L26.2828 19.7172C26.1495 19.8505 26.0828 19.9172 26.0828 20C26.0828 20.0828 26.1495 20.1495 26.2828 20.2828L35.1464 29.1464C35.5097 29.5097 35.6913 29.6913 35.6274 29.8457C35.5635 30 35.3066 30 34.7929 30H12ZM12 30V38" stroke="white" stroke-width="2" stroke-linecap="round"/>
</svg>
