<svg width="178" height="172" viewBox="0 0 178 172" fill="none" xmlns="http://www.w3.org/2000/svg">
<g clip-path="url(#clip0_1163_3130)">
<path d="M107.259 18.4159C107.244 18.4204 107.227 18.4234 107.212 18.4278C106.099 18.6969 104.627 19.4129 102.978 20.3934C100.48 21.8777 97.5706 23.9688 94.8707 26.0375C94.421 26.3813 93.9772 26.7251 93.541 27.0659C89.3424 30.3498 85.9507 33.3019 85.9507 33.3019C85.9507 33.3019 79.2376 24.6758 75.9968 22.9554C75.9893 22.8283 75.9804 22.7043 75.9714 22.5817C75.6651 18.8269 74.1082 16.8703 73.3686 15.1843C70.5133 8.66875 78.2814 1.58373 84.9078 5.69872C87.161 -1.28914 97.5243 -1.60901 100.22 4.41176C100.259 4.49546 100.296 4.58216 100.33 4.66885C102.805 3.56425 106.255 2.80642 109.926 5.12624C114.259 7.86309 114.95 16.5206 107.259 18.4159Z" fill="#232323"/>
<path d="M96.5027 8.64324C96.4394 8.64321 96.377 8.62705 96.3217 8.59629C96.2663 8.56553 96.2196 8.52118 96.186 8.46741C96.1525 8.41365 96.1332 8.35222 96.1299 8.28893C96.1266 8.22563 96.1395 8.16254 96.1673 8.10559C98.5199 3.28075 103.685 2.8827 103.904 2.86806C104.003 2.86182 104.1 2.8949 104.174 2.96009C104.249 3.02528 104.294 3.11728 104.301 3.21603C104.308 3.31489 104.275 3.41232 104.21 3.48688C104.144 3.56144 104.052 3.60703 103.953 3.61363C103.905 3.61692 98.9978 4.0054 96.8387 8.43308C96.8081 8.49612 96.7603 8.54926 96.7009 8.58642C96.6415 8.62358 96.5728 8.64327 96.5027 8.64324Z" fill="white"/>
<path d="M111.622 41.7232C111.62 41.7636 111.619 41.8054 111.616 41.8473C111.614 41.8951 111.611 41.9429 111.605 41.9908C111.602 42.0326 111.599 42.076 111.593 42.1193V42.1223C111.587 42.1836 111.578 42.2449 111.569 42.3077C111.562 42.3659 111.551 42.4257 111.541 42.484C111.541 42.4885 111.539 42.493 111.538 42.4975C111.529 42.5498 111.518 42.6036 111.506 42.6559C111.471 42.8263 111.426 42.9952 111.37 43.1626C111.357 43.2045 111.344 43.2463 111.329 43.2882C111.296 43.3883 111.257 43.487 111.217 43.5856C111.167 43.7062 111.114 43.8249 111.055 43.9414C111.027 43.9982 110.998 44.0535 110.969 44.1088C110.937 44.1656 110.906 44.2224 110.873 44.2792C110.84 44.3345 110.806 44.3913 110.771 44.4466C110.702 44.5537 110.63 44.6593 110.556 44.7635C110.547 44.774 110.54 44.7859 110.532 44.7964C110.498 44.8427 110.464 44.8876 110.428 44.9324C110.386 44.9847 110.344 45.037 110.301 45.0893C110.257 45.1402 110.213 45.191 110.168 45.2418C110.165 45.2448 110.162 45.2478 110.16 45.2508C110.071 45.349 109.979 45.4443 109.884 45.5363C109.836 45.5826 109.787 45.6289 109.737 45.6753C109.736 45.6753 109.734 45.6768 109.733 45.6783C109.682 45.7246 109.63 45.7709 109.576 45.8158C109.53 45.8546 109.485 45.8935 109.437 45.9309C109.421 45.9443 109.404 45.9578 109.386 45.9712C109.34 46.0071 109.292 46.043 109.244 46.0789C109.188 46.1222 109.129 46.1641 109.07 46.2044C109.01 46.2448 108.95 46.2851 108.889 46.324C108.838 46.3569 108.787 46.3898 108.735 46.4212L108.636 46.4794C108.532 46.5407 108.424 46.599 108.313 46.6558C108.242 46.6932 108.17 46.7291 108.097 46.7634C107.671 46.9682 107.238 47.1551 106.797 47.321C106.724 47.3494 106.649 47.3763 106.576 47.4017C106.477 47.4361 106.377 47.4705 106.278 47.5033C106.211 47.5258 106.144 47.5482 106.077 47.5691C106.017 47.587 105.957 47.6065 105.896 47.6244C105.805 47.6513 105.715 47.6782 105.624 47.7036C105.008 47.8785 104.382 48.0145 103.747 48.1102C103.671 48.1222 103.595 48.1341 103.519 48.1446L103.363 48.167C103.245 48.1819 103.129 48.1969 103.012 48.2103C102.882 48.2253 102.752 48.2387 102.624 48.2492C102.389 48.2716 102.158 48.2881 101.929 48.3015C100.704 48.3733 99.4772 48.3269 98.2624 48.164C98.1579 48.1506 98.0562 48.1356 97.9576 48.1222C97.9173 48.1177 97.8769 48.1117 97.8381 48.1057L97.5587 48.0609C97.088 47.9802 96.6204 47.883 96.1557 47.7694L96.1034 47.7559C96.1034 47.7559 96.1721 50.7708 96.5741 53.2446C96.6906 53.9665 96.8355 54.6422 97.0163 55.1833C97.0163 55.1833 97.0163 55.1848 97.0148 55.1877C96.97 55.394 101.914 66.49 97.9304 70.1476C97.0728 70.9368 88.2723 69.7276 87.1727 70.1476C82.9248 69.9294 74.3149 62.6772 70.2972 55.4532C70.2523 55.3725 69.4879 54.4519 69.4401 54.3592C69.3804 54.2396 70.4551 53.0172 70.3983 52.8977C70.3983 52.8977 74.8463 44.5571 76.1044 37.3286C76.1223 37.2299 76.1388 37.1313 76.1552 37.0326V37.0311C75.7097 36.8555 75.2747 36.6544 74.8523 36.4287C74.7059 36.351 74.561 36.2703 74.4175 36.1866C74.286 36.1104 74.1546 36.0311 74.0246 35.9504C73.63 35.7032 73.248 35.4363 72.8801 35.1507C72.8308 35.1134 72.7815 35.0745 72.7336 35.0341C72.635 34.9549 72.5379 34.8757 72.4423 34.795C72.2507 34.6325 72.0644 34.464 71.8835 34.2898C69.9202 32.4094 68.6038 29.8863 69.2164 27.1091C69.4899 25.8685 70.2071 24.7384 71.1723 23.9029C71.2335 23.8491 71.2978 23.7968 71.362 23.7445C71.4576 23.6682 71.5563 23.5935 71.6579 23.5217C71.9926 23.2848 72.3505 23.0824 72.7262 22.9179C73.7332 22.4769 74.8568 22.326 75.9714 22.5816C76.1193 22.6159 76.2658 22.6563 76.4137 22.7056C77.9452 23.2123 78.9881 23.9388 79.9473 24.8924C80.4867 25.4275 81.0007 26.0359 81.5595 26.716C81.6222 26.7907 81.685 26.8669 81.7478 26.9447C81.8733 27.0986 82.0033 27.2571 82.1362 27.4185C82.4022 27.7429 82.6816 28.0792 82.9804 28.4319C83.0566 28.5216 83.1313 28.6068 83.2045 28.6875C83.2524 28.7398 83.3002 28.7907 83.348 28.84C83.3943 28.8908 83.4421 28.9386 83.4884 28.9835C83.5737 29.0702 83.6625 29.1534 83.7544 29.2331C83.7977 29.2705 83.8395 29.3063 83.8829 29.3392C84.3894 29.7488 84.8107 29.8758 85.1962 29.7757C85.25 29.7622 85.3053 29.7428 85.3591 29.7189C85.4936 29.6606 85.625 29.5739 85.755 29.4603C85.8058 29.414 85.8581 29.3646 85.9104 29.3123C86.4259 28.7787 86.9399 27.846 87.5988 26.6607C87.7378 26.4111 87.8827 26.1659 88.0321 25.9238C88.1322 25.7623 88.2353 25.6024 88.3384 25.444C88.443 25.287 88.5491 25.1301 88.6566 24.9761C88.8733 24.6682 89.0959 24.3693 89.3215 24.0778C90.5094 22.5517 91.8123 21.2826 92.8656 20.4635C93.3542 20.0824 93.8936 19.7565 94.4733 19.4815C94.4748 19.4785 94.4778 19.477 94.4793 19.4785C95.1442 19.1571 95.8614 18.903 96.6114 18.7027C99.3128 17.9778 102.44 17.9539 105.121 18.187C105.857 18.2513 106.561 18.3335 107.212 18.4277C107.167 19.5697 107.151 20.7102 107.16 21.8521V21.8536C107.175 23.9597 107.281 26.0628 107.478 28.1599C107.489 28.275 107.499 28.3886 107.513 28.5007L107.517 28.5395C107.529 28.6517 107.544 28.7623 107.559 28.8714C107.574 28.979 107.589 29.0851 107.605 29.1912C107.629 29.3332 107.653 29.4738 107.678 29.6128C107.696 29.701 107.713 29.7876 107.731 29.8743C107.75 29.97 107.771 30.0657 107.794 30.1583C107.807 30.2181 107.82 30.2779 107.834 30.3362C107.858 30.4319 107.882 30.5275 107.906 30.6217C107.909 30.6292 107.91 30.6367 107.912 30.6441C107.941 30.7547 107.971 30.8639 108.003 30.973C108.064 31.1882 108.128 31.3975 108.197 31.6037C108.281 31.8593 108.37 32.109 108.463 32.3541C108.566 32.6291 108.675 32.8982 108.787 33.1613C108.844 33.2928 108.901 33.4243 108.957 33.5544C108.999 33.65 109.043 33.7457 109.086 33.8399C109.159 34.0013 109.232 34.1612 109.307 34.3212C109.367 34.4482 109.425 34.5738 109.485 34.6978C109.693 35.1343 109.9 35.5648 110.1 35.9953C110.139 36.0775 110.178 36.1612 110.216 36.2434C110.432 36.7127 110.637 37.1836 110.819 37.6664L110.877 37.8188C111.045 38.2732 111.193 38.7381 111.312 39.2194C111.357 39.3988 111.397 39.5811 111.433 39.7665C111.445 39.8233 111.456 39.8816 111.466 39.9398C111.483 40.0265 111.496 40.1147 111.509 40.2029C111.523 40.2896 111.535 40.3763 111.545 40.463C111.548 40.4794 111.55 40.4959 111.551 40.5123C111.562 40.5975 111.571 40.6812 111.58 40.7664C111.58 40.7709 111.581 40.7754 111.58 40.7799C111.589 40.8681 111.596 40.9548 111.602 41.043C111.604 41.0504 111.604 41.0579 111.604 41.0669C111.611 41.1596 111.616 41.2522 111.62 41.3449C111.626 41.4706 111.626 41.5977 111.622 41.7232Z" fill="white"/>
<path d="M102.192 18.9527C103.108 18.9527 104.067 18.9957 105.043 19.0806C105.464 19.1174 105.881 19.1608 106.289 19.2101C106.265 20.0906 106.256 20.9714 106.263 21.8522V21.8601C106.279 23.9909 106.386 26.12 106.585 28.2415C106.596 28.3535 106.607 28.4804 106.622 28.6018L106.623 28.6095L106.626 28.6358C106.639 28.7598 106.655 28.8804 106.671 28.9949C106.687 29.1102 106.703 29.2254 106.721 29.3405C106.746 29.4868 106.77 29.6313 106.797 29.7745L106.8 29.7911L106.822 29.9022C106.832 29.9534 106.842 30.0046 106.852 30.0536C106.875 30.1663 106.897 30.2673 106.921 30.3621C106.934 30.4213 106.947 30.4806 106.961 30.5385L106.964 30.5533C106.99 30.6571 107.016 30.7608 107.043 30.8645L107.046 30.8779C107.077 30.9932 107.109 31.1071 107.141 31.2184C107.207 31.4516 107.274 31.6704 107.345 31.883C107.432 32.1471 107.525 32.4092 107.624 32.6691C107.725 32.9399 107.836 33.216 107.964 33.5169L107.971 33.5318C108.026 33.6596 108.081 33.7874 108.136 33.9136C108.18 34.0146 108.226 34.1157 108.27 34.2103C108.344 34.3749 108.419 34.5378 108.496 34.7031L108.543 34.8034C108.588 34.8989 108.632 34.9934 108.676 35.0832L108.849 35.446C108.997 35.7559 109.144 36.0666 109.29 36.3779C109.327 36.4563 109.364 36.5359 109.402 36.6192C109.641 37.1386 109.825 37.5721 109.982 37.9864L110.038 38.1338C110.206 38.5891 110.338 39.015 110.443 39.4366C110.485 39.6071 110.523 39.7788 110.556 39.9514C110.567 39.9994 110.575 40.0486 110.584 40.0979L110.586 40.1074C110.6 40.1832 110.612 40.2602 110.624 40.3409C110.636 40.4173 110.646 40.4938 110.656 40.5702L110.659 40.5955C110.66 40.6041 110.661 40.6128 110.662 40.6215C110.67 40.6893 110.678 40.7563 110.685 40.8239C110.686 40.8394 110.687 40.8551 110.688 40.8707C110.696 40.9487 110.703 41.0255 110.708 41.1037L110.709 41.1122L110.711 41.1387C110.717 41.2197 110.721 41.3007 110.725 41.3875C110.73 41.4823 110.73 41.5842 110.726 41.6905C110.725 41.7206 110.724 41.7518 110.722 41.783C110.721 41.7952 110.72 41.8074 110.72 41.8197C110.72 41.8395 110.718 41.8593 110.716 41.879C110.714 41.8962 110.712 41.9133 110.711 41.9306C110.71 41.9521 110.709 41.9742 110.706 41.9965C110.703 42.0134 110.702 42.0304 110.7 42.0475C110.696 42.0863 110.69 42.1253 110.685 42.1649L110.682 42.1814L110.681 42.1927C110.674 42.2444 110.665 42.2958 110.655 42.3468C110.648 42.3829 110.641 42.4198 110.633 42.4558L110.63 42.4714C110.6 42.6119 110.563 42.7507 110.518 42.887L110.515 42.8947C110.505 42.9252 110.496 42.9557 110.485 42.9861L110.477 43.0087C110.452 43.0858 110.419 43.1684 110.386 43.2486C110.346 43.3475 110.301 43.4449 110.253 43.5404C110.23 43.5871 110.206 43.6334 110.182 43.6793C110.155 43.728 110.128 43.7767 110.1 43.8254C110.072 43.8727 110.043 43.9196 110.014 43.9664C109.985 44.0111 109.956 44.0559 109.926 44.0994L109.92 44.1085C109.893 44.1481 109.865 44.1876 109.838 44.2272C109.826 44.242 109.815 44.257 109.805 44.2724C109.78 44.3063 109.754 44.3393 109.728 44.3721L109.722 44.3801C109.686 44.4242 109.651 44.4683 109.615 44.5123C109.57 44.5651 109.524 44.6175 109.477 44.6694C109.407 44.746 109.335 44.8204 109.26 44.8924C109.224 44.9277 109.186 44.9631 109.148 44.9988C109.142 45.0041 109.136 45.0094 109.13 45.0148C109.089 45.0525 109.046 45.0903 109 45.1284L108.963 45.1602C108.937 45.1819 108.912 45.2034 108.885 45.2244C108.88 45.2286 108.874 45.2329 108.869 45.2374C108.862 45.243 108.855 45.2489 108.847 45.2545L108.838 45.2617C108.795 45.2949 108.751 45.3279 108.707 45.3611L108.701 45.3656C108.657 45.3989 108.613 45.4311 108.569 45.4604L108.561 45.4662C108.51 45.5001 108.46 45.5341 108.409 45.5668L108.398 45.5737C108.357 45.6001 108.316 45.6267 108.28 45.6487L108.229 45.6785L108.183 45.7058C108.1 45.7547 108.009 45.8045 107.899 45.8605C107.833 45.895 107.773 45.9249 107.716 45.9517L107.709 45.9553C107.307 46.1486 106.898 46.3243 106.481 46.4817L106.473 46.4849C106.41 46.5094 106.345 46.5325 106.281 46.555C106.186 46.588 106.09 46.621 105.991 46.6541C105.932 46.6736 105.873 46.6934 105.814 46.7118C105.787 46.7198 105.76 46.7282 105.734 46.7366C105.704 46.7458 105.674 46.7551 105.643 46.7644L105.586 46.781C105.519 46.801 105.452 46.8209 105.379 46.8411C104.798 47.0061 104.207 47.1341 103.609 47.2243L103.597 47.2262C103.53 47.2367 103.463 47.2472 103.391 47.2572L103.242 47.2787L103.224 47.281C103.118 47.2944 103.014 47.3077 102.911 47.3197C102.787 47.3342 102.663 47.3465 102.539 47.3567C102.339 47.3757 102.122 47.392 101.877 47.4065C100.709 47.4748 99.537 47.4307 98.3773 47.2748C98.3122 47.2665 98.2482 47.2575 98.1855 47.2487L98.0794 47.2339L98.0559 47.2309C98.0285 47.2277 98.001 47.2236 97.9811 47.2206L97.8167 47.1943L97.7057 47.1765C97.2592 47.0997 96.8154 47.0075 96.3752 46.9001L96.3192 46.8857C96.1854 46.8527 96.0458 46.8509 95.9112 46.8806C95.7766 46.9102 95.6507 46.9704 95.5431 47.0566C95.4356 47.1427 95.3493 47.2525 95.2911 47.3773C95.2328 47.5022 95.2041 47.6388 95.2072 47.7766C95.2101 47.9022 95.2821 50.8824 95.6891 53.3878C95.8168 54.1787 95.967 54.8467 96.136 55.3755C96.1702 55.5316 96.2477 55.7395 96.3833 56.103C96.8194 57.2731 97.8409 60.0129 98.325 62.8244C98.7087 65.0536 98.8529 67.991 97.3909 69.4242C97.2748 69.4557 96.9105 69.5252 95.9522 69.5252C94.7693 69.5252 93.2161 69.4255 91.7141 69.329C90.3607 69.242 89.0825 69.1599 88.1903 69.1599C87.6853 69.1599 87.3408 69.1847 87.0821 69.2426C85.26 69.0734 82.2747 67.3671 79.2337 64.7485C75.8906 61.8697 72.9189 58.323 71.0811 55.0186C71.0269 54.9208 70.9659 54.8428 70.6103 54.4013L70.532 54.3039L70.6366 54.1655C70.9341 53.7729 71.1576 53.4778 71.2535 53.199C71.8292 52.1009 75.7874 44.3806 76.9865 37.4897C77.0045 37.3911 77.0211 37.2924 77.0375 37.1936L77.0396 37.1811C77.0739 36.978 77.0373 36.7693 76.9359 36.5901C76.8344 36.4108 76.6744 36.272 76.4827 36.1969C76.0689 36.0338 75.6649 35.8469 75.2726 35.6372C75.1361 35.5646 75.001 35.4894 74.8674 35.4115C74.7444 35.34 74.6225 35.2668 74.5017 35.1917C74.1325 34.9604 73.7751 34.7107 73.4308 34.4436L73.422 34.4369C73.3844 34.4086 73.3476 34.3793 73.3116 34.349L73.2951 34.3355C73.2022 34.2608 73.1108 34.1862 73.0238 34.113C72.8455 33.9618 72.672 33.805 72.5037 33.6427C71.541 32.7208 70.8377 31.7292 70.4135 30.6959C69.9517 29.5711 69.8437 28.4296 70.0922 27.303C70.3166 26.2845 70.9085 25.3181 71.7641 24.5775C71.8158 24.5321 71.8702 24.488 71.9246 24.4437C72.0088 24.3766 72.0919 24.3141 72.1711 24.2579C72.2307 24.2168 72.2903 24.1757 72.3484 24.1378C72.5832 23.9856 72.8298 23.8527 73.0858 23.7402C73.67 23.4844 74.2702 23.3547 74.8698 23.3547C75.1736 23.3547 75.4769 23.3889 75.7687 23.4559C75.897 23.4858 76.0155 23.5188 76.1323 23.5578C77.3933 23.9751 78.3453 24.5646 79.3162 25.5299C79.8019 26.0118 80.2698 26.5592 80.8671 27.2863L80.8731 27.2934C80.9323 27.3638 80.9913 27.4357 81.0533 27.5124C81.1829 27.6713 81.3129 27.8298 81.4433 27.988C81.7253 28.3322 82.0101 28.674 82.2976 29.0136C82.378 29.1082 82.46 29.2016 82.5434 29.2937C82.5942 29.3491 82.6448 29.4032 82.6956 29.4557C82.7564 29.5218 82.815 29.5798 82.8567 29.6204C82.9298 29.6945 83.0051 29.7663 83.0825 29.836C83.1128 29.8642 83.1428 29.8904 83.1694 29.9132C83.2208 29.9576 83.2719 30.0011 83.3296 30.0455C83.8823 30.4899 84.41 30.7059 84.9427 30.7059C85.1027 30.7059 85.2627 30.6856 85.4182 30.6455C85.5187 30.6202 85.62 30.585 85.7196 30.541C85.9349 30.4472 86.1453 30.3111 86.3451 30.1367L86.3597 30.1237C86.4227 30.0664 86.4844 30.0076 86.5447 29.9475L86.5554 29.9364C87.1422 29.3289 87.6722 28.3756 88.343 27.1686L88.3825 27.0978C88.5145 26.8611 88.6518 26.6276 88.7944 26.3972C88.8904 26.2431 88.9881 26.09 89.0874 25.938C89.1866 25.7885 89.2875 25.6401 89.3901 25.4929C89.5965 25.2002 89.8095 24.9123 90.0292 24.6294C91.061 23.3037 92.2955 22.0436 93.4173 21.1713C93.8417 20.8402 94.3264 20.5446 94.8577 20.2924L94.8743 20.2843C95.4559 20.0038 96.118 19.7634 96.8441 19.5696C98.3676 19.1602 100.167 18.9528 102.192 18.9527ZM102.192 18.0558C100.312 18.0558 98.3711 18.2306 96.6114 18.7029C95.8614 18.9032 95.1442 19.1573 94.4793 19.4787C94.4789 19.4783 94.4783 19.4781 94.4778 19.4781C94.4763 19.4781 94.4744 19.4794 94.4733 19.4817C93.8936 19.7567 93.3542 20.0826 92.8656 20.4637C91.8123 21.2828 90.5094 22.5518 89.3215 24.078C89.0959 24.3694 88.8733 24.6684 88.6566 24.9763C88.5491 25.1303 88.443 25.2872 88.3384 25.4441C88.2353 25.6026 88.1322 25.7625 88.0321 25.924C87.8827 26.1661 87.7378 26.4112 87.5988 26.6609C86.9399 27.8462 86.4259 28.7789 85.9104 29.3125C85.8581 29.3648 85.8058 29.4141 85.755 29.4605C85.625 29.5741 85.4936 29.6608 85.3591 29.7191C85.3053 29.743 85.25 29.7624 85.1962 29.7759C85.1133 29.7975 85.028 29.8085 84.9424 29.8085C84.6258 29.8085 84.2806 29.6611 83.8829 29.3394C83.8395 29.3065 83.7977 29.2707 83.7544 29.2333C83.6625 29.1536 83.5737 29.0704 83.4884 28.9837C83.4421 28.9388 83.3943 28.891 83.348 28.8402C83.3002 28.7908 83.2524 28.74 83.2045 28.6877C83.1313 28.607 83.0566 28.5218 82.9804 28.4321C82.6816 28.0794 82.4022 27.743 82.1362 27.4187C82.0033 27.2573 81.8733 27.0988 81.7478 26.9449C81.685 26.8671 81.6222 26.7909 81.5595 26.7162C81.0007 26.0361 80.4867 25.4277 79.9473 24.8926C78.9881 23.939 77.9452 23.2125 76.4137 22.7058C76.2658 22.6565 76.1193 22.6161 75.9714 22.5817C75.61 22.4989 75.2404 22.4571 74.8697 22.4572C74.1281 22.4572 73.4008 22.6225 72.7262 22.9181C72.3505 23.0826 71.9926 23.2849 71.6579 23.5219C71.5563 23.5937 71.4576 23.6684 71.362 23.7446C71.2978 23.797 71.2335 23.8493 71.1723 23.9031C70.2071 24.7386 69.4899 25.8687 69.2164 27.1093C68.6038 29.8865 69.9202 32.4096 71.8835 34.29C72.0643 34.4648 72.251 34.6323 72.4423 34.7952C72.5379 34.8759 72.635 34.9551 72.7336 35.0343C72.7815 35.0747 72.8308 35.1136 72.8801 35.1509C73.2506 35.4394 73.6346 35.7055 74.0246 35.9506C74.1546 36.0313 74.286 36.1105 74.4175 36.1868C74.561 36.2705 74.7059 36.3512 74.8523 36.4289C75.2871 36.6606 75.7249 36.8624 76.1552 37.0313V37.0328C76.1388 37.1314 76.1223 37.2301 76.1044 37.3287C74.8463 44.5573 70.3983 52.8979 70.3983 52.8979C70.4551 53.0174 69.3803 54.2398 69.44 54.3594C69.4878 54.4521 70.2523 55.3727 70.297 55.4534C74.3147 62.6774 82.9247 69.9296 87.1725 70.1478C87.344 70.0823 87.7029 70.0565 88.19 70.0565C90.02 70.0565 93.658 70.4219 95.9519 70.4219C96.9604 70.4219 97.7093 70.3512 97.9303 70.1479C101.914 66.4903 96.9699 55.3943 97.0147 55.1881C97.0162 55.1851 97.0162 55.1836 97.0162 55.1836C96.8354 54.6425 96.6905 53.9669 96.5739 53.2449C96.172 50.7711 96.1033 47.7563 96.1033 47.7563L96.1556 47.7697C96.6202 47.8833 97.0879 47.9805 97.5586 48.0612L97.838 48.106C97.8768 48.112 97.9171 48.118 97.9575 48.1225C98.0561 48.1359 98.1577 48.1509 98.2623 48.1643C99.4773 48.3273 100.705 48.3734 101.929 48.3019C102.158 48.2884 102.389 48.272 102.624 48.2495C102.752 48.2391 102.882 48.2256 103.012 48.2107C103.129 48.1972 103.245 48.1823 103.363 48.1673L103.519 48.1449C103.595 48.1344 103.671 48.1225 103.747 48.1105C104.382 48.0149 105.008 47.8788 105.624 47.704C105.715 47.6786 105.805 47.6516 105.896 47.6247C105.957 47.6068 106.017 47.5874 106.077 47.5694C106.144 47.5485 106.211 47.5261 106.278 47.5037C106.377 47.4708 106.477 47.4364 106.576 47.402C106.649 47.3766 106.724 47.3497 106.797 47.3213C107.238 47.1554 107.671 46.9686 108.097 46.7638C108.17 46.7294 108.242 46.6935 108.313 46.6562C108.424 46.5994 108.531 46.5411 108.636 46.4798L108.735 46.4215C108.787 46.3901 108.838 46.3572 108.889 46.3243C108.95 46.2855 109.01 46.2451 109.069 46.2048C109.129 46.1644 109.187 46.1225 109.244 46.0792C109.292 46.0433 109.34 46.0074 109.386 45.9716C109.404 45.9581 109.42 45.9447 109.437 45.9312C109.485 45.8938 109.53 45.855 109.576 45.8161C109.63 45.7713 109.682 45.7249 109.733 45.6786C109.734 45.6771 109.736 45.6756 109.737 45.6756C109.787 45.6293 109.836 45.5829 109.884 45.5366C109.979 45.4446 110.071 45.3494 110.16 45.2511C110.162 45.2481 110.165 45.2451 110.168 45.2421C110.212 45.1913 110.257 45.1405 110.301 45.0897C110.344 45.0374 110.386 44.9851 110.428 44.9327C110.463 44.8879 110.498 44.8431 110.532 44.7967C110.54 44.7862 110.547 44.7743 110.556 44.7638C110.592 44.713 110.628 44.6622 110.662 44.6114C110.699 44.5576 110.735 44.5023 110.771 44.4469C110.806 44.3916 110.84 44.3348 110.873 44.2795C110.906 44.2227 110.937 44.1659 110.968 44.1091C111.031 43.9926 111.09 43.8739 111.145 43.7534C111.17 43.6966 111.194 43.6413 111.216 43.586C111.257 43.4873 111.296 43.3887 111.329 43.2885C111.343 43.2467 111.357 43.2048 111.37 43.163C111.426 42.9956 111.47 42.8267 111.506 42.6563C111.518 42.6039 111.529 42.5501 111.538 42.4978C111.539 42.4933 111.541 42.4888 111.541 42.4844C111.551 42.4261 111.562 42.3663 111.569 42.308C111.578 42.2452 111.587 42.1839 111.593 42.1226V42.1197C111.599 42.0763 111.602 42.033 111.605 41.9911C111.611 41.9433 111.614 41.8954 111.615 41.8476C111.618 41.8058 111.62 41.7639 111.621 41.7235C111.626 41.598 111.626 41.4709 111.62 41.3454C111.615 41.2527 111.611 41.16 111.603 41.0674C111.603 41.0584 111.603 41.0509 111.602 41.0434C111.596 40.9553 111.588 40.8686 111.58 40.7804C111.581 40.7759 111.58 40.7714 111.58 40.7669C111.571 40.6817 111.562 40.598 111.551 40.5128C111.55 40.4964 111.548 40.4799 111.545 40.4635C111.535 40.3768 111.523 40.2901 111.509 40.2034C111.496 40.1152 111.482 40.027 111.466 39.9403C111.456 39.882 111.445 39.8237 111.433 39.7669C111.397 39.5816 111.357 39.3992 111.312 39.2199C111.193 38.7386 111.045 38.2737 110.877 37.8193L110.819 37.6669C110.637 37.1841 110.432 36.7132 110.215 36.2439C110.178 36.1617 110.139 36.078 110.1 35.9957C109.9 35.5653 109.692 35.1348 109.485 34.6983C109.425 34.5743 109.367 34.4487 109.307 34.3216C109.232 34.1617 109.159 34.0018 109.086 33.8403C109.042 33.7462 108.999 33.6505 108.957 33.5548C108.901 33.4248 108.844 33.2933 108.787 33.1617C108.675 32.8987 108.566 32.6296 108.463 32.3546C108.37 32.1094 108.28 31.8598 108.197 31.6042C108.128 31.398 108.064 31.1887 108.003 30.9735C107.971 30.8643 107.941 30.7552 107.911 30.6446C107.91 30.6371 107.908 30.6297 107.905 30.6222C107.882 30.528 107.858 30.4324 107.834 30.3367C107.82 30.2784 107.807 30.2186 107.793 30.1588C107.771 30.0661 107.75 29.9705 107.731 29.8748C107.713 29.7881 107.696 29.7014 107.678 29.6132C107.653 29.4742 107.629 29.3337 107.605 29.1917C107.589 29.0856 107.574 28.9795 107.559 28.8719C107.544 28.7627 107.529 28.6521 107.517 28.54L107.512 28.5012C107.499 28.3891 107.489 28.2755 107.478 28.1604C107.281 26.0633 107.175 23.9602 107.16 21.8541V21.8526C107.151 20.7106 107.167 19.5702 107.212 18.4282C106.561 18.334 105.857 18.2518 105.12 18.1875C104.186 18.1059 103.198 18.0558 102.192 18.0558Z" fill="#232323"/>
<path d="M92.1724 23.5873C92.1899 23.7103 92.2372 23.8271 92.3103 23.9276C92.3834 24.0281 92.48 24.1091 92.5917 24.1635C92.7609 24.2386 92.9456 24.2723 93.1304 24.2618C93.4849 24.2415 93.8274 24.1268 94.1227 23.9296C94.2537 23.8496 94.383 23.7708 94.505 23.6917L95.21 23.246C95.6591 22.9681 96.0598 22.7221 96.441 22.526C96.8247 22.3274 97.1689 22.1608 97.5655 21.9611C97.7655 21.8668 97.9795 21.7531 98.2254 21.6473C98.4711 21.5274 98.7429 21.4259 99.0652 21.2573L99.2282 21.1721C99.3661 21.0989 99.4848 20.9942 99.5745 20.8664C99.6643 20.7386 99.7226 20.5914 99.7446 20.4368C99.7667 20.2822 99.7518 20.1246 99.7014 19.9768C99.6509 19.829 99.5662 19.6953 99.4542 19.5865C99.1469 19.2917 98.7806 19.0656 98.3795 18.923C97.9724 18.7714 97.5426 18.6902 97.1083 18.6829C96.6651 18.6746 96.2231 18.7338 95.7978 18.8587C95.3775 18.9829 94.9762 19.1642 94.6052 19.3975C93.8971 19.8337 93.3021 20.431 92.8687 21.1408C92.6614 21.4773 92.4951 21.8374 92.3734 22.2135C92.3123 22.4016 92.2643 22.5937 92.2298 22.7885C92.2114 22.8864 92.1984 22.9859 92.1885 23.0888L92.1664 23.4201C92.1625 23.4759 92.1648 23.532 92.1724 23.5873ZM93.2908 26.3462C93.2583 26.3691 93.2306 26.3982 93.2093 26.4318C93.188 26.4654 93.1736 26.5029 93.1668 26.542C93.16 26.5812 93.161 26.6214 93.1697 26.6602C93.1784 26.699 93.1947 26.7357 93.2176 26.7682C93.8324 27.6018 96.7988 28.3072 98.6801 27.7205C100.211 27.2426 99.8712 25.8992 99.5243 25.1283C99.4925 25.0572 99.4469 24.993 99.3902 24.9396C99.3335 24.8862 99.2667 24.8446 99.1938 24.8172C99.1208 24.7897 99.0432 24.777 98.9653 24.7798C98.8875 24.7826 98.8109 24.8008 98.7402 24.8334C96.6178 25.8068 94.3558 26.1359 93.4166 26.2948C93.3713 26.3022 93.3283 26.3198 93.2908 26.3462ZM106.342 24.9666C106.379 24.9804 106.414 25.0015 106.443 25.0286C106.472 25.0557 106.496 25.0884 106.513 25.1247C106.53 25.161 106.539 25.2002 106.54 25.2402C106.542 25.2801 106.536 25.32 106.522 25.3575C106.218 26.1849 105.235 27.2564 103.741 27.0326C102.401 26.8314 102.021 25.9687 102.164 25.1355L102.164 25.1351C102.191 24.9803 102.279 24.8426 102.407 24.7523C102.536 24.662 102.695 24.6264 102.85 24.6535C104.567 24.9327 105.262 25.0307 106.211 24.949C106.255 24.9451 106.3 24.9512 106.342 24.9666Z" fill="#232323"/>
<path d="M80.763 36.9702C78.751 37.2295 76.5427 36.6307 75.3682 36.1727L80.763 36.9702Z" fill="white"/>
<path d="M79.7565 37.48C78.1062 37.48 76.3897 37.0524 75.2055 36.5905C75.0947 36.5473 75.0057 36.4618 74.9579 36.3529C74.9101 36.244 74.9075 36.1206 74.9507 36.0098C74.9939 35.899 75.0793 35.8099 75.1882 35.7621C75.2971 35.7143 75.4204 35.7117 75.5312 35.755C76.8704 36.2771 78.9326 36.7545 80.706 36.5253C80.7644 36.5178 80.8237 36.5219 80.8805 36.5373C80.9373 36.5527 80.9905 36.5791 81.0371 36.6151C81.0837 36.651 81.1228 36.6959 81.1521 36.7469C81.1814 36.798 81.2003 36.8544 81.2079 36.9128C81.2154 36.9712 81.2113 37.0305 81.196 37.0873C81.1806 37.1442 81.1541 37.1974 81.1182 37.244C81.0822 37.2907 81.0374 37.3298 80.9864 37.3591C80.9353 37.3884 80.879 37.4073 80.8206 37.4149C80.4734 37.4597 80.1163 37.48 79.7565 37.48ZM107.212 18.4279C107.168 19.5699 107.151 20.7103 107.16 21.8523C106.812 21.7208 106.492 21.6057 106.19 21.5175C105.815 21.4069 105.482 21.3172 105.097 21.2081C104.902 21.1588 104.693 21.0945 104.457 21.0422C104.218 20.9779 103.96 20.9346 103.646 20.8389L103.486 20.7911C103.396 20.7642 103.313 20.7223 103.235 20.67C103.127 20.5938 103.041 20.4996 102.978 20.3935C102.89 20.2453 102.847 20.075 102.854 19.9029C102.861 19.7309 102.917 19.5644 103.015 19.4234C103.238 19.108 103.523 18.8449 103.855 18.6506C104.191 18.4458 104.559 18.3008 104.943 18.2201C105.001 18.2082 105.061 18.1962 105.121 18.1872C105.455 18.1319 105.797 18.12 106.137 18.1529C106.521 18.1902 106.897 18.2784 107.259 18.4159C107.244 18.4204 107.227 18.4234 107.212 18.4279ZM96.2958 52.2976C96.2912 52.2972 96.2867 52.296 96.2825 52.2941C89.4911 50.2408 89.9977 45.2266 90.7131 44.3347C92.9477 45.8946 96.1279 46.879 96.1279 46.879C96.1279 46.879 95.975 49.812 96.2958 52.2976ZM80.1113 32.8526C80.0127 32.8525 79.9169 32.8199 79.8387 32.7598C79.7605 32.6998 79.7042 32.6156 79.6786 32.5204C78.2653 27.2577 73.9547 27.3507 73.7701 27.3588C73.5258 27.3641 73.315 27.1749 73.3055 26.928C73.3008 26.8094 73.3432 26.6939 73.4236 26.6066C73.5039 26.5194 73.6156 26.4676 73.7341 26.4627C73.787 26.4585 78.9404 26.3144 80.5445 32.2878C80.5623 32.3543 80.5647 32.424 80.5513 32.4915C80.5379 32.559 80.5091 32.6225 80.4673 32.6772C80.4254 32.7318 80.3715 32.776 80.3098 32.8064C80.248 32.8369 80.1801 32.8527 80.1113 32.8526ZM103.3 31.7776C103.202 31.7778 103.108 31.7463 103.03 31.6879C102.952 31.6296 102.896 31.5475 102.869 31.4541C102.842 31.3607 102.846 31.261 102.88 31.1701C102.915 31.0792 102.978 31.002 103.06 30.9501C103.789 30.4893 104.181 30.1011 104.225 29.7962C104.274 29.4589 103.909 29.0125 103.345 28.3699C101.678 26.4675 102.103 25.1685 102.157 25.0268C102.178 24.9718 102.21 24.9213 102.25 24.8785C102.29 24.8356 102.339 24.8011 102.393 24.777C102.446 24.7529 102.504 24.7397 102.563 24.738C102.622 24.7363 102.681 24.7463 102.736 24.7673C102.847 24.8097 102.936 24.8944 102.985 25.0029C103.034 25.1114 103.037 25.2348 102.995 25.346C102.995 25.346 102.712 26.2872 104.019 27.7786C104.666 28.5161 105.224 29.153 105.113 29.9246C105.026 30.5255 104.54 31.0754 103.538 31.7083C103.467 31.7536 103.384 31.7777 103.3 31.7776ZM96.5289 35.2242C96.7745 35.0421 97.0623 34.952 97.3406 34.907C97.616 34.8674 97.8956 34.8668 98.1711 34.9053C98.7182 34.9769 99.2415 35.1738 99.7002 35.4807C99.9261 35.6372 100.135 35.817 100.323 36.0173C100.507 36.2219 100.676 36.443 100.806 36.6896C101.068 37.1737 101.215 37.7636 101.078 38.334C101.062 38.4006 101.022 38.4592 100.966 38.4991C100.911 38.539 100.842 38.5577 100.774 38.5516C100.706 38.5455 100.642 38.5151 100.594 38.4659C100.546 38.4167 100.518 38.352 100.514 38.2836L100.512 38.2615C100.49 37.8555 100.33 37.4628 100.095 37.114C99.9747 36.9416 99.8421 36.7751 99.6875 36.6282C99.5367 36.4772 99.372 36.3408 99.1956 36.2209C98.8559 35.9856 98.4436 35.815 98.0272 35.7147C97.6111 35.6182 97.1757 35.591 96.8176 35.7161L96.7934 35.7245C96.7287 35.7472 96.658 35.746 96.5942 35.721C96.5304 35.6961 96.4776 35.649 96.4456 35.5884C96.4135 35.5277 96.4043 35.4576 96.4196 35.3908C96.4349 35.3239 96.4737 35.2648 96.5289 35.2242Z" fill="#232323"/>
<path d="M150.051 139.403L149.674 144.108L10.6504 139.185C10.6504 139.185 36.1299 66.212 45.7222 62.1553C50.4467 60.1583 60.1377 57.9913 64.7707 56.0151C66.2284 55.3934 70.3994 52.8984 70.3994 52.8984C78.7794 66.5407 88.4142 67.5459 88.4142 67.5459C88.4142 67.5459 94.1478 66.4225 96.9684 55.0299C96.9684 55.0299 102.676 57.4454 102.818 57.4902C112.453 60.5141 127.138 67.5271 127.138 67.5271L150.051 139.403Z" fill="#6738DD"/>
<path d="M176.908 151.112L128.298 171.54C127.923 171.697 127.504 171.718 127.115 171.6L70.3358 154.318C69.9594 154.204 69.6252 153.98 69.3756 153.676C69.1259 153.372 68.9719 153 68.933 152.609L68.7603 150.873L127.484 140.661L177.18 147.951C177.311 147.97 177.431 148.035 177.517 148.134C177.604 148.234 177.652 148.362 177.652 148.494V149.996C177.652 150.235 177.581 150.468 177.449 150.667C177.317 150.865 177.129 151.02 176.908 151.112Z" fill="#D5C5FD"/>
<path d="M177.313 147.922C177.313 147.922 177.429 147.96 177.51 148.075C177.593 148.192 177.627 148.3 177.627 148.3L128.523 167.235C127.934 167.481 127.279 167.514 126.668 167.328L69.0649 150.847L122.643 136.74L177.313 147.922Z" fill="white"/>
<path d="M122.669 137.661L174.979 148.36L128.2 166.399L128.177 166.408C127.952 166.502 127.71 166.551 127.466 166.55C127.284 166.55 127.103 166.523 126.929 166.47L126.915 166.466L72.4505 150.884L122.669 137.661ZM122.643 136.74L69.0649 150.848L126.668 167.328C127.279 167.514 127.934 167.481 128.523 167.235L177.627 148.3C177.627 148.3 177.593 148.192 177.51 148.075C177.429 147.959 177.313 147.922 177.313 147.922L122.643 136.74Z" fill="#232323"/>
<path d="M136.477 162.302C137.312 162.302 137.988 162.028 137.988 161.691C137.988 161.353 137.312 161.079 136.477 161.079C135.643 161.079 134.966 161.353 134.966 161.691C134.966 162.028 135.643 162.302 136.477 162.302Z" fill="#232323"/>
<path d="M147.775 157.816C148.609 157.816 149.286 157.542 149.286 157.204C149.286 156.867 148.609 156.593 147.775 156.593C146.94 156.593 146.264 156.867 146.264 157.204C146.264 157.542 146.94 157.816 147.775 157.816Z" fill="#232323"/>
<path d="M156.854 154.37C157.688 154.37 158.365 154.096 158.365 153.758C158.365 153.42 157.688 153.146 156.854 153.146C156.019 153.146 155.343 153.42 155.343 153.758C155.343 154.096 156.019 154.37 156.854 154.37Z" fill="#232323"/>
<path d="M166.02 150.822C166.855 150.822 167.531 150.549 167.531 150.211C167.531 149.873 166.855 149.599 166.02 149.599C165.186 149.599 164.509 149.873 164.509 150.211C164.509 150.549 165.186 150.822 166.02 150.822Z" fill="#232323"/>
<path d="M139.772 168.825C139.338 168.825 138.891 168.752 138.445 168.606C137.719 168.367 137.044 167.936 136.494 167.358C136.412 167.272 136.367 167.157 136.37 167.038C136.373 166.92 136.422 166.807 136.508 166.724C136.594 166.642 136.709 166.598 136.828 166.601C136.947 166.603 137.06 166.653 137.142 166.739C137.591 167.21 138.138 167.561 138.725 167.754C139.669 168.064 140.607 167.955 141.298 167.454C141.931 166.996 142.28 166.253 142.28 165.363C142.28 163.41 140.519 161.631 138.585 161.631C138.115 161.631 137.684 161.74 137.303 161.954C137.251 161.983 137.195 162.002 137.136 162.009C137.078 162.016 137.019 162.011 136.962 161.995C136.905 161.979 136.852 161.952 136.806 161.916C136.76 161.879 136.721 161.834 136.692 161.783C136.663 161.732 136.645 161.675 136.638 161.617C136.631 161.558 136.636 161.499 136.652 161.442C136.667 161.385 136.694 161.332 136.731 161.286C136.767 161.24 136.812 161.201 136.864 161.172C137.38 160.882 137.959 160.734 138.585 160.734C141.031 160.734 143.177 162.897 143.177 165.362C143.177 166.548 142.696 167.549 141.824 168.181C141.236 168.607 140.524 168.825 139.772 168.825ZM150.984 164.234C150.551 164.234 150.103 164.162 149.657 164.015C148.931 163.776 148.256 163.345 147.706 162.768C147.626 162.682 147.583 162.567 147.587 162.45C147.59 162.332 147.64 162.22 147.725 162.139C147.81 162.058 147.924 162.013 148.042 162.015C148.16 162.017 148.272 162.065 148.354 162.149C148.803 162.62 149.351 162.97 149.937 163.163C150.881 163.474 151.819 163.365 152.51 162.864C153.143 162.405 153.492 161.663 153.492 160.772C153.492 158.82 151.731 157.041 149.797 157.041C149.327 157.041 148.896 157.15 148.515 157.364C148.464 157.394 148.407 157.413 148.348 157.421C148.289 157.429 148.229 157.425 148.172 157.409C148.115 157.393 148.061 157.367 148.014 157.33C147.967 157.294 147.928 157.248 147.899 157.196C147.87 157.144 147.851 157.087 147.844 157.028C147.838 156.969 147.843 156.909 147.859 156.852C147.875 156.795 147.903 156.742 147.94 156.695C147.978 156.649 148.024 156.611 148.076 156.582C148.592 156.292 149.171 156.144 149.797 156.144C152.243 156.144 154.389 158.307 154.389 160.772C154.389 161.958 153.908 162.959 153.036 163.59C152.448 164.016 151.737 164.234 150.984 164.234ZM159.916 160.788C159.482 160.788 159.035 160.716 158.589 160.569C157.863 160.33 157.188 159.899 156.638 159.322C156.597 159.279 156.565 159.229 156.544 159.174C156.523 159.119 156.512 159.061 156.514 159.002C156.515 158.943 156.528 158.885 156.552 158.831C156.576 158.777 156.61 158.728 156.652 158.688C156.695 158.647 156.745 158.615 156.8 158.594C156.855 158.573 156.913 158.563 156.972 158.564C157.031 158.565 157.089 158.578 157.143 158.602C157.197 158.626 157.245 158.66 157.286 158.703C157.735 159.173 158.282 159.524 158.869 159.717C159.812 160.027 160.751 159.918 161.442 159.417C162.075 158.959 162.424 158.216 162.424 157.326C162.424 155.373 160.663 153.595 158.729 153.595C158.259 153.595 157.828 153.703 157.447 153.918C157.395 153.946 157.339 153.965 157.28 153.972C157.222 153.979 157.163 153.974 157.106 153.958C157.049 153.942 156.996 153.915 156.95 153.879C156.904 153.843 156.865 153.798 156.836 153.746C156.807 153.695 156.789 153.638 156.782 153.58C156.775 153.521 156.78 153.462 156.795 153.405C156.811 153.349 156.838 153.296 156.875 153.249C156.911 153.203 156.956 153.164 157.007 153.136C157.524 152.845 158.103 152.698 158.729 152.698C161.175 152.698 163.32 154.86 163.32 157.326C163.32 158.511 162.84 159.512 161.968 160.144C161.379 160.57 160.669 160.788 159.916 160.788ZM168.785 157.341C168.351 157.341 167.904 157.269 167.457 157.122C166.732 156.884 166.057 156.453 165.506 155.875C165.466 155.833 165.434 155.783 165.413 155.728C165.391 155.673 165.381 155.614 165.383 155.555C165.384 155.496 165.397 155.438 165.421 155.385C165.444 155.331 165.479 155.282 165.521 155.241C165.564 155.201 165.614 155.169 165.669 155.148C165.724 155.126 165.782 155.116 165.841 155.117C165.9 155.119 165.958 155.132 166.012 155.156C166.066 155.179 166.114 155.214 166.155 155.256C166.604 155.727 167.151 156.078 167.737 156.271C168.681 156.581 169.619 156.472 170.311 155.971C170.944 155.513 171.293 154.77 171.293 153.88C171.293 151.927 169.531 150.148 167.598 150.148C167.128 150.148 166.697 150.257 166.315 150.471C166.212 150.529 166.089 150.544 165.975 150.512C165.86 150.48 165.763 150.403 165.705 150.3C165.647 150.196 165.632 150.074 165.664 149.959C165.696 149.845 165.773 149.747 165.876 149.689C166.393 149.399 166.972 149.251 167.598 149.251C170.044 149.251 172.189 151.414 172.189 153.879C172.189 155.065 171.709 156.066 170.837 156.697C170.248 157.123 169.537 157.341 168.785 157.341Z" fill="#232323"/>
<path d="M109.456 59.447C125.356 48.7395 157.144 88.6799 160.314 116.928C158.667 109.308 119.739 116.769 107.847 122.442C96.8617 94.2649 100.359 65.5733 109.456 59.447Z" fill="#6738DD"/>
<path d="M120.719 104.363C120.619 104.363 120.521 104.329 120.442 104.268C120.363 104.206 120.308 104.119 120.284 104.021C118.649 97.349 110.505 80.3426 110.423 80.1716C110.397 80.1184 110.382 80.0606 110.378 80.0014C110.374 79.9423 110.382 79.8829 110.401 79.8269C110.421 79.7709 110.451 79.7192 110.49 79.675C110.53 79.6307 110.578 79.5947 110.631 79.569C110.685 79.5433 110.742 79.5285 110.802 79.5254C110.861 79.5223 110.92 79.5309 110.976 79.5509C111.032 79.5708 111.083 79.6016 111.127 79.6415C111.171 79.6814 111.206 79.7296 111.231 79.7833C111.568 80.4849 119.498 97.0454 121.155 103.808C121.171 103.874 121.172 103.943 121.157 104.009C121.143 104.076 121.114 104.138 121.072 104.192C121.03 104.245 120.976 104.289 120.915 104.318C120.854 104.348 120.787 104.363 120.719 104.363Z" fill="white"/>
<path d="M51.368 120.383C36.4825 108.005 3.56791 96.9789 1.38886 103.323C-1.27578 111.08 51.368 120.383 51.368 120.383Z" fill="#1F1F1F"/>
<path d="M64.3057 59.3386C51.3585 45.1995 11.095 76.569 1.39209 103.286C4.77959 96.2644 40.8733 112.65 51.1032 120.954C68.387 96.1403 71.7134 67.4284 64.3057 59.3386Z" fill="#F94F46"/>
<path d="M50.7472 121.044C50.6817 121.044 50.6174 121.027 50.5607 120.994C50.504 120.961 50.4569 120.914 50.4242 120.858C50.3914 120.801 50.3741 120.736 50.374 120.671C50.3739 120.605 50.3911 120.541 50.4237 120.484C57.9253 107.443 62.4597 95.7194 63.5365 86.5804C63.5422 86.5316 63.5575 86.4845 63.5814 86.4417C63.6054 86.3988 63.6375 86.3611 63.676 86.3307C63.7145 86.3004 63.7587 86.2779 63.8059 86.2645C63.8531 86.2512 63.9025 86.2474 63.9512 86.2532C63.9999 86.2589 64.047 86.2742 64.0898 86.2981C64.1326 86.3221 64.1702 86.3542 64.2006 86.3927C64.231 86.4313 64.2535 86.4754 64.2668 86.5226C64.2801 86.5698 64.284 86.6192 64.2782 86.6679C63.1742 96.0386 58.7306 107.542 51.0711 120.857C51.0384 120.914 50.9912 120.961 50.9343 120.994C50.8774 121.027 50.8129 121.044 50.7472 121.044Z" fill="#FCB6B1"/>
<path d="M153.812 139.641C146.267 145.147 134.64 141.165 130.222 137.279C122.624 130.721 121.776 114.101 115.854 84.157C113.133 70.3935 107.362 61.6348 106.11 59.2102C104.095 55.3061 102.503 52.2977 105.794 51.8777C105.794 51.8777 103.591 47.0989 108.128 46.8877C108.128 46.8877 106.144 42.9827 110.204 42.4655C110.416 40.7466 109.529 38.1284 108.785 36.7101C106.548 32.4561 107.383 30.2652 111.784 33.5716C118.705 38.7702 131.811 55.5278 138.125 65.9713C162.007 105.467 167.836 129.408 153.812 139.641Z" fill="white"/>
<path d="M144.818 142.799C143.351 142.799 141.97 142.641 140.765 142.423C136.66 141.684 132.405 139.797 129.925 137.616C124.056 132.55 122.153 121.71 119.001 103.752C117.994 98.0165 116.853 91.5162 115.415 84.2439C113.076 72.4164 108.439 64.2498 106.459 60.7626C106.138 60.1982 105.885 59.7523 105.712 59.4159L105.647 59.2903C104.129 56.3505 102.93 54.0283 103.685 52.5905C103.959 52.0679 104.451 51.7203 105.18 51.536C104.894 50.701 104.494 49.0535 105.234 47.8355C105.675 47.1092 106.431 46.6613 107.486 46.4999C107.24 45.7883 106.969 44.5641 107.508 43.5448C107.913 42.7803 108.678 42.2876 109.784 42.0776C109.839 40.5569 109.135 38.343 108.388 36.9179C107.61 35.4386 106.477 32.8094 107.63 31.8266C108.432 31.1437 109.92 31.6105 112.053 33.2125C115.29 35.6446 120.077 40.7268 125.531 47.5234C130.519 53.7384 135.37 60.548 138.509 65.7386C150.733 85.9552 157.965 101.638 160.62 113.683C161.977 119.837 162.129 125.15 161.071 129.473C159.998 133.856 157.645 137.399 154.076 140.003C151.142 142.145 147.803 142.799 144.818 142.799ZM108.543 32.4152C108.392 32.4152 108.282 32.4498 108.212 32.5098C107.942 32.7396 107.798 33.8694 109.182 36.5012C109.901 37.8723 110.885 40.6063 110.648 42.5205C110.636 42.6194 110.591 42.7114 110.521 42.782C110.451 42.8526 110.359 42.8978 110.26 42.9103C109.264 43.0374 108.606 43.3913 108.302 43.9625C107.721 45.0565 108.52 46.669 108.528 46.6853C108.562 46.7521 108.578 46.8262 108.576 46.901C108.573 46.9757 108.552 47.0487 108.515 47.1133C108.477 47.1779 108.424 47.2321 108.36 47.2709C108.296 47.3097 108.224 47.332 108.149 47.3356C107.083 47.3852 106.36 47.7096 106.001 48.2996C105.237 49.5533 106.191 51.6691 106.201 51.6904C106.23 51.7543 106.244 51.8243 106.241 51.8945C106.238 51.9648 106.219 52.0335 106.185 52.095C106.151 52.1565 106.103 52.2091 106.045 52.2486C105.987 52.2882 105.92 52.3135 105.85 52.3225C105.12 52.4158 104.671 52.6398 104.478 53.0075C103.941 54.032 105.156 56.3862 106.443 58.879L106.508 59.0045C106.673 59.3251 106.923 59.764 107.238 60.3197C109.24 63.8449 113.927 72.1 116.294 84.0701C117.734 91.3518 118.876 97.857 119.883 103.597C123.002 121.359 124.884 132.08 130.514 136.939C132.883 139.023 136.968 140.828 140.923 141.541C147.237 142.678 151.273 140.939 153.548 139.279C160.386 134.289 162.413 125.98 159.745 113.876C157.111 101.929 149.914 86.3348 137.741 66.2034C130.026 53.4441 117.085 38.1149 111.514 33.9303C110.014 32.8028 109.048 32.4152 108.543 32.4152Z" fill="#232323"/>
<path d="M111.267 56.3755C111.192 56.3756 111.117 56.3564 111.05 56.3197C110.984 56.2829 110.928 56.2299 110.887 56.1655C109.529 53.9999 106.985 52.3946 105.461 52.2541C105.342 52.2431 105.233 52.1856 105.157 52.0941C105.081 52.0027 105.045 51.8848 105.056 51.7663C105.067 51.6479 105.124 51.5387 105.215 51.4626C105.307 51.3866 105.425 51.35 105.543 51.361C107.765 51.5659 110.441 53.767 111.647 55.6886C111.689 55.7565 111.713 55.8345 111.715 55.9146C111.717 55.9946 111.698 56.0738 111.66 56.1439C111.621 56.214 111.564 56.2725 111.495 56.3132C111.426 56.3539 111.348 56.3754 111.267 56.3755ZM113.643 51.6914C113.464 51.6914 113.294 51.5823 113.225 51.4043C112.96 50.7179 112.019 49.6514 110.882 48.7509C109.722 47.8312 108.603 47.2775 108.029 47.3401C107.911 47.3526 107.793 47.3179 107.7 47.2435C107.608 47.1691 107.548 47.0611 107.535 46.943C107.522 46.8248 107.557 46.7063 107.631 46.6135C107.706 46.5208 107.814 46.4615 107.932 46.4485C109.111 46.3209 110.778 47.524 111.439 48.0479C112.45 48.8492 113.67 50.0671 114.061 51.0814C114.088 51.1494 114.097 51.2227 114.088 51.295C114.08 51.3673 114.054 51.4365 114.013 51.4965C113.972 51.5566 113.917 51.6057 113.852 51.6397C113.788 51.6736 113.716 51.6914 113.643 51.6914ZM114.959 45.4626C114.897 45.4627 114.836 45.45 114.779 45.4254C114.723 45.4007 114.672 45.3646 114.63 45.3193C113.477 44.077 111.097 43.0299 110.297 42.9576C110.178 42.9468 110.069 42.8895 109.993 42.7981C109.917 42.7068 109.88 42.5889 109.891 42.4705C109.913 42.224 110.13 42.0448 110.378 42.0642C111.432 42.1597 114.015 43.3381 115.287 44.709C115.327 44.7521 115.358 44.8027 115.379 44.8579C115.399 44.9131 115.409 44.9718 115.407 45.0306C115.404 45.0895 115.391 45.1473 115.366 45.2008C115.342 45.2544 115.307 45.3025 115.264 45.3426C115.181 45.4199 115.072 45.4628 114.959 45.4626Z" fill="#232323"/>
<path d="M84.7373 112.751L89.1003 110.273L107.985 143.542L103.622 146.021L84.7373 112.751Z" fill="white"/>
<path d="M88.7634 111.496L106.762 143.205L103.958 144.798L85.9595 113.088L88.7634 111.496ZM89.1003 110.273L84.7373 112.751L103.622 146.021L107.985 143.542L89.1003 110.273ZM107.986 143.542L107.875 146.171L107.786 148.274L105.935 147.273L103.622 146.021L107.986 143.542Z" fill="#232323"/>
<path d="M89.7891 111.485L85.4261 113.964L84.1156 111.655C84.0491 111.537 84.0063 111.408 83.9897 111.275C83.973 111.141 83.9829 111.005 84.0187 110.875C84.0545 110.746 84.1155 110.624 84.1982 110.518C84.2809 110.411 84.3838 110.323 84.5009 110.256L87.0805 108.791C87.1976 108.724 87.3267 108.681 87.4603 108.665C87.5939 108.648 87.7295 108.658 87.8594 108.694C87.9892 108.729 88.1107 108.79 88.2169 108.873C88.3232 108.956 88.4121 109.059 88.4786 109.176L89.7891 111.485ZM51.368 120.383C36.4825 108.005 3.56791 96.9789 1.38886 103.323C-1.27578 111.08 51.368 120.383 51.368 120.383Z" fill="#232323"/>
<path d="M106.292 132.51C107.883 135.239 107.246 138.517 104.637 141.661C99.5492 147.794 84.588 152.512 73.2317 155.199C51.0176 159.467 23.3589 164.382 7.31088 150.809C-3.53625 140.661 1.03476 120.678 4.50086 110.114C5.45382 106.437 7.54979 102.059 8.44881 100.257C21.1479 100.593 42.7364 112.532 51.0176 120.727C51.0264 120.736 51.0338 120.744 51.0426 120.752C51.0514 120.761 51.0607 120.77 51.0695 120.778L51.0741 120.783C51.0746 120.785 51.076 120.784 51.0765 120.786L49.5913 123.268C49.5913 123.268 63.7345 126.123 72.8806 124.838C76.1807 124.325 79.5384 123.598 81.593 121.129C83.8508 118.415 84.6478 113.942 84.7137 113.409C84.8086 112.642 85.2764 112.768 85.2764 112.768L88.2974 118.131C88.2974 118.131 88.7063 122.442 90.1581 123.918C92.5295 123.492 94.9983 120.142 97.1597 118.761C98.5955 117.844 101.937 118.525 102.38 122.458C102.38 122.458 104.856 123.877 104.496 127.747C105.333 128.425 106.348 129.674 106.292 132.51Z" fill="white"/>
<path d="M37.4497 160.144C24.1301 160.144 14.1739 157.201 7.02149 151.151C7.01573 151.146 7.01015 151.141 7.00475 151.136C-3.93202 140.905 0.469257 120.97 4.07072 109.988C4.99499 106.43 6.95873 102.24 8.04781 100.057C8.08563 99.9802 8.14467 99.9161 8.21789 99.8722C8.29111 99.8282 8.37543 99.8062 8.46079 99.8089C14.3193 99.9636 22.5341 102.569 31.5921 107.144C39.5753 111.177 47.1371 116.258 51.329 120.405C51.3377 120.413 51.3459 120.421 51.3541 120.43L51.3704 120.446C51.3789 120.454 51.3874 120.462 51.3957 120.471C51.4655 120.541 51.5097 120.633 51.5216 120.732C51.5334 120.831 51.5122 120.931 51.4611 121.016L50.3054 122.948C53.1353 123.473 64.9358 125.501 72.8184 124.394C75.9971 123.899 79.2722 123.217 81.2486 120.841C83.5634 118.059 84.2635 113.399 84.269 113.354C84.3215 112.93 84.4787 112.628 84.7365 112.454C84.9684 112.298 85.2277 112.29 85.3931 112.334C85.5092 112.366 85.6079 112.442 85.6671 112.547L88.6881 117.911C88.7189 117.965 88.7378 118.026 88.7438 118.088C88.8484 119.187 89.3291 122.17 90.3191 123.422C91.6094 123.072 92.9915 121.788 94.3308 120.544C95.2299 119.708 96.0791 118.919 96.919 118.383C97.7926 117.825 99.1305 117.809 100.247 118.342C101.062 118.731 102.454 119.744 102.799 122.198C103.408 122.636 105.186 124.213 104.962 127.554C106.179 128.639 106.763 130.226 106.743 132.394C108.346 135.256 107.723 138.644 104.982 141.948C99.4134 148.66 82.764 153.405 73.335 155.636C73.3288 155.637 73.3225 155.639 73.3163 155.64C61.1524 157.976 49.2951 160.079 37.9617 160.143C37.7908 160.144 37.6193 160.144 37.4497 160.144ZM7.60868 150.474C14.6815 156.451 24.611 159.327 37.9564 159.246C49.2106 159.183 61.0197 157.089 73.1379 154.761C77.8601 153.643 84.8096 151.79 91.1207 149.305C97.6169 146.747 102.048 144.079 104.291 141.375C106.81 138.34 107.383 135.272 105.905 132.736C105.864 132.664 105.843 132.583 105.844 132.501C105.898 129.779 104.94 128.683 104.214 128.095C104.157 128.049 104.112 127.989 104.083 127.921C104.055 127.853 104.043 127.779 104.05 127.705C104.377 124.193 102.246 122.899 102.155 122.845C102.094 122.81 102.043 122.761 102.005 122.702C101.966 122.643 101.942 122.577 101.934 122.507C101.753 120.895 101.017 119.703 99.8608 119.151C98.886 118.686 97.9024 118.819 97.4008 119.139C96.6293 119.632 95.8088 120.394 94.9403 121.201C93.423 122.611 91.854 124.068 90.2372 124.359C90.1654 124.372 90.0916 124.367 90.0221 124.345C89.9526 124.323 89.8895 124.284 89.8384 124.232C88.4006 122.77 87.933 118.944 87.8606 118.27L85.1574 113.47C85.029 114.495 84.1141 118.799 81.9371 121.415C79.7609 124.031 76.3036 124.759 72.9492 125.281C63.8261 126.562 49.6445 123.736 49.5023 123.707C49.432 123.693 49.366 123.662 49.3101 123.617C49.2541 123.572 49.2098 123.515 49.1808 123.449C49.1518 123.383 49.139 123.312 49.1435 123.24C49.1479 123.168 49.1695 123.099 49.2065 123.037L50.5105 120.858C46.34 116.803 38.9724 111.877 31.1876 107.945C22.3929 103.502 14.4321 100.941 8.72182 100.715C7.62721 102.929 5.80212 106.879 4.93463 110.227C4.93217 110.236 4.92948 110.245 4.92656 110.254C1.39203 121.027 -2.95919 140.576 7.60868 150.474Z" fill="#232323"/>
<path d="M50.0951 123.883C50.0642 123.883 50.0327 123.88 50.0012 123.873C44.5881 122.718 38.3296 122.331 32.8306 122.812C32.5849 122.836 32.3666 122.652 32.345 122.405C32.3346 122.286 32.3717 122.169 32.4481 122.078C32.5245 121.986 32.634 121.929 32.7524 121.919C38.336 121.43 44.6915 121.823 50.1882 122.996C50.2967 123.019 50.3927 123.081 50.4579 123.171C50.5231 123.26 50.5528 123.371 50.5412 123.481C50.5297 123.591 50.4777 123.694 50.3953 123.768C50.3129 123.842 50.206 123.883 50.0951 123.883ZM97.9941 127.929C97.8994 127.929 97.807 127.899 97.7303 127.843C97.6536 127.788 97.5965 127.709 97.5672 127.619C97.5379 127.529 97.5379 127.432 97.5672 127.342C97.5965 127.252 97.6536 127.173 97.7303 127.118C98.8615 126.296 101.519 124.142 101.769 121.889C101.775 121.829 101.792 121.771 101.82 121.719C101.848 121.666 101.886 121.619 101.932 121.582C101.978 121.544 102.031 121.516 102.089 121.499C102.146 121.482 102.206 121.476 102.265 121.483C102.324 121.49 102.382 121.508 102.434 121.537C102.486 121.566 102.532 121.605 102.569 121.652C102.605 121.699 102.632 121.753 102.648 121.811C102.664 121.868 102.668 121.928 102.66 121.988C102.54 123.067 101.809 125.263 98.2568 127.843C98.1805 127.899 98.0885 127.929 97.9941 127.929ZM100.279 132.902C100.176 132.902 100.076 132.867 99.9962 132.802C99.9164 132.737 99.8612 132.646 99.8401 132.546C99.819 132.445 99.8332 132.34 99.8803 132.248C99.9274 132.157 100.005 132.084 100.099 132.043C101.215 131.554 103.65 129.754 104.048 127.312C104.067 127.194 104.132 127.089 104.229 127.02C104.325 126.95 104.445 126.922 104.563 126.941C104.68 126.96 104.785 127.025 104.854 127.122C104.924 127.218 104.952 127.339 104.933 127.456C104.492 130.162 101.954 132.209 100.458 132.864C100.402 132.889 100.341 132.902 100.279 132.902ZM102.538 137.668C102.436 137.668 102.337 137.634 102.258 137.57C102.178 137.506 102.123 137.418 102.1 137.318C102.078 137.219 102.09 137.115 102.134 137.023C102.179 136.932 102.253 136.858 102.345 136.814C104.061 135.998 105.754 133.716 105.829 132.119C105.84 131.872 106.05 131.686 106.298 131.692C106.357 131.695 106.414 131.709 106.468 131.735C106.521 131.76 106.569 131.795 106.608 131.838C106.648 131.882 106.679 131.933 106.699 131.988C106.718 132.044 106.727 132.103 106.725 132.161C106.634 134.103 104.767 136.655 102.73 137.624C102.67 137.653 102.604 137.668 102.538 137.668Z" fill="#232323"/>
<path d="M64.3057 59.3386C51.3585 45.1995 11.095 76.569 1.39209 103.286C4.77959 96.2644 40.8733 112.65 51.1032 120.954C68.387 96.1403 71.7134 67.4284 64.3057 59.3386Z" fill="#6738DD"/>
<path d="M50.7471 121.119C50.6685 121.119 50.5913 121.098 50.5233 121.059C50.4552 121.02 50.3987 120.963 50.3594 120.895C50.3201 120.827 50.2994 120.75 50.2993 120.671C50.2993 120.592 50.3199 120.515 50.3591 120.447C57.8558 107.415 62.3869 95.7008 63.4624 86.5716C63.4765 86.4535 63.5368 86.3459 63.6301 86.2722C63.7234 86.1986 63.842 86.165 63.9601 86.1787C64.0185 86.1856 64.0751 86.204 64.1264 86.2327C64.1778 86.2615 64.223 86.3001 64.2595 86.3463C64.296 86.3926 64.323 86.4455 64.339 86.5022C64.355 86.5589 64.3596 86.6182 64.3527 86.6766C63.2475 96.0576 58.8008 107.57 51.1362 120.894C51.0969 120.963 51.0402 121.02 50.9719 121.059C50.9036 121.099 50.826 121.119 50.7471 121.119Z" fill="white"/>
<path d="M79.4787 80.1055C77.203 80.1055 74.9054 77.7957 72.4566 73.0466C69.7117 67.7237 66.3085 59.2935 65.0055 55.5012C64.9851 55.4452 64.9762 55.3858 64.979 55.3263C64.9819 55.2668 64.9966 55.2086 65.0223 55.1548C65.0479 55.1011 65.084 55.053 65.1284 55.0134C65.1728 54.9738 65.2247 54.9434 65.281 54.924C65.3373 54.9047 65.3968 54.8967 65.4562 54.9006C65.5156 54.9045 65.5736 54.9202 65.6269 54.9468C65.6801 54.9734 65.7275 55.0103 65.7664 55.0554C65.8052 55.1005 65.8347 55.1529 65.8531 55.2096C67.1474 58.9767 70.5275 67.3499 73.2531 72.6356C75.5025 76.9975 77.5971 79.2087 79.4797 79.2087L79.5196 79.2083C82.361 79.1613 84.7467 74.132 86.8517 69.6948C87.204 68.952 87.5369 68.2503 87.8751 67.562C87.9297 67.4589 88.0223 67.3812 88.1333 67.3452C88.2442 67.3093 88.3648 67.318 88.4695 67.3695C88.5741 67.421 88.6546 67.5112 88.6939 67.6211C88.7331 67.7309 88.728 67.8518 88.6797 67.958C88.3442 68.6405 88.0126 69.3394 87.6616 70.0793C85.3365 74.9805 82.9324 80.0485 79.5346 80.105C79.516 80.1053 79.4972 80.1055 79.4787 80.1055Z" fill="white"/>
<path d="M98.2366 78.5752C95.7635 78.5752 92.3981 75.0523 88.2166 68.0807C88.1856 68.0302 88.165 67.9741 88.1558 67.9155C88.1466 67.857 88.1491 67.7972 88.1632 67.7396C88.1773 67.6821 88.2026 67.6279 88.2378 67.5801C88.2729 67.5324 88.3171 67.4922 88.3679 67.4617C88.4187 67.4312 88.475 67.411 88.5337 67.4024C88.5923 67.3939 88.652 67.397 88.7094 67.4116C88.7668 67.4263 88.8207 67.4521 88.8681 67.4878C88.9154 67.5234 88.9552 67.568 88.9852 67.6191C94.6605 77.0818 97.4752 77.9476 98.6487 77.6238C100.008 77.247 100.853 74.7577 100.853 71.127C100.853 68.3646 100.315 59.7599 99.0464 55.8365C99.0283 55.7805 99.0214 55.7214 99.0261 55.6627C99.0308 55.604 99.047 55.5468 99.0738 55.4943C99.1006 55.4419 99.1374 55.3953 99.1822 55.3571C99.227 55.3189 99.2789 55.2899 99.3349 55.2718C99.3909 55.2536 99.45 55.2467 99.5086 55.2514C99.5673 55.2561 99.6245 55.2723 99.6769 55.2991C99.7293 55.3259 99.776 55.3628 99.8142 55.4076C99.8523 55.4525 99.8813 55.5044 99.8994 55.5604C101.199 59.5784 101.749 68.3244 101.749 71.1271C101.749 72.9606 101.539 74.5762 101.141 75.7998C100.652 77.305 99.8937 78.2096 98.888 78.4882C98.6758 78.5465 98.4567 78.5757 98.2366 78.5752Z" fill="white"/>
<path d="M93.4807 89.5346C92.4052 89.5346 91.5398 89.2707 90.8555 88.7377C89.1029 87.3724 88.8043 84.3798 88.4885 81.2113C87.8488 74.7946 88.0018 67.7604 88.0035 67.69C88.0092 67.4426 88.217 67.2438 88.4619 67.252C88.5807 67.2548 88.6936 67.3046 88.7757 67.3906C88.8578 67.4766 88.9024 67.5917 88.8997 67.7106C88.898 67.7804 88.7465 74.7615 89.3806 81.1222C89.7286 84.613 90.0576 86.9796 91.4064 88.03C92.1251 88.5894 93.1536 88.76 94.5503 88.5516C94.6668 88.5364 94.7845 88.5676 94.8782 88.6383C94.972 88.7091 95.0342 88.8138 95.0516 88.93C95.0689 89.0462 95.04 89.1645 94.9711 89.2596C94.9021 89.3547 94.7986 89.4189 94.6829 89.4384C94.2557 89.5026 93.8553 89.5346 93.4807 89.5346Z" fill="white"/>
<path d="M90.7646 75.6107C91.1472 75.6107 91.4574 75.3004 91.4574 74.9176C91.4574 74.5348 91.1472 74.2245 90.7646 74.2245C90.382 74.2245 90.0718 74.5348 90.0718 74.9176C90.0718 75.3004 90.382 75.6107 90.7646 75.6107Z" fill="white"/>
<path d="M91.4819 83.4876C91.8645 83.4876 92.1747 83.1773 92.1747 82.7945C92.1747 82.4117 91.8645 82.1014 91.4819 82.1014C91.0993 82.1014 90.7891 82.4117 90.7891 82.7945C90.7891 83.1773 91.0993 83.4876 91.4819 83.4876Z" fill="white"/>
</g>
<defs>
<clipPath id="clip0_1163_3130">
<rect width="177.582" height="171.517" fill="white" transform="translate(0.0703125 0.158386)"/>
</clipPath>
</defs>
</svg>
