<svg width="24" height="24" viewBox="0 0 24 24" fill="none" xmlns="http://www.w3.org/2000/svg">
<g id="icons8-joy-con (1)">
<path id="Vector" opacity="0.35" d="M21 19H3C1.343 19 0 17.657 0 16V8C0 6.343 1.343 5 3 5H21C22.657 5 24 6.343 24 8V16C24 17.657 22.657 19 21 19Z" fill="#5627CD"/>
<path id="Vector_2" d="M23 9H1C0.448 9 0 8.552 0 8C0 6.343 1.343 5 3 5H21C22.657 5 24 6.343 24 8C24 8.552 23.552 9 23 9Z" fill="#5627CD"/>
<path id="Vector_3" d="M7 16C8.10457 16 9 15.1046 9 14C9 12.8954 8.10457 12 7 12C5.89543 12 5 12.8954 5 14C5 15.1046 5.89543 16 7 16Z" fill="#5627CD"/>
<path id="Vector_4" d="M16 13C16.5523 13 17 12.5523 17 12C17 11.4477 16.5523 11 16 11C15.4477 11 15 11.4477 15 12C15 12.5523 15.4477 13 16 13Z" fill="#5627CD"/>
<path id="Vector_5" d="M16 17C16.5523 17 17 16.5523 17 16C17 15.4477 16.5523 15 16 15C15.4477 15 15 15.4477 15 16C15 16.5523 15.4477 17 16 17Z" fill="#5627CD"/>
<path id="Vector_6" d="M14 15C14.5523 15 15 14.5523 15 14C15 13.4477 14.5523 13 14 13C13.4477 13 13 13.4477 13 14C13 14.5523 13.4477 15 14 15Z" fill="#5627CD"/>
<path id="Vector_7" d="M18 15C18.5523 15 19 14.5523 19 14C19 13.4477 18.5523 13 18 13C17.4477 13 17 13.4477 17 14C17 14.5523 17.4477 15 18 15Z" fill="#5627CD"/>
</g>
</svg>
