<svg width="49" height="48" viewBox="0 0 49 48" fill="none" xmlns="http://www.w3.org/2000/svg">
<g clip-path="url(#clip0_1524_5177)">
<rect x="0.299805" width="48" height="48" rx="24" fill="#7C50E9"/>
<path fill-rule="evenodd" clip-rule="evenodd" d="M24.3197 0C11.0373 0 0.299805 10.8167 0.299805 24.1983C0.299805 34.895 7.17969 43.9495 16.7239 47.1542C17.9172 47.3951 18.3543 46.6335 18.3543 45.9929C18.3543 45.4319 18.3149 43.509 18.3149 41.5055C11.6332 42.948 10.2418 38.6209 10.2418 38.6209C9.16799 35.8164 7.57696 35.0956 7.57696 35.0956C5.39002 33.6132 7.73626 33.6132 7.73626 33.6132C10.1621 33.7735 11.4351 36.0971 11.4351 36.0971C13.5822 39.7827 17.042 38.7413 18.4339 38.1002C18.6326 36.5377 19.2693 35.456 19.9453 34.8552C14.6161 34.2942 9.00918 32.211 9.00918 22.9161C9.00918 20.2719 9.96301 18.1086 11.4744 16.4261C11.2359 15.8253 10.4006 13.3409 11.7133 10.0157C11.7133 10.0157 13.7415 9.3746 18.3145 12.4996C20.2723 11.9699 22.2914 11.7005 24.3197 11.6982C26.3478 11.6982 28.4152 11.979 30.3244 12.4996C34.8979 9.3746 36.926 10.0157 36.926 10.0157C38.2387 13.3409 37.4029 15.8253 37.1644 16.4261C38.7156 18.1086 39.6301 20.2719 39.6301 22.9161C39.6301 32.211 34.0232 34.2539 28.6542 34.8552C29.5294 35.6163 30.2846 37.0583 30.2846 39.3421C30.2846 42.5871 30.2452 45.1915 30.2452 45.9924C30.2452 46.6335 30.6828 47.3951 31.8756 47.1547C41.4198 43.9491 48.2997 34.895 48.2997 24.1983C48.339 10.8167 37.5622 0 24.3197 0Z" fill="white"/>
</g>
<defs>
<clipPath id="clip0_1524_5177">
<rect x="0.299805" width="48" height="48" rx="24" fill="white"/>
</clipPath>
</defs>
</svg>
