<svg width="48" height="48" viewBox="0 0 48 48" fill="none" xmlns="http://www.w3.org/2000/svg">
<circle cx="24" cy="18" r="8" fill="white"/>
<circle cx="34" cy="18" r="6" fill="white"/>
<circle cx="14" cy="18" r="6" fill="white"/>
<path fill-rule="evenodd" clip-rule="evenodd" d="M35.1369 36H39.79C40.9733 36 41.8806 34.9803 41.5931 33.8325C40.8567 30.8917 38.8959 26 34 26C32.2279 26 30.8402 26.6409 29.7561 27.5983C32.7716 29.5547 34.3307 32.9804 35.1369 36Z" fill="white"/>
<path fill-rule="evenodd" clip-rule="evenodd" d="M18.244 27.5983C17.1598 26.6409 15.7722 26 14 26C9.10419 26 7.14335 30.8916 6.40688 33.8325C6.11944 34.9803 7.02673 36 8.20998 36H12.8631C13.6693 32.9804 15.2285 29.5547 18.244 27.5983Z" fill="white"/>
<path d="M24 28C31.4173 28 33.333 34.602 33.8277 38.0122C33.9863 39.1053 33.1046 40 32 40H16C14.8954 40 14.0137 39.1053 14.1723 38.0122C14.667 34.602 16.5827 28 24 28Z" fill="white"/>
</svg>
