<svg width="24" height="24" viewBox="0 0 24 24" fill="none" xmlns="http://www.w3.org/2000/svg">
<g id="icons8-ai">
<path id="Vector" opacity="0.35" d="M12 4.5C12 3.119 10.881 2 9.5 2C8.275 2 7.26 2.883 7.046 4.046C5.33 4.271 4 5.723 4 7.5C4 7.665 4.026 7.823 4.049 7.982C2.812 8.893 2 10.347 2 12C2 13.653 2.812 15.107 4.049 16.018C4.026 16.177 4 16.335 4 16.5C4 18.277 5.33 19.729 7.046 19.954C7.26 21.117 8.275 22 9.5 22C10.881 22 12 20.881 12 19.5C12 19.352 12 4.654 12 4.5Z" fill="#5627CD"/>
<path id="Vector_2" opacity="0.35" d="M12 4.5C12 3.119 13.119 2 14.5 2C15.725 2 16.74 2.883 16.954 4.046C18.67 4.271 20 5.723 20 7.5C20 7.665 19.974 7.823 19.951 7.982C21.188 8.893 22 10.347 22 12C22 13.653 21.188 15.107 19.951 16.018C19.974 16.177 20 16.335 20 16.5C20 18.277 18.67 19.729 16.954 19.954C16.74 21.117 15.725 22 14.5 22C13.119 22 12 20.881 12 19.5C12 19.352 12 4.654 12 4.5Z" fill="#5627CD"/>
<path id="Vector_3" d="M10 8C10 6.895 9.105 6 8 6C6.895 6 6 6.895 6 8C6 8.738 6.405 9.376 7 9.723V10H2.43C2.15 10.61 2 11.29 2 12H8C8.55 12 9 11.55 9 11V9.723C9.595 9.376 10 8.738 10 8Z" fill="#5627CD"/>
<path id="Vector_4" d="M17 14.277C17.595 14.623 18 15.261 18 16C18 17.105 17.105 18 16 18C14.895 18 14 17.105 14 16C14 15.262 14.405 14.624 15 14.277V13C15 12.45 15.45 12 16 12H22C22 10.868 21.613 9.835 20.976 9H17.723C17.377 9.595 16.739 10 16 10C14.895 10 14 9.105 14 8C14 6.895 14.895 6 16 6C16.738 6 17.376 6.405 17.723 7H19.954C19.731 5.458 18.506 4.249 16.955 4.046C16.74 2.883 15.725 2 14.5 2C13.119 2 12 3.119 12 4.5C12 4.576 12 19.241 12 19.5C12 20.881 13.119 22 14.5 22C15.725 22 16.74 21.117 16.954 19.954C18.67 19.729 20 18.277 20 16.5C20 16.335 19.974 16.177 19.951 16.018C20.653 15.501 21.211 14.805 21.568 14H17V14.277Z" fill="#5627CD"/>
<path id="Vector_5" d="M8 14C7.262 14 6.624 14.405 6.277 15H3.03C3.31 15.39 3.66 15.73 4.05 16.02C4.03 16.18 4 16.33 4 16.5C4 16.67 4.01 16.84 4.04 17H6.277C6.624 17.595 7.262 18 8 18C9.105 18 10 17.105 10 16C10 14.895 9.105 14 8 14Z" fill="#5627CD"/>
</g>
</svg>
