<svg width="24" height="24" viewBox="0 0 24 24" fill="none" xmlns="http://www.w3.org/2000/svg">
<g id="icons8-web">
<path id="Vector" opacity="0.35" d="M21 6C21 4.895 20.105 4 19 4H5C3.895 4 3 4.895 3 6V18C3 19.657 4.343 21 6 21H18C19.657 21 21 19.657 21 18V6Z" fill="#6738DD"/>
<path id="Vector_2" d="M18 3H6C4.343 3 3 4.343 3 6V9H21V6C21 4.343 19.657 3 18 3ZM6 7C5.448 7 5 6.552 5 6C5 5.448 5.448 5 6 5C6.552 5 7 5.448 7 6C7 6.552 6.552 7 6 7ZM9 7C8.448 7 8 6.552 8 6C8 5.448 8.448 5 9 5C9.552 5 10 5.448 10 6C10 6.552 9.552 7 9 7ZM18 7C17.814 7 13.186 7 13 7C12.448 7 12 6.552 12 6C12 5.448 12.448 5 13 5C13.186 5 17.814 5 18 5C18.552 5 19 5.448 19 6C19 6.552 18.552 7 18 7Z" fill="#5627CD"/>
<path id="Vector_3" d="M18 11C17.814 11 14.186 11 14 11C13.448 11 13 11.448 13 12C13 12.552 13.448 13 14 13C14.186 13 17.814 13 18 13C18.552 13 19 12.552 19 12C19 11.448 18.552 11 18 11Z" fill="#5627CD"/>
<path id="Vector_4" d="M18 15C17.814 15 14.186 15 14 15C13.448 15 13 15.448 13 16C13 16.552 13.448 17 14 17C14.186 17 17.814 17 18 17C18.552 17 19 16.552 19 16C19 15.448 18.552 15 18 15Z" fill="#5627CD"/>
<path id="Vector_5" d="M10 17H6C5.448 17 5 16.552 5 16V12C5 11.448 5.448 11 6 11H10C10.552 11 11 11.448 11 12V16C11 16.552 10.552 17 10 17Z" fill="#5627CD"/>
</g>
</svg>
