<svg width="24" height="24" viewBox="0 0 24 24" fill="none" xmlns="http://www.w3.org/2000/svg">
<g id="icons8-ios">
<path id="Vector" opacity="0.35" d="M18 21H6C4.343 21 3 19.657 3 18V6C3 4.343 4.343 3 6 3H18C19.657 3 21 4.343 21 6V18C21 19.657 19.657 21 18 21Z" fill="#5627CD"/>
<path id="Vector_2" d="M13.706 11.9779C13.706 12.6009 13.53 16.1529 10.678 16.1529C7.826 16.1529 7.65 12.6009 7.65 11.9779C7.65 11.3539 7.799 7.84692 10.678 7.84692C13.557 7.84692 13.706 11.3539 13.706 11.9779ZM11.88 11.9779C11.88 11.6369 11.842 9.57292 10.677 9.57292C9.512 9.57292 9.474 11.6369 9.474 11.9779C9.474 12.3189 9.539 14.4049 10.677 14.4049C11.815 14.4049 11.88 12.3189 11.88 11.9779Z" fill="#5627CD"/>
<path id="Vector_3" d="M18.633 9.26295C18.412 9.57495 17.999 9.72095 17.651 9.56395C17.502 9.49695 17.328 9.44995 17.13 9.44995C16.93 9.44995 16.35 9.52795 16.35 10.2639C16.35 11.5149 19 11.1869 19 13.5879C19 14.9709 18.138 16.1529 16.539 16.1529C15.887 16.1529 15.375 15.9779 14.969 15.7469C14.578 15.5249 14.476 15.0059 14.729 14.6349L14.752 14.6009C14.971 14.2799 15.399 14.1469 15.743 14.3269C15.946 14.4329 16.195 14.5139 16.483 14.5139C17.133 14.5139 17.252 13.9649 17.252 13.7129C17.252 12.4029 14.635 12.8579 14.635 10.3389C14.635 8.90195 15.632 7.84595 17.063 7.84595C17.592 7.84595 18.006 7.95495 18.322 8.09795C18.769 8.29995 18.915 8.86295 18.633 9.26295Z" fill="#5627CD"/>
<path id="Vector_4" d="M4.974 15.2571V11.7891C4.974 11.2941 5.375 10.8921 5.871 10.8921C6.366 10.8921 6.768 11.2931 6.768 11.7891V15.2571C6.768 15.7521 6.367 16.1541 5.871 16.1541C5.376 16.1531 4.974 15.7521 4.974 15.2571Z" fill="#5627CD"/>
<path id="Vector_5" d="M5.871 10.0019C6.3537 10.0019 6.745 9.6106 6.745 9.12791C6.745 8.64521 6.3537 8.25391 5.871 8.25391C5.3883 8.25391 4.997 8.64521 4.997 9.12791C4.997 9.6106 5.3883 10.0019 5.871 10.0019Z" fill="#5627CD"/>
</g>
</svg>
