<svg width="18" height="18" viewBox="0 0 18 18" fill="none" xmlns="http://www.w3.org/2000/svg">
<g id="Leading Icon">
<path id="Vector" d="M14.25 3C13.4302 3 12.75 3.6802 12.75 4.5V13.5C12.75 14.3198 13.4302 15 14.25 15H15.75C16.5698 15 17.25 14.3198 17.25 13.5V4.5C17.25 3.6802 16.5698 3 15.75 3H14.25ZM14.25 4.5H15.75V13.5H14.25V4.5ZM8.25 6C7.4302 6 6.75 6.6802 6.75 7.5V13.5C6.75 14.3198 7.4302 15 8.25 15H9.75C10.5698 15 11.25 14.3198 11.25 13.5V7.5C11.25 6.6802 10.5698 6 9.75 6H8.25ZM8.25 7.5H9.75V13.5H8.25V7.5ZM2.25 9C1.4302 9 0.75 9.6802 0.75 10.5V13.5C0.75 14.3198 1.4302 15 2.25 15H3.75C4.5698 15 5.25 14.3198 5.25 13.5V10.5C5.25 9.6802 4.5698 9 3.75 9H2.25ZM2.25 10.5H3.75V13.5H2.25V10.5Z" fill="#595959"/>
</g>
</svg>
