<svg width="49" height="48" viewBox="0 0 49 48" fill="none" xmlns="http://www.w3.org/2000/svg">
<g id="Social Icons">
<g clip-path="url(#clip0_1524_5175)">
<rect x="0.299805" width="48" height="48" rx="24" fill="#7C50E9"/>
<path id="Vector" d="M44.7467 0H3.84355C1.88418 0 0.299805 1.54688 0.299805 3.45938V44.5312C0.299805 46.4437 1.88418 48 3.84355 48H44.7467C46.7061 48 48.2998 46.4438 48.2998 44.5406V3.45938C48.2998 1.54688 46.7061 0 44.7467 0ZM14.5404 40.9031H7.41543V17.9906H14.5404V40.9031ZM10.9779 14.8688C8.69043 14.8688 6.84355 13.0219 6.84355 10.7437C6.84355 8.46562 8.69043 6.61875 10.9779 6.61875C13.2561 6.61875 15.1029 8.46562 15.1029 10.7437C15.1029 13.0125 13.2561 14.8688 10.9779 14.8688ZM41.2029 40.9031H34.0873V29.7656C34.0873 27.1125 34.0404 23.6906 30.3842 23.6906C26.6811 23.6906 26.1186 26.5875 26.1186 29.5781V40.9031H19.0123V17.9906H25.8373V21.1219H25.9311C26.8779 19.3219 29.2029 17.4188 32.6623 17.4188C39.8717 17.4188 41.2029 22.1625 41.2029 28.3313V40.9031Z" fill="white"/>
</g>
</g>
<defs>
<clipPath id="clip0_1524_5175">
<rect x="0.299805" width="48" height="48" rx="24" fill="white"/>
</clipPath>
</defs>
</svg>
