<svg width="266" height="266" viewBox="0 0 266 266" fill="none" xmlns="http://www.w3.org/2000/svg">
<g clip-path="url(#clip0_985_3724)">
<g clip-path="url(#clip1_985_3724)">
<path d="M201.475 73.5598C217.829 73.4798 231.036 63.1216 230.974 50.4241C230.912 37.7266 217.604 27.4981 201.249 27.5782C184.895 27.6582 171.688 38.0164 171.75 50.7139C171.812 63.4113 185.121 73.6398 201.475 73.5598Z" fill="white"/>
<path d="M201.283 74.0056C193.346 74.0057 185.877 71.6212 180.23 67.2813C174.505 62.8806 171.334 56.9976 171.303 50.7159C171.273 44.4342 174.385 38.5206 180.067 34.0638C185.717 29.6334 193.238 27.1715 201.247 27.1324C209.259 27.0939 216.8 29.4812 222.493 33.8564C228.219 38.257 231.389 44.1401 231.42 50.4218C231.451 56.7035 228.338 62.6171 222.656 67.0739C217.007 71.5044 209.485 73.9661 201.477 74.0053L201.283 74.0056ZM201.249 27.5782L201.251 28.0241C185.169 28.1028 172.136 38.2803 172.197 50.7116C172.226 56.712 175.273 62.3456 180.775 66.5747C186.311 70.8297 193.665 73.1554 201.472 73.1135C209.283 73.0753 216.61 70.6814 222.104 66.3726C227.565 62.0898 230.556 56.4265 230.527 50.4261C230.466 38.0436 217.434 28.0236 201.438 28.0236C201.376 28.0236 201.314 28.0238 201.251 28.0241L201.249 27.5782Z" fill="#232323"/>
<path d="M180.659 84.7995C184.099 84.7995 186.887 82.6348 186.887 79.9645C186.887 77.2942 184.099 75.1295 180.659 75.1295C177.22 75.1295 174.432 77.2942 174.432 79.9645C174.432 82.6348 177.22 84.7995 180.659 84.7995Z" fill="white"/>
<path d="M180.659 85.2454C176.979 85.2454 173.985 82.8765 173.985 79.9645C173.985 77.0526 176.979 74.6837 180.659 74.6837C184.34 74.6837 187.333 77.0526 187.333 79.9645C187.333 82.8763 184.339 85.2454 180.659 85.2454ZM180.659 75.5752C177.472 75.5752 174.878 77.5441 174.878 79.9643C174.878 82.3846 177.472 84.3536 180.659 84.3536C183.847 84.3536 186.44 82.3846 186.44 79.9643C186.44 77.5441 183.847 75.5752 180.659 75.5752Z" fill="#232323"/>
<path d="M164.522 86.2701C166.171 86.2701 167.508 85.2323 167.508 83.952C167.508 82.6717 166.171 81.6339 164.522 81.6339C162.873 81.6339 161.537 82.6717 161.537 83.952C161.537 85.2323 162.873 86.2701 164.522 86.2701Z" fill="white"/>
<path d="M164.522 86.716C162.63 86.716 161.09 85.476 161.09 83.952C161.09 82.4279 162.63 81.1879 164.522 81.1879C166.415 81.1879 167.954 82.4279 167.954 83.952C167.954 85.476 166.415 86.716 164.522 86.716ZM164.522 82.0797C163.122 82.0797 161.983 82.9196 161.983 83.9521C161.983 84.9847 163.122 85.8245 164.522 85.8245C165.922 85.8245 167.061 84.9847 167.061 83.9521C167.061 82.9196 165.922 82.0797 164.522 82.0797Z" fill="#232323"/>
</g>
<g clip-path="url(#clip2_985_3724)">
<path d="M148.259 77.4159C148.244 77.4204 148.227 77.4234 148.212 77.4278C147.099 77.6969 145.627 78.4129 143.978 79.3934C141.48 80.8777 138.571 82.9688 135.871 85.0375C135.421 85.3813 134.977 85.7251 134.541 86.0659C130.342 89.3498 126.951 92.3019 126.951 92.3019C126.951 92.3019 120.238 83.6758 116.997 81.9554C116.989 81.8283 116.98 81.7043 116.971 81.5817C116.665 77.8269 115.108 75.8703 114.369 74.1843C111.513 67.6688 119.281 60.5837 125.908 64.6987C128.161 57.7109 138.524 57.391 141.22 63.4118C141.259 63.4955 141.296 63.5822 141.33 63.6689C143.805 62.5642 147.255 61.8064 150.926 64.1262C155.259 66.8631 155.95 75.5206 148.259 77.4159Z" fill="#232323"/>
<path d="M137.503 67.6432C137.439 67.6432 137.377 67.627 137.322 67.5963C137.266 67.5655 137.22 67.5212 137.186 67.4674C137.153 67.4136 137.133 67.3522 137.13 67.2889C137.127 67.2256 137.139 67.1625 137.167 67.1056C139.52 62.2808 144.685 61.8827 144.904 61.8681C145.003 61.8618 145.1 61.8949 145.174 61.9601C145.249 62.0253 145.294 62.1173 145.301 62.216C145.308 62.3149 145.275 62.4123 145.21 62.4869C145.144 62.5614 145.052 62.607 144.953 62.6136C144.905 62.6169 139.998 63.0054 137.839 67.4331C137.808 67.4961 137.76 67.5493 137.701 67.5864C137.641 67.6236 137.573 67.6433 137.503 67.6432Z" fill="white"/>
<path d="M152.622 100.723C152.62 100.764 152.619 100.805 152.616 100.847C152.614 100.895 152.611 100.943 152.605 100.991C152.602 101.033 152.599 101.076 152.593 101.119V101.122C152.587 101.184 152.578 101.245 152.569 101.308C152.562 101.366 152.551 101.426 152.541 101.484C152.541 101.489 152.539 101.493 152.538 101.497C152.529 101.55 152.518 101.604 152.506 101.656C152.471 101.826 152.426 101.995 152.37 102.163C152.357 102.204 152.344 102.246 152.329 102.288C152.296 102.388 152.257 102.487 152.217 102.586C152.167 102.706 152.114 102.825 152.055 102.941C152.027 102.998 151.998 103.053 151.969 103.109C151.937 103.166 151.906 103.222 151.873 103.279C151.84 103.335 151.806 103.391 151.771 103.447C151.702 103.554 151.63 103.659 151.556 103.763C151.547 103.774 151.54 103.786 151.532 103.796C151.498 103.843 151.464 103.888 151.428 103.932C151.386 103.985 151.344 104.037 151.301 104.089C151.257 104.14 151.213 104.191 151.168 104.242C151.165 104.245 151.162 104.248 151.16 104.251C151.071 104.349 150.979 104.444 150.884 104.536C150.836 104.583 150.787 104.629 150.737 104.675C150.736 104.675 150.734 104.677 150.733 104.678C150.682 104.725 150.63 104.771 150.576 104.816C150.53 104.855 150.485 104.894 150.437 104.931C150.421 104.944 150.404 104.958 150.386 104.971C150.34 105.007 150.292 105.043 150.244 105.079C150.188 105.122 150.129 105.164 150.07 105.204C150.01 105.245 149.95 105.285 149.889 105.324C149.838 105.357 149.787 105.39 149.735 105.421L149.636 105.479C149.532 105.541 149.424 105.599 149.313 105.656C149.242 105.693 149.17 105.729 149.097 105.763C148.671 105.968 148.238 106.155 147.797 106.321C147.724 106.349 147.649 106.376 147.576 106.402C147.477 106.436 147.377 106.47 147.278 106.503C147.211 106.526 147.144 106.548 147.077 106.569C147.017 106.587 146.957 106.606 146.896 106.624C146.805 106.651 146.715 106.678 146.624 106.704C146.008 106.879 145.382 107.015 144.747 107.11C144.671 107.122 144.595 107.134 144.519 107.145L144.363 107.167C144.245 107.182 144.129 107.197 144.012 107.21C143.882 107.225 143.752 107.239 143.624 107.249C143.389 107.272 143.158 107.288 142.929 107.302C141.704 107.373 140.477 107.327 139.262 107.164C139.158 107.151 139.056 107.136 138.958 107.122C138.917 107.118 138.877 107.112 138.838 107.106L138.559 107.061C138.088 106.98 137.62 106.883 137.156 106.769L137.103 106.756C137.103 106.756 137.172 109.771 137.574 112.245C137.691 112.967 137.836 113.642 138.016 114.183C138.016 114.183 138.016 114.185 138.015 114.188C137.97 114.394 142.914 125.49 138.93 129.148C138.073 129.937 129.272 128.728 128.173 129.148C123.925 128.929 115.315 121.677 111.297 114.453C111.252 114.372 110.488 113.452 110.44 113.359C110.38 113.24 111.455 112.017 111.398 111.898C111.398 111.898 115.846 103.557 117.104 96.3286C117.122 96.2299 117.139 96.1313 117.155 96.0326V96.0311C116.71 95.8555 116.275 95.6544 115.852 95.4287C115.706 95.351 115.561 95.2703 115.418 95.1866C115.286 95.1104 115.155 95.0311 115.025 94.9504C114.63 94.7032 114.248 94.4363 113.88 94.1507C113.831 94.1134 113.781 94.0745 113.734 94.0341C113.635 93.9549 113.538 93.8757 113.442 93.795C113.251 93.6325 113.064 93.464 112.883 93.2898C110.92 91.4094 109.604 88.8863 110.216 86.1091C110.49 84.8685 111.207 83.7384 112.172 82.9029C112.234 82.8491 112.298 82.7968 112.362 82.7445C112.458 82.6682 112.556 82.5935 112.658 82.5217C112.993 82.2848 113.351 82.0824 113.726 81.9179C114.733 81.4769 115.857 81.326 116.971 81.5816C117.119 81.6159 117.266 81.6563 117.414 81.7056C118.945 82.2123 119.988 82.9388 120.947 83.8924C121.487 84.4275 122.001 85.0359 122.559 85.716C122.622 85.7907 122.685 85.8669 122.748 85.9447C122.873 86.0986 123.003 86.2571 123.136 86.4185C123.402 86.7429 123.682 87.0792 123.98 87.4319C124.057 87.5216 124.131 87.6068 124.205 87.6875C124.252 87.7398 124.3 87.7907 124.348 87.84C124.394 87.8908 124.442 87.9386 124.488 87.9835C124.574 88.0702 124.662 88.1534 124.754 88.2331C124.798 88.2705 124.84 88.3063 124.883 88.3392C125.389 88.7488 125.811 88.8758 126.196 88.7757C126.25 88.7622 126.305 88.7428 126.359 88.7189C126.494 88.6606 126.625 88.5739 126.755 88.4603C126.806 88.414 126.858 88.3646 126.91 88.3123C127.426 87.7787 127.94 86.846 128.599 85.6607C128.738 85.4111 128.883 85.1659 129.032 84.9238C129.132 84.7623 129.235 84.6024 129.338 84.444C129.443 84.287 129.549 84.1301 129.657 83.9761C129.873 83.6682 130.096 83.3693 130.322 83.0778C131.509 81.5517 132.812 80.2826 133.866 79.4635C134.354 79.0824 134.894 78.7565 135.473 78.4815C135.475 78.4785 135.478 78.477 135.479 78.4785C136.144 78.1571 136.861 77.903 137.611 77.7027C140.313 76.9778 143.44 76.9539 146.121 77.187C146.857 77.2513 147.561 77.3335 148.212 77.4277C148.167 78.5697 148.151 79.7102 148.16 80.8521V80.8536C148.175 82.9597 148.281 85.0628 148.478 87.1599C148.489 87.275 148.499 87.3886 148.513 87.5007L148.517 87.5395C148.529 87.6517 148.544 87.7623 148.559 87.8714C148.574 87.979 148.589 88.0851 148.605 88.1912C148.629 88.3332 148.653 88.4738 148.678 88.6128C148.696 88.701 148.713 88.7876 148.731 88.8743C148.75 88.97 148.771 89.0657 148.794 89.1583C148.807 89.2181 148.82 89.2779 148.834 89.3362C148.858 89.4319 148.882 89.5275 148.906 89.6217C148.909 89.6292 148.91 89.6367 148.912 89.6441C148.941 89.7547 148.971 89.8639 149.003 89.973C149.064 90.1882 149.128 90.3975 149.197 90.6037C149.281 90.8593 149.37 91.109 149.463 91.3541C149.566 91.6291 149.675 91.8982 149.787 92.1613C149.844 92.2928 149.901 92.4243 149.957 92.5544C149.999 92.65 150.043 92.7457 150.086 92.8399C150.159 93.0013 150.232 93.1612 150.307 93.3212C150.367 93.4482 150.425 93.5738 150.485 93.6978C150.693 94.1343 150.9 94.5648 151.1 94.9953C151.139 95.0775 151.178 95.1612 151.216 95.2434C151.432 95.7127 151.637 96.1836 151.819 96.6664L151.877 96.8188C152.045 97.2732 152.193 97.7381 152.312 98.2194C152.357 98.3988 152.397 98.5811 152.433 98.7665C152.445 98.8233 152.456 98.8816 152.466 98.9398C152.483 99.0265 152.496 99.1147 152.509 99.2029C152.523 99.2896 152.535 99.3763 152.545 99.463C152.548 99.4794 152.55 99.4959 152.551 99.5123C152.562 99.5975 152.571 99.6812 152.58 99.7664C152.58 99.7709 152.581 99.7754 152.58 99.7799C152.589 99.8681 152.596 99.9548 152.602 100.043C152.604 100.05 152.604 100.058 152.604 100.067C152.611 100.16 152.616 100.252 152.62 100.345C152.626 100.471 152.626 100.598 152.622 100.723Z" fill="white"/>
<path d="M143.192 77.9527C144.108 77.9527 145.067 77.9957 146.043 78.0806C146.464 78.1174 146.881 78.1608 147.289 78.2101C147.265 79.0906 147.256 79.9714 147.263 80.8522V80.8601C147.279 82.9909 147.386 85.12 147.585 87.2415C147.596 87.3535 147.607 87.4804 147.622 87.6018L147.623 87.6095L147.626 87.6358C147.639 87.7598 147.655 87.8804 147.671 87.9949C147.687 88.1102 147.703 88.2254 147.721 88.3405C147.746 88.4868 147.77 88.6313 147.797 88.7745L147.8 88.7911L147.822 88.9022C147.832 88.9534 147.842 89.0046 147.852 89.0536C147.875 89.1663 147.897 89.2673 147.921 89.3621C147.934 89.4213 147.947 89.4806 147.961 89.5385L147.964 89.5533C147.99 89.6571 148.016 89.7608 148.043 89.8645L148.046 89.8779C148.077 89.9932 148.109 90.1071 148.141 90.2184C148.207 90.4516 148.274 90.6704 148.345 90.883C148.432 91.1471 148.525 91.4092 148.624 91.6691C148.725 91.9399 148.836 92.216 148.964 92.5169L148.971 92.5318C149.026 92.6596 149.081 92.7874 149.136 92.9136C149.18 93.0146 149.226 93.1157 149.27 93.2103C149.344 93.3749 149.419 93.5378 149.496 93.7031L149.543 93.8034C149.588 93.8989 149.632 93.9934 149.676 94.0832L149.849 94.446C149.997 94.7559 150.144 95.0666 150.29 95.3779C150.327 95.4563 150.364 95.5359 150.402 95.6192C150.641 96.1386 150.825 96.5721 150.982 96.9864L151.038 97.1338C151.206 97.5891 151.338 98.015 151.443 98.4366C151.485 98.6071 151.523 98.7788 151.556 98.9514C151.567 98.9994 151.575 99.0486 151.584 99.0979L151.586 99.1074C151.6 99.1832 151.612 99.2602 151.624 99.3409C151.636 99.4173 151.646 99.4938 151.656 99.5702L151.659 99.5955C151.66 99.6041 151.661 99.6128 151.662 99.6215C151.67 99.6893 151.678 99.7563 151.685 99.8239C151.686 99.8394 151.687 99.8551 151.688 99.8707C151.696 99.9487 151.703 100.026 151.708 100.104L151.709 100.112L151.711 100.139C151.717 100.22 151.721 100.301 151.725 100.388C151.73 100.482 151.73 100.584 151.726 100.691C151.725 100.721 151.724 100.752 151.722 100.783C151.721 100.795 151.72 100.807 151.72 100.82C151.72 100.839 151.718 100.859 151.716 100.879C151.714 100.896 151.712 100.913 151.711 100.931C151.71 100.952 151.709 100.974 151.706 100.996C151.703 101.013 151.702 101.03 151.7 101.047C151.696 101.086 151.69 101.125 151.685 101.165L151.682 101.181L151.681 101.193C151.674 101.244 151.665 101.296 151.655 101.347C151.648 101.383 151.641 101.42 151.633 101.456L151.63 101.471C151.6 101.612 151.563 101.751 151.518 101.887L151.515 101.895C151.505 101.925 151.496 101.956 151.485 101.986L151.477 102.009C151.452 102.086 151.419 102.168 151.386 102.249C151.346 102.348 151.301 102.445 151.253 102.54C151.23 102.587 151.206 102.633 151.182 102.679C151.155 102.728 151.128 102.777 151.1 102.825C151.072 102.873 151.043 102.92 151.014 102.966C150.985 103.011 150.956 103.056 150.926 103.099L150.92 103.109C150.893 103.148 150.865 103.188 150.838 103.227C150.826 103.242 150.815 103.257 150.805 103.272C150.78 103.306 150.754 103.339 150.728 103.372L150.722 103.38C150.686 103.424 150.651 103.468 150.615 103.512C150.57 103.565 150.524 103.617 150.477 103.669C150.407 103.746 150.335 103.82 150.26 103.892C150.224 103.928 150.186 103.963 150.148 103.999C150.142 104.004 150.136 104.009 150.13 104.015C150.089 104.052 150.046 104.09 150 104.128L149.963 104.16C149.937 104.182 149.912 104.203 149.885 104.224C149.88 104.229 149.874 104.233 149.869 104.237C149.862 104.243 149.855 104.249 149.847 104.255L149.838 104.262C149.795 104.295 149.751 104.328 149.707 104.361L149.701 104.366C149.657 104.399 149.613 104.431 149.569 104.46L149.561 104.466C149.51 104.5 149.46 104.534 149.409 104.567L149.398 104.574C149.357 104.6 149.316 104.627 149.28 104.649L149.229 104.678L149.183 104.706C149.1 104.755 149.009 104.804 148.899 104.861C148.833 104.895 148.773 104.925 148.716 104.952L148.709 104.955C148.307 105.149 147.898 105.324 147.481 105.482L147.473 105.485C147.41 105.509 147.345 105.533 147.281 105.555C147.186 105.588 147.09 105.621 146.991 105.654C146.932 105.674 146.873 105.693 146.814 105.712C146.787 105.72 146.76 105.728 146.734 105.737C146.704 105.746 146.674 105.755 146.643 105.764L146.586 105.781C146.519 105.801 146.452 105.821 146.379 105.841C145.798 106.006 145.207 106.134 144.609 106.224L144.597 106.226C144.53 106.237 144.463 106.247 144.391 106.257L144.242 106.279L144.224 106.281C144.118 106.294 144.014 106.308 143.911 106.32C143.787 106.334 143.663 106.347 143.539 106.357C143.339 106.376 143.122 106.392 142.877 106.407C141.709 106.475 140.537 106.431 139.377 106.275C139.312 106.266 139.248 106.257 139.185 106.249L139.079 106.234L139.056 106.231C139.028 106.228 139.001 106.224 138.981 106.221L138.817 106.194L138.706 106.176C138.259 106.1 137.815 106.008 137.375 105.9L137.319 105.886C137.185 105.853 137.046 105.851 136.911 105.881C136.777 105.91 136.651 105.97 136.543 106.057C136.436 106.143 136.349 106.252 136.291 106.377C136.233 106.502 136.204 106.639 136.207 106.777C136.21 106.902 136.282 109.882 136.689 112.388C136.817 113.179 136.967 113.847 137.136 114.376C137.17 114.532 137.248 114.739 137.383 115.103C137.819 116.273 138.841 119.013 139.325 121.824C139.709 124.054 139.853 126.991 138.391 128.424C138.275 128.456 137.911 128.525 136.952 128.525C135.769 128.525 134.216 128.426 132.714 128.329C131.361 128.242 130.082 128.16 129.19 128.16C128.685 128.16 128.341 128.185 128.082 128.243C126.26 128.073 123.275 126.367 120.234 123.749C116.891 120.87 113.919 117.323 112.081 114.019C112.027 113.921 111.966 113.843 111.61 113.401L111.532 113.304L111.637 113.166C111.934 112.773 112.158 112.478 112.254 112.199C112.829 111.101 116.787 103.381 117.987 96.4897C118.004 96.3911 118.021 96.2924 118.037 96.1936L118.04 96.1811C118.074 95.978 118.037 95.7693 117.936 95.5901C117.834 95.4108 117.674 95.272 117.483 95.1969C117.069 95.0338 116.665 94.8469 116.273 94.6372C116.136 94.5646 116.001 94.4894 115.867 94.4115C115.744 94.34 115.622 94.2668 115.502 94.1917C115.132 93.9604 114.775 93.7107 114.431 93.4436L114.422 93.4369C114.384 93.4086 114.348 93.3793 114.312 93.349L114.295 93.3355C114.202 93.2608 114.111 93.1862 114.024 93.113C113.845 92.9618 113.672 92.805 113.504 92.6427C112.541 91.7208 111.838 90.7292 111.414 89.6959C110.952 88.5711 110.844 87.4296 111.092 86.303C111.317 85.2845 111.909 84.3181 112.764 83.5775C112.816 83.5321 112.87 83.488 112.925 83.4437C113.009 83.3766 113.092 83.3141 113.171 83.2579C113.231 83.2168 113.29 83.1757 113.348 83.1378C113.583 82.9856 113.83 82.8527 114.086 82.7402C114.67 82.4844 115.27 82.3547 115.87 82.3547C116.174 82.3547 116.477 82.3889 116.769 82.4559C116.897 82.4858 117.016 82.5188 117.132 82.5578C118.393 82.9751 119.345 83.5646 120.316 84.5299C120.802 85.0118 121.27 85.5592 121.867 86.2863L121.873 86.2934C121.932 86.3638 121.991 86.4357 122.053 86.5124C122.183 86.6713 122.313 86.8298 122.443 86.988C122.725 87.3322 123.01 87.674 123.298 88.0136C123.378 88.1082 123.46 88.2016 123.543 88.2937C123.594 88.3491 123.645 88.4032 123.696 88.4557C123.756 88.5218 123.815 88.5798 123.857 88.6204C123.93 88.6945 124.005 88.7663 124.082 88.836C124.113 88.8642 124.143 88.8904 124.169 88.9132C124.221 88.9576 124.272 89.0011 124.33 89.0455C124.882 89.4899 125.41 89.7059 125.943 89.7059C126.103 89.7059 126.263 89.6856 126.418 89.6455C126.519 89.6202 126.62 89.585 126.72 89.541C126.935 89.4472 127.145 89.3111 127.345 89.1367L127.36 89.1237C127.423 89.0664 127.484 89.0076 127.545 88.9475L127.555 88.9364C128.142 88.3289 128.672 87.3756 129.343 86.1686L129.382 86.0978C129.514 85.8611 129.652 85.6276 129.794 85.3972C129.89 85.2431 129.988 85.09 130.087 84.938C130.187 84.7885 130.288 84.6401 130.39 84.4929C130.596 84.2002 130.81 83.9123 131.029 83.6294C132.061 82.3037 133.295 81.0436 134.417 80.1713C134.842 79.8402 135.326 79.5446 135.858 79.2924L135.874 79.2843C136.456 79.0038 137.118 78.7634 137.844 78.5696C139.368 78.1602 141.167 77.9528 143.192 77.9527ZM143.192 77.0558C141.312 77.0558 139.371 77.2306 137.611 77.7029C136.861 77.9032 136.144 78.1573 135.479 78.4787C135.479 78.4783 135.478 78.4781 135.478 78.4781C135.476 78.4781 135.474 78.4794 135.473 78.4817C134.894 78.7567 134.354 79.0826 133.866 79.4637C132.812 80.2828 131.509 81.5518 130.322 83.078C130.096 83.3694 129.873 83.6684 129.657 83.9763C129.549 84.1303 129.443 84.2872 129.338 84.4441C129.235 84.6026 129.132 84.7625 129.032 84.924C128.883 85.1661 128.738 85.4112 128.599 85.6609C127.94 86.8462 127.426 87.7789 126.91 88.3125C126.858 88.3648 126.806 88.4141 126.755 88.4605C126.625 88.5741 126.494 88.6608 126.359 88.7191C126.305 88.743 126.25 88.7624 126.196 88.7759C126.113 88.7975 126.028 88.8085 125.942 88.8085C125.626 88.8085 125.281 88.6611 124.883 88.3394C124.84 88.3065 124.798 88.2707 124.754 88.2333C124.662 88.1536 124.574 88.0704 124.488 87.9837C124.442 87.9388 124.394 87.891 124.348 87.8402C124.3 87.7908 124.252 87.74 124.205 87.6877C124.131 87.607 124.057 87.5218 123.98 87.4321C123.682 87.0794 123.402 86.743 123.136 86.4187C123.003 86.2573 122.873 86.0988 122.748 85.9449C122.685 85.8671 122.622 85.7909 122.559 85.7162C122.001 85.0361 121.487 84.4277 120.947 83.8926C119.988 82.939 118.945 82.2125 117.414 81.7058C117.266 81.6565 117.119 81.6161 116.971 81.5817C116.61 81.4989 116.24 81.4571 115.87 81.4572C115.128 81.4572 114.401 81.6225 113.726 81.9181C113.351 82.0826 112.993 82.2849 112.658 82.5219C112.556 82.5937 112.458 82.6684 112.362 82.7446C112.298 82.797 112.234 82.8493 112.172 82.9031C111.207 83.7386 110.49 84.8687 110.216 86.1093C109.604 88.8865 110.92 91.4096 112.883 93.29C113.064 93.4648 113.251 93.6323 113.442 93.7952C113.538 93.8759 113.635 93.9551 113.734 94.0343C113.781 94.0747 113.831 94.1136 113.88 94.1509C114.251 94.4394 114.635 94.7055 115.025 94.9506C115.155 95.0313 115.286 95.1105 115.418 95.1868C115.561 95.2705 115.706 95.3512 115.852 95.4289C116.287 95.6606 116.725 95.8624 117.155 96.0313V96.0328C117.139 96.1314 117.122 96.2301 117.104 96.3287C115.846 103.557 111.398 111.898 111.398 111.898C111.455 112.017 110.38 113.24 110.44 113.359C110.488 113.452 111.252 114.373 111.297 114.453C115.315 121.677 123.925 128.93 128.173 129.148C128.344 129.082 128.703 129.056 129.19 129.056C131.02 129.056 134.658 129.422 136.952 129.422C137.96 129.422 138.709 129.351 138.93 129.148C142.914 125.49 137.97 114.394 138.015 114.188C138.016 114.185 138.016 114.184 138.016 114.184C137.835 113.642 137.69 112.967 137.574 112.245C137.172 109.771 137.103 106.756 137.103 106.756L137.156 106.77C137.62 106.883 138.088 106.98 138.559 107.061L138.838 107.106C138.877 107.112 138.917 107.118 138.957 107.122C139.056 107.136 139.158 107.151 139.262 107.164C140.477 107.327 141.705 107.373 142.929 107.302C143.158 107.288 143.389 107.272 143.624 107.25C143.752 107.239 143.882 107.226 144.012 107.211C144.129 107.197 144.245 107.182 144.363 107.167L144.519 107.145C144.595 107.134 144.671 107.122 144.747 107.111C145.382 107.015 146.008 106.879 146.624 106.704C146.715 106.679 146.805 106.652 146.896 106.625C146.957 106.607 147.017 106.587 147.077 106.569C147.144 106.549 147.211 106.526 147.278 106.504C147.377 106.471 147.477 106.436 147.576 106.402C147.649 106.377 147.724 106.35 147.797 106.321C148.238 106.155 148.671 105.969 149.097 105.764C149.17 105.729 149.242 105.694 149.313 105.656C149.424 105.599 149.531 105.541 149.636 105.48L149.735 105.421C149.787 105.39 149.838 105.357 149.889 105.324C149.95 105.285 150.01 105.245 150.069 105.205C150.129 105.164 150.187 105.123 150.244 105.079C150.292 105.043 150.34 105.007 150.386 104.972C150.404 104.958 150.42 104.945 150.437 104.931C150.485 104.894 150.53 104.855 150.576 104.816C150.63 104.771 150.682 104.725 150.733 104.679C150.734 104.677 150.736 104.676 150.737 104.676C150.787 104.629 150.836 104.583 150.884 104.537C150.979 104.445 151.071 104.349 151.16 104.251C151.162 104.248 151.165 104.245 151.168 104.242C151.212 104.191 151.257 104.14 151.301 104.09C151.344 104.037 151.386 103.985 151.428 103.933C151.463 103.888 151.498 103.843 151.532 103.797C151.54 103.786 151.547 103.774 151.556 103.764C151.592 103.713 151.628 103.662 151.662 103.611C151.699 103.558 151.735 103.502 151.771 103.447C151.806 103.392 151.84 103.335 151.873 103.28C151.906 103.223 151.937 103.166 151.968 103.109C152.031 102.993 152.09 102.874 152.145 102.753C152.17 102.697 152.194 102.641 152.216 102.586C152.257 102.487 152.296 102.389 152.329 102.289C152.343 102.247 152.357 102.205 152.37 102.163C152.426 101.996 152.47 101.827 152.506 101.656C152.518 101.604 152.529 101.55 152.538 101.498C152.539 101.493 152.541 101.489 152.541 101.484C152.551 101.426 152.562 101.366 152.569 101.308C152.578 101.245 152.587 101.184 152.593 101.123V101.12C152.599 101.076 152.602 101.033 152.605 100.991C152.611 100.943 152.614 100.895 152.615 100.848C152.618 100.806 152.62 100.764 152.621 100.724C152.626 100.598 152.626 100.471 152.62 100.345C152.615 100.253 152.611 100.16 152.603 100.067C152.603 100.058 152.603 100.051 152.602 100.043C152.596 99.9553 152.588 99.8686 152.58 99.7804C152.581 99.7759 152.58 99.7714 152.58 99.7669C152.571 99.6817 152.562 99.598 152.551 99.5128C152.55 99.4964 152.548 99.4799 152.545 99.4635C152.535 99.3768 152.523 99.2901 152.509 99.2034C152.496 99.1152 152.482 99.027 152.466 98.9403C152.456 98.882 152.445 98.8237 152.433 98.7669C152.397 98.5816 152.357 98.3992 152.312 98.2199C152.193 97.7386 152.045 97.2737 151.877 96.8193L151.819 96.6669C151.637 96.1841 151.432 95.7132 151.215 95.2439C151.178 95.1617 151.139 95.078 151.1 94.9957C150.9 94.5653 150.692 94.1348 150.485 93.6983C150.425 93.5743 150.367 93.4487 150.307 93.3216C150.232 93.1617 150.159 93.0018 150.086 92.8403C150.042 92.7462 149.999 92.6505 149.957 92.5548C149.901 92.4248 149.844 92.2933 149.787 92.1617C149.675 91.8987 149.566 91.6296 149.463 91.3546C149.37 91.1094 149.28 90.8598 149.197 90.6042C149.128 90.398 149.064 90.1887 149.003 89.9735C148.971 89.8643 148.941 89.7552 148.911 89.6446C148.91 89.6371 148.908 89.6297 148.905 89.6222C148.882 89.528 148.858 89.4324 148.834 89.3367C148.82 89.2784 148.807 89.2186 148.793 89.1588C148.771 89.0661 148.75 88.9705 148.731 88.8748C148.713 88.7881 148.696 88.7014 148.678 88.6132C148.653 88.4742 148.629 88.3337 148.605 88.1917C148.589 88.0856 148.574 87.9795 148.559 87.8719C148.544 87.7627 148.529 87.6521 148.517 87.54L148.512 87.5012C148.499 87.3891 148.489 87.2755 148.478 87.1604C148.281 85.0633 148.175 82.9602 148.16 80.8541V80.8526C148.151 79.7106 148.167 78.5702 148.212 77.4282C147.561 77.334 146.857 77.2518 146.12 77.1875C145.186 77.1059 144.198 77.0558 143.192 77.0558Z" fill="#232323"/>
<path d="M133.172 82.5873C133.19 82.7103 133.237 82.8271 133.31 82.9276C133.383 83.0281 133.48 83.1091 133.592 83.1635C133.761 83.2386 133.946 83.2723 134.13 83.2618C134.485 83.2415 134.827 83.1268 135.123 82.9296C135.254 82.8496 135.383 82.7708 135.505 82.6917L136.21 82.246C136.659 81.9681 137.06 81.7221 137.441 81.526C137.825 81.3274 138.169 81.1608 138.565 80.9611C138.766 80.8668 138.98 80.7531 139.225 80.6473C139.471 80.5274 139.743 80.4259 140.065 80.2573L140.228 80.1721C140.366 80.0989 140.485 79.9942 140.575 79.8664C140.664 79.7386 140.723 79.5914 140.745 79.4368C140.767 79.2822 140.752 79.1246 140.701 78.9768C140.651 78.829 140.566 78.6953 140.454 78.5865C140.147 78.2917 139.781 78.0656 139.379 77.923C138.972 77.7714 138.543 77.6902 138.108 77.6829C137.665 77.6746 137.223 77.7338 136.798 77.8587C136.377 77.9829 135.976 78.1642 135.605 78.3975C134.897 78.8337 134.302 79.431 133.869 80.1408C133.661 80.4773 133.495 80.8374 133.373 81.2135C133.312 81.4016 133.264 81.5937 133.23 81.7885C133.211 81.8864 133.198 81.9859 133.189 82.0888L133.166 82.4201C133.163 82.4759 133.165 82.532 133.172 82.5873ZM134.291 85.3462C134.258 85.3691 134.231 85.3982 134.209 85.4318C134.188 85.4654 134.174 85.5029 134.167 85.542C134.16 85.5812 134.161 85.6214 134.17 85.6602C134.178 85.699 134.195 85.7357 134.218 85.7682C134.832 86.6018 137.799 87.3072 139.68 86.7205C141.211 86.2426 140.871 84.8992 140.524 84.1283C140.493 84.0572 140.447 83.993 140.39 83.9396C140.333 83.8862 140.267 83.8446 140.194 83.8172C140.121 83.7897 140.043 83.777 139.965 83.7798C139.887 83.7826 139.811 83.8008 139.74 83.8334C137.618 84.8068 135.356 85.1359 134.417 85.2948C134.371 85.3022 134.328 85.3198 134.291 85.3462ZM147.342 83.9666C147.379 83.9804 147.414 84.0015 147.443 84.0286C147.472 84.0557 147.496 84.0884 147.513 84.1247C147.53 84.161 147.539 84.2002 147.54 84.2402C147.542 84.2801 147.536 84.32 147.522 84.3575C147.218 85.1849 146.235 86.2564 144.741 86.0326C143.401 85.8314 143.021 84.9687 143.164 84.1355L143.164 84.1351C143.191 83.9803 143.279 83.8426 143.407 83.7523C143.536 83.662 143.695 83.6264 143.85 83.6535C145.567 83.9327 146.262 84.0307 147.211 83.949C147.255 83.9451 147.3 83.9512 147.342 83.9666Z" fill="#232323"/>
<path d="M121.763 95.9702C119.751 96.2295 117.543 95.6307 116.368 95.1727L121.763 95.9702Z" fill="white"/>
<path d="M120.756 96.48C119.106 96.48 117.39 96.0524 116.205 95.5905C116.095 95.5473 116.006 95.4618 115.958 95.3529C115.91 95.244 115.908 95.1206 115.951 95.0098C115.994 94.899 116.079 94.8099 116.188 94.7621C116.297 94.7143 116.42 94.7117 116.531 94.755C117.87 95.2771 119.933 95.7545 121.706 95.5253C121.764 95.5178 121.824 95.5219 121.88 95.5373C121.937 95.5527 121.991 95.5791 122.037 95.6151C122.084 95.651 122.123 95.6959 122.152 95.7469C122.181 95.798 122.2 95.8544 122.208 95.9128C122.215 95.9712 122.211 96.0305 122.196 96.0873C122.181 96.1442 122.154 96.1974 122.118 96.244C122.082 96.2907 122.037 96.3298 121.986 96.3591C121.935 96.3884 121.879 96.4073 121.821 96.4149C121.473 96.4597 121.116 96.48 120.756 96.48ZM148.212 77.4279C148.168 78.5699 148.151 79.7103 148.16 80.8523C147.812 80.7208 147.492 80.6057 147.19 80.5175C146.815 80.4069 146.482 80.3172 146.097 80.2081C145.902 80.1588 145.693 80.0945 145.457 80.0422C145.218 79.9779 144.96 79.9346 144.646 79.8389L144.486 79.7911C144.396 79.7642 144.313 79.7223 144.235 79.67C144.127 79.5938 144.041 79.4996 143.978 79.3935C143.89 79.2453 143.847 79.075 143.854 78.9029C143.861 78.7309 143.917 78.5644 144.015 78.4234C144.238 78.108 144.523 77.8449 144.855 77.6506C145.191 77.4458 145.559 77.3008 145.943 77.2201C146.001 77.2082 146.061 77.1962 146.121 77.1872C146.455 77.1319 146.797 77.12 147.137 77.1529C147.521 77.1902 147.897 77.2784 148.259 77.4159C148.244 77.4204 148.227 77.4234 148.212 77.4279ZM137.296 111.298C137.291 111.297 137.287 111.296 137.283 111.294C130.491 109.241 130.998 104.227 131.713 103.335C133.948 104.895 137.128 105.879 137.128 105.879C137.128 105.879 136.975 108.812 137.296 111.298ZM121.111 91.8526C121.013 91.8525 120.917 91.8199 120.839 91.7598C120.76 91.6998 120.704 91.6156 120.679 91.5204C119.265 86.2577 114.955 86.3507 114.77 86.3588C114.526 86.3641 114.315 86.1749 114.306 85.928C114.301 85.8094 114.343 85.6939 114.424 85.6066C114.504 85.5194 114.616 85.4676 114.734 85.4627C114.787 85.4585 119.94 85.3144 121.544 91.2878C121.562 91.3543 121.565 91.424 121.551 91.4915C121.538 91.559 121.509 91.6225 121.467 91.6772C121.425 91.7318 121.371 91.776 121.31 91.8064C121.248 91.8369 121.18 91.8527 121.111 91.8526ZM144.3 90.7776C144.202 90.7778 144.108 90.7463 144.03 90.6879C143.952 90.6296 143.896 90.5475 143.869 90.4541C143.842 90.3607 143.846 90.261 143.88 90.1701C143.915 90.0792 143.978 90.002 144.06 89.9501C144.789 89.4893 145.181 89.1011 145.225 88.7962C145.274 88.4589 144.909 88.0125 144.345 87.3699C142.678 85.4675 143.103 84.1685 143.157 84.0268C143.178 83.9718 143.21 83.9213 143.25 83.8785C143.29 83.8356 143.339 83.8011 143.393 83.777C143.446 83.7529 143.504 83.7397 143.563 83.738C143.622 83.7363 143.681 83.7463 143.736 83.7673C143.847 83.8097 143.936 83.8944 143.985 84.0029C144.034 84.1114 144.037 84.2348 143.995 84.346C143.995 84.346 143.712 85.2872 145.019 86.7786C145.666 87.5161 146.224 88.153 146.113 88.9246C146.026 89.5255 145.54 90.0754 144.538 90.7083C144.467 90.7536 144.384 90.7777 144.3 90.7776ZM137.529 94.2242C137.775 94.0421 138.062 93.952 138.341 93.907C138.616 93.8674 138.896 93.8668 139.171 93.9053C139.718 93.9769 140.242 94.1738 140.7 94.4807C140.926 94.6372 141.135 94.817 141.323 95.0173C141.507 95.2219 141.676 95.443 141.806 95.6896C142.068 96.1737 142.215 96.7636 142.078 97.334C142.062 97.4006 142.022 97.4592 141.966 97.4991C141.911 97.539 141.842 97.5577 141.774 97.5516C141.706 97.5455 141.642 97.5151 141.594 97.4659C141.546 97.4167 141.518 97.352 141.514 97.2836L141.512 97.2615C141.49 96.8555 141.33 96.4628 141.095 96.114C140.975 95.9416 140.842 95.7751 140.687 95.6282C140.537 95.4772 140.372 95.3408 140.196 95.2209C139.856 94.9856 139.444 94.815 139.027 94.7147C138.611 94.6182 138.176 94.591 137.818 94.7161L137.793 94.7245C137.729 94.7472 137.658 94.746 137.594 94.721C137.53 94.6961 137.478 94.649 137.446 94.5884C137.414 94.5277 137.404 94.4576 137.42 94.3908C137.435 94.3239 137.474 94.2648 137.529 94.2242Z" fill="#232323"/>
<path d="M191.051 198.403L190.674 203.108L51.6504 198.185C51.6504 198.185 77.1299 125.212 86.7222 121.155C91.4467 119.158 101.138 116.991 105.771 115.015C107.228 114.393 111.399 111.898 111.399 111.898C119.779 125.541 129.414 126.546 129.414 126.546C129.414 126.546 135.148 125.422 137.968 114.03C137.968 114.03 143.676 116.445 143.818 116.49C153.453 119.514 168.138 126.527 168.138 126.527L191.051 198.403Z" fill="#6738DD"/>
<path d="M217.908 210.112L169.298 230.54C168.923 230.697 168.504 230.718 168.115 230.6L111.336 213.318C110.959 213.204 110.625 212.98 110.376 212.676C110.126 212.372 109.972 212 109.933 211.609L109.76 209.873L168.484 199.661L218.18 206.951C218.311 206.97 218.431 207.035 218.517 207.134C218.604 207.234 218.652 207.362 218.652 207.494V208.996C218.652 209.235 218.581 209.468 218.449 209.667C218.317 209.865 218.129 210.02 217.908 210.112Z" fill="#D5C5FD"/>
<path d="M218.313 206.922C218.313 206.922 218.429 206.96 218.51 207.075C218.593 207.192 218.627 207.3 218.627 207.3L169.523 226.235C168.934 226.481 168.279 226.514 167.668 226.328L110.065 209.847L163.643 195.74L218.313 206.922Z" fill="white"/>
<path d="M163.669 196.661L215.979 207.36L169.2 225.399L169.177 225.408C168.952 225.502 168.71 225.551 168.466 225.55C168.284 225.55 168.103 225.523 167.929 225.47L167.915 225.466L113.451 209.884L163.669 196.661ZM163.643 195.74L110.065 209.848L167.668 226.328C168.279 226.514 168.934 226.481 169.523 226.235L218.627 207.3C218.627 207.3 218.593 207.192 218.51 207.075C218.429 206.959 218.313 206.922 218.313 206.922L163.643 195.74Z" fill="#232323"/>
<path d="M177.477 221.302C178.312 221.302 178.988 221.028 178.988 220.691C178.988 220.353 178.312 220.079 177.477 220.079C176.643 220.079 175.966 220.353 175.966 220.691C175.966 221.028 176.643 221.302 177.477 221.302Z" fill="#232323"/>
<path d="M188.775 216.816C189.609 216.816 190.286 216.542 190.286 216.204C190.286 215.867 189.609 215.593 188.775 215.593C187.94 215.593 187.264 215.867 187.264 216.204C187.264 216.542 187.94 216.816 188.775 216.816Z" fill="#232323"/>
<path d="M197.854 213.37C198.688 213.37 199.365 213.096 199.365 212.758C199.365 212.42 198.688 212.146 197.854 212.146C197.019 212.146 196.343 212.42 196.343 212.758C196.343 213.096 197.019 213.37 197.854 213.37Z" fill="#232323"/>
<path d="M207.02 209.822C207.855 209.822 208.531 209.549 208.531 209.211C208.531 208.873 207.855 208.599 207.02 208.599C206.186 208.599 205.509 208.873 205.509 209.211C205.509 209.549 206.186 209.822 207.02 209.822Z" fill="#232323"/>
<path d="M180.772 227.825C180.338 227.825 179.891 227.752 179.445 227.606C178.719 227.367 178.044 226.936 177.494 226.358C177.412 226.272 177.367 226.157 177.37 226.038C177.373 225.92 177.422 225.807 177.508 225.724C177.594 225.642 177.709 225.598 177.828 225.601C177.947 225.603 178.06 225.653 178.142 225.739C178.591 226.21 179.138 226.561 179.725 226.754C180.669 227.064 181.607 226.955 182.298 226.454C182.931 225.996 183.28 225.253 183.28 224.363C183.28 222.41 181.519 220.631 179.585 220.631C179.115 220.631 178.684 220.74 178.303 220.954C178.251 220.983 178.195 221.002 178.136 221.009C178.078 221.016 178.019 221.011 177.962 220.995C177.905 220.979 177.852 220.952 177.806 220.916C177.76 220.879 177.721 220.834 177.692 220.783C177.663 220.732 177.645 220.675 177.638 220.617C177.631 220.558 177.636 220.499 177.652 220.442C177.667 220.385 177.694 220.332 177.731 220.286C177.767 220.24 177.812 220.201 177.864 220.172C178.38 219.882 178.959 219.734 179.585 219.734C182.031 219.734 184.177 221.897 184.177 224.362C184.177 225.548 183.696 226.549 182.824 227.181C182.236 227.607 181.524 227.825 180.772 227.825ZM191.984 223.234C191.551 223.234 191.103 223.162 190.657 223.015C189.931 222.776 189.256 222.345 188.706 221.768C188.626 221.682 188.583 221.567 188.587 221.45C188.59 221.332 188.64 221.22 188.725 221.139C188.81 221.058 188.924 221.013 189.042 221.015C189.16 221.017 189.272 221.065 189.354 221.149C189.803 221.62 190.351 221.97 190.937 222.163C191.881 222.474 192.819 222.365 193.51 221.864C194.143 221.405 194.492 220.663 194.492 219.772C194.492 217.82 192.731 216.041 190.797 216.041C190.327 216.041 189.896 216.15 189.515 216.364C189.464 216.394 189.407 216.413 189.348 216.421C189.289 216.429 189.229 216.425 189.172 216.409C189.115 216.393 189.061 216.367 189.014 216.33C188.967 216.294 188.928 216.248 188.899 216.196C188.87 216.144 188.851 216.087 188.844 216.028C188.838 215.969 188.843 215.909 188.859 215.852C188.875 215.795 188.903 215.742 188.94 215.695C188.978 215.649 189.024 215.611 189.076 215.582C189.592 215.292 190.171 215.144 190.797 215.144C193.243 215.144 195.389 217.307 195.389 219.772C195.389 220.958 194.908 221.959 194.036 222.59C193.448 223.016 192.737 223.234 191.984 223.234ZM200.916 219.788C200.482 219.788 200.035 219.716 199.589 219.569C198.863 219.33 198.188 218.899 197.638 218.322C197.597 218.279 197.565 218.229 197.544 218.174C197.523 218.119 197.512 218.061 197.514 218.002C197.515 217.943 197.528 217.885 197.552 217.831C197.576 217.777 197.61 217.728 197.652 217.688C197.695 217.647 197.745 217.615 197.8 217.594C197.855 217.573 197.913 217.563 197.972 217.564C198.031 217.565 198.089 217.578 198.143 217.602C198.197 217.626 198.245 217.66 198.286 217.703C198.735 218.173 199.282 218.524 199.869 218.717C200.812 219.027 201.751 218.918 202.442 218.417C203.075 217.959 203.424 217.216 203.424 216.326C203.424 214.373 201.663 212.595 199.729 212.595C199.259 212.595 198.828 212.703 198.447 212.918C198.395 212.946 198.339 212.965 198.28 212.972C198.222 212.979 198.163 212.974 198.106 212.958C198.049 212.942 197.996 212.915 197.95 212.879C197.904 212.843 197.865 212.798 197.836 212.746C197.807 212.695 197.789 212.638 197.782 212.58C197.775 212.521 197.78 212.462 197.795 212.405C197.811 212.349 197.838 212.296 197.875 212.249C197.911 212.203 197.956 212.164 198.007 212.136C198.524 211.845 199.103 211.698 199.729 211.698C202.175 211.698 204.32 213.86 204.32 216.326C204.32 217.511 203.84 218.512 202.968 219.144C202.379 219.57 201.669 219.788 200.916 219.788ZM209.785 216.341C209.351 216.341 208.904 216.269 208.457 216.122C207.732 215.884 207.057 215.453 206.506 214.875C206.466 214.833 206.434 214.783 206.413 214.728C206.391 214.673 206.381 214.614 206.383 214.555C206.384 214.496 206.397 214.438 206.421 214.385C206.444 214.331 206.479 214.282 206.521 214.241C206.564 214.201 206.614 214.169 206.669 214.148C206.724 214.126 206.782 214.116 206.841 214.117C206.9 214.119 206.958 214.132 207.012 214.156C207.066 214.179 207.114 214.214 207.155 214.256C207.604 214.727 208.151 215.078 208.737 215.271C209.681 215.581 210.619 215.472 211.311 214.971C211.944 214.513 212.293 213.77 212.293 212.88C212.293 210.927 210.531 209.148 208.598 209.148C208.128 209.148 207.697 209.257 207.315 209.471C207.212 209.529 207.089 209.544 206.975 209.512C206.86 209.48 206.763 209.403 206.705 209.3C206.647 209.196 206.632 209.074 206.664 208.959C206.696 208.845 206.773 208.747 206.876 208.689C207.393 208.399 207.972 208.251 208.598 208.251C211.044 208.251 213.189 210.414 213.189 212.879C213.189 214.065 212.709 215.066 211.837 215.697C211.248 216.123 210.537 216.341 209.785 216.341Z" fill="#232323"/>
<path d="M150.456 118.447C166.356 107.739 198.144 147.68 201.314 175.928C199.667 168.308 160.739 175.769 148.847 181.442C137.862 153.265 141.359 124.573 150.456 118.447Z" fill="#6738DD"/>
<path d="M161.719 163.363C161.619 163.363 161.521 163.329 161.442 163.268C161.363 163.206 161.308 163.119 161.284 163.021C159.649 156.349 151.505 139.343 151.423 139.172C151.397 139.118 151.382 139.061 151.378 139.001C151.374 138.942 151.382 138.883 151.401 138.827C151.421 138.771 151.451 138.719 151.49 138.675C151.53 138.631 151.578 138.595 151.631 138.569C151.685 138.543 151.742 138.529 151.802 138.525C151.861 138.522 151.92 138.531 151.976 138.551C152.032 138.571 152.083 138.602 152.127 138.641C152.171 138.681 152.206 138.73 152.231 138.783C152.568 139.485 160.498 156.045 162.155 162.808C162.171 162.874 162.172 162.943 162.157 163.009C162.143 163.076 162.114 163.138 162.072 163.192C162.03 163.245 161.976 163.289 161.915 163.318C161.854 163.348 161.787 163.363 161.719 163.363Z" fill="white"/>
<path d="M92.368 179.383C77.4825 167.005 44.5679 155.979 42.3889 162.323C39.7242 170.08 92.368 179.383 92.368 179.383Z" fill="#1F1F1F"/>
<path d="M105.306 118.339C92.3585 104.2 52.095 135.569 42.3921 162.286C45.7796 155.264 81.8733 171.65 92.1032 179.954C109.387 155.14 112.713 126.428 105.306 118.339Z" fill="#F94F46"/>
<path d="M91.7472 180.044C91.6817 180.044 91.6174 180.027 91.5607 179.994C91.504 179.961 91.4569 179.914 91.4242 179.858C91.3914 179.801 91.3741 179.736 91.374 179.671C91.3739 179.605 91.3911 179.541 91.4237 179.484C98.9253 166.443 103.46 154.719 104.537 145.58C104.542 145.532 104.557 145.484 104.581 145.442C104.605 145.399 104.638 145.361 104.676 145.331C104.715 145.3 104.759 145.278 104.806 145.265C104.853 145.251 104.902 145.247 104.951 145.253C105 145.259 105.047 145.274 105.09 145.298C105.133 145.322 105.17 145.354 105.201 145.393C105.231 145.431 105.253 145.475 105.267 145.523C105.28 145.57 105.284 145.619 105.278 145.668C104.174 155.039 99.7306 166.542 92.0711 179.857C92.0384 179.914 91.9912 179.961 91.9343 179.994C91.8774 180.027 91.8129 180.044 91.7472 180.044Z" fill="#FCB6B1"/>
<path d="M194.812 198.641C187.267 204.147 175.64 200.165 171.222 196.279C163.624 189.721 162.776 173.101 156.854 143.157C154.133 129.393 148.362 120.635 147.11 118.21C145.095 114.306 143.503 111.298 146.794 110.878C146.794 110.878 144.591 106.099 149.128 105.888C149.128 105.888 147.144 101.983 151.204 101.466C151.416 99.7466 150.529 97.1284 149.785 95.7101C147.548 91.4561 148.383 89.2652 152.784 92.5716C159.705 97.7702 172.811 114.528 179.125 124.971C203.007 164.467 208.836 188.408 194.812 198.641Z" fill="white"/>
<path d="M185.818 201.799C184.351 201.799 182.97 201.641 181.765 201.423C177.66 200.684 173.405 198.797 170.925 196.616C165.056 191.55 163.153 180.71 160.001 162.752C158.994 157.017 157.853 150.516 156.415 143.244C154.076 131.416 149.439 123.25 147.459 119.763C147.138 119.198 146.885 118.752 146.712 118.416L146.647 118.29C145.129 115.35 143.93 113.028 144.685 111.59C144.959 111.068 145.451 110.72 146.18 110.536C145.894 109.701 145.494 108.054 146.234 106.835C146.675 106.109 147.431 105.661 148.486 105.5C148.24 104.788 147.969 103.564 148.508 102.545C148.913 101.78 149.678 101.288 150.784 101.078C150.839 99.5569 150.135 97.343 149.388 95.9179C148.61 94.4386 147.477 91.8094 148.63 90.8266C149.432 90.1437 150.92 90.6105 153.053 92.2125C156.29 94.6446 161.077 99.7268 166.531 106.523C171.519 112.738 176.37 119.548 179.509 124.739C191.733 144.955 198.965 160.638 201.62 172.683C202.977 178.837 203.129 184.15 202.071 188.473C200.998 192.856 198.645 196.399 195.076 199.003C192.142 201.145 188.803 201.799 185.818 201.799ZM149.543 91.4152C149.392 91.4152 149.282 91.4498 149.212 91.5098C148.942 91.7396 148.798 92.8694 150.182 95.5012C150.901 96.8723 151.885 99.6063 151.648 101.52C151.636 101.619 151.591 101.711 151.521 101.782C151.451 101.853 151.359 101.898 151.26 101.91C150.264 102.037 149.606 102.391 149.302 102.962C148.721 104.056 149.52 105.669 149.528 105.685C149.562 105.752 149.578 105.826 149.576 105.901C149.573 105.976 149.552 106.049 149.515 106.113C149.477 106.178 149.424 106.232 149.36 106.271C149.296 106.31 149.224 106.332 149.149 106.336C148.083 106.385 147.36 106.71 147.001 107.3C146.237 108.553 147.191 110.669 147.201 110.69C147.23 110.754 147.244 110.824 147.241 110.895C147.238 110.965 147.219 111.033 147.185 111.095C147.151 111.157 147.103 111.209 147.045 111.249C146.987 111.288 146.92 111.313 146.85 111.322C146.12 111.416 145.671 111.64 145.478 112.008C144.941 113.032 146.156 115.386 147.443 117.879L147.508 118.005C147.673 118.325 147.923 118.764 148.238 119.32C150.24 122.845 154.927 131.1 157.294 143.07C158.734 150.352 159.876 156.857 160.883 162.597C164.002 180.359 165.884 191.08 171.514 195.939C173.883 198.023 177.968 199.828 181.923 200.541C188.237 201.678 192.273 199.939 194.548 198.279C201.386 193.289 203.413 184.98 200.745 172.876C198.111 160.929 190.914 145.335 178.741 125.203C171.026 112.444 158.085 97.1149 152.514 92.9303C151.014 91.8028 150.048 91.4152 149.543 91.4152Z" fill="#232323"/>
<path d="M152.267 115.375C152.192 115.376 152.117 115.356 152.05 115.32C151.984 115.283 151.928 115.23 151.887 115.165C150.529 113 147.985 111.395 146.461 111.254C146.342 111.243 146.233 111.186 146.157 111.094C146.081 111.003 146.045 110.885 146.056 110.766C146.067 110.648 146.124 110.539 146.215 110.463C146.307 110.387 146.425 110.35 146.543 110.361C148.765 110.566 151.441 112.767 152.647 114.689C152.689 114.756 152.713 114.834 152.715 114.915C152.717 114.995 152.698 115.074 152.66 115.144C152.621 115.214 152.564 115.272 152.495 115.313C152.426 115.354 152.348 115.375 152.267 115.375ZM154.643 110.691C154.464 110.691 154.294 110.582 154.225 110.404C153.96 109.718 153.019 108.651 151.882 107.751C150.722 106.831 149.603 106.278 149.029 106.34C148.911 106.353 148.793 106.318 148.7 106.243C148.608 106.169 148.548 106.061 148.535 105.943C148.522 105.825 148.557 105.706 148.631 105.614C148.706 105.521 148.814 105.461 148.932 105.449C150.111 105.321 151.778 106.524 152.439 107.048C153.45 107.849 154.67 109.067 155.061 110.081C155.088 110.149 155.097 110.223 155.088 110.295C155.08 110.367 155.054 110.436 155.013 110.497C154.972 110.557 154.917 110.606 154.852 110.64C154.788 110.674 154.716 110.691 154.643 110.691ZM155.959 104.463C155.897 104.463 155.836 104.45 155.779 104.425C155.723 104.401 155.672 104.365 155.63 104.319C154.477 103.077 152.097 102.03 151.297 101.958C151.178 101.947 151.069 101.889 150.993 101.798C150.917 101.707 150.88 101.589 150.891 101.47C150.913 101.224 151.13 101.045 151.378 101.064C152.432 101.16 155.015 102.338 156.287 103.709C156.327 103.752 156.358 103.803 156.379 103.858C156.399 103.913 156.409 103.972 156.407 104.031C156.404 104.089 156.391 104.147 156.366 104.201C156.342 104.254 156.307 104.303 156.264 104.343C156.181 104.42 156.072 104.463 155.959 104.463Z" fill="#232323"/>
<path d="M125.737 171.751L130.1 169.273L148.985 202.542L144.622 205.021L125.737 171.751Z" fill="white"/>
<path d="M129.763 170.496L147.762 202.205L144.958 203.798L126.96 172.088L129.763 170.496ZM130.1 169.273L125.737 171.751L144.622 205.021L148.985 202.542L130.1 169.273ZM148.986 202.542L148.875 205.171L148.786 207.274L146.935 206.273L144.622 205.021L148.986 202.542Z" fill="#232323"/>
<path d="M130.789 170.485L126.426 172.964L125.116 170.655C125.049 170.537 125.006 170.408 124.99 170.275C124.973 170.141 124.983 170.005 125.019 169.875C125.054 169.746 125.115 169.624 125.198 169.518C125.281 169.411 125.384 169.323 125.501 169.256L128.081 167.791C128.198 167.724 128.327 167.681 128.46 167.665C128.594 167.648 128.73 167.658 128.859 167.694C128.989 167.729 129.111 167.79 129.217 167.873C129.323 167.956 129.412 168.059 129.479 168.176L130.789 170.485ZM92.368 179.383C77.4825 167.005 44.5679 155.979 42.3889 162.323C39.7242 170.08 92.368 179.383 92.368 179.383Z" fill="#232323"/>
<path d="M147.292 191.51C148.883 194.239 148.246 197.517 145.637 200.661C140.549 206.794 125.588 211.512 114.232 214.199C92.0176 218.467 64.3589 223.382 48.3109 209.809C37.4638 199.661 42.0348 179.678 45.5009 169.114C46.4538 165.437 48.5498 161.059 49.4488 159.257C62.1479 159.593 83.7364 171.532 92.0176 179.727C92.0264 179.736 92.0338 179.744 92.0426 179.752C92.0514 179.761 92.0607 179.77 92.0695 179.778L92.0741 179.783C92.0746 179.785 92.076 179.784 92.0765 179.786L90.5913 182.268C90.5913 182.268 104.735 185.123 113.881 183.838C117.181 183.325 120.538 182.598 122.593 180.129C124.851 177.415 125.648 172.942 125.714 172.409C125.809 171.642 126.276 171.768 126.276 171.768L129.297 177.131C129.297 177.131 129.706 181.442 131.158 182.918C133.529 182.492 135.998 179.142 138.16 177.761C139.596 176.844 142.937 177.525 143.38 181.458C143.38 181.458 145.856 182.877 145.496 186.747C146.333 187.425 147.348 188.674 147.292 191.51Z" fill="white"/>
<path d="M78.4497 219.144C65.1301 219.144 55.1739 216.201 48.0215 210.151C48.0157 210.146 48.0102 210.141 48.0048 210.136C37.068 199.905 41.4693 179.97 45.0707 168.988C45.995 165.43 47.9587 161.24 49.0478 159.057C49.0856 158.98 49.1447 158.916 49.2179 158.872C49.2911 158.828 49.3754 158.806 49.4608 158.809C55.3193 158.964 63.5341 161.569 72.5921 166.144C80.5753 170.177 88.1371 175.258 92.329 179.405C92.3377 179.413 92.3459 179.421 92.3541 179.43L92.3704 179.446C92.3789 179.454 92.3874 179.462 92.3957 179.471C92.4655 179.541 92.5097 179.633 92.5216 179.732C92.5334 179.831 92.5122 179.931 92.4611 180.016L91.3054 181.948C94.1353 182.473 105.936 184.501 113.818 183.394C116.997 182.899 120.272 182.217 122.249 179.841C124.563 177.059 125.264 172.399 125.269 172.354C125.321 171.93 125.479 171.628 125.737 171.454C125.968 171.298 126.228 171.29 126.393 171.334C126.509 171.366 126.608 171.442 126.667 171.547L129.688 176.911C129.719 176.965 129.738 177.026 129.744 177.088C129.848 178.187 130.329 181.17 131.319 182.422C132.609 182.072 133.992 180.788 135.331 179.544C136.23 178.708 137.079 177.919 137.919 177.383C138.793 176.825 140.13 176.809 141.247 177.342C142.062 177.731 143.454 178.744 143.799 181.198C144.408 181.636 146.186 183.213 145.962 186.554C147.179 187.639 147.763 189.226 147.743 191.394C149.346 194.256 148.723 197.644 145.982 200.948C140.413 207.66 123.764 212.405 114.335 214.636C114.329 214.637 114.323 214.639 114.316 214.64C102.152 216.976 90.2951 219.079 78.9617 219.143C78.7908 219.144 78.6193 219.144 78.4497 219.144ZM48.6087 209.474C55.6815 215.451 65.611 218.327 78.9564 218.246C90.2106 218.183 102.02 216.089 114.138 213.761C118.86 212.643 125.81 210.79 132.121 208.305C138.617 205.747 143.048 203.079 145.291 200.375C147.81 197.34 148.383 194.272 146.905 191.736C146.864 191.664 146.843 191.583 146.844 191.501C146.898 188.779 145.94 187.683 145.214 187.095C145.157 187.049 145.112 186.989 145.083 186.921C145.055 186.853 145.043 186.779 145.05 186.705C145.377 183.193 143.246 181.899 143.155 181.845C143.094 181.81 143.043 181.761 143.005 181.702C142.966 181.643 142.942 181.577 142.934 181.507C142.753 179.895 142.017 178.703 140.861 178.151C139.886 177.686 138.902 177.819 138.401 178.139C137.629 178.632 136.809 179.394 135.94 180.201C134.423 181.611 132.854 183.068 131.237 183.359C131.165 183.372 131.092 183.367 131.022 183.345C130.953 183.323 130.89 183.284 130.838 183.232C129.401 181.77 128.933 177.944 128.861 177.27L126.157 172.47C126.029 173.495 125.114 177.799 122.937 180.415C120.761 183.031 117.304 183.759 113.949 184.281C104.826 185.562 90.6445 182.736 90.5023 182.707C90.432 182.693 90.366 182.662 90.3101 182.617C90.2541 182.572 90.2098 182.515 90.1808 182.449C90.1518 182.383 90.139 182.312 90.1435 182.24C90.1479 182.168 90.1695 182.099 90.2065 182.037L91.5105 179.858C87.34 175.803 79.9724 170.877 72.1876 166.945C63.3929 162.502 55.4321 159.941 49.7218 159.715C48.6272 161.929 46.8021 165.879 45.9346 169.227C45.9322 169.236 45.9295 169.245 45.9266 169.254C42.392 180.027 38.0408 199.576 48.6087 209.474Z" fill="#232323"/>
<path d="M91.0951 182.883C91.0642 182.883 91.0327 182.88 91.0012 182.873C85.5881 181.718 79.3296 181.331 73.8306 181.812C73.5849 181.836 73.3666 181.652 73.345 181.405C73.3346 181.286 73.3717 181.169 73.4481 181.078C73.5245 180.986 73.634 180.929 73.7524 180.919C79.336 180.43 85.6915 180.823 91.1882 181.996C91.2967 182.019 91.3927 182.081 91.4579 182.171C91.5231 182.26 91.5528 182.371 91.5412 182.481C91.5297 182.591 91.4777 182.694 91.3953 182.768C91.3129 182.842 91.206 182.883 91.0951 182.883ZM138.994 186.929C138.899 186.929 138.807 186.899 138.73 186.843C138.654 186.788 138.597 186.709 138.567 186.619C138.538 186.529 138.538 186.432 138.567 186.342C138.596 186.252 138.654 186.173 138.73 186.118C139.861 185.296 142.519 183.142 142.769 180.889C142.775 180.829 142.792 180.771 142.82 180.719C142.848 180.666 142.886 180.619 142.932 180.582C142.978 180.544 143.031 180.516 143.089 180.499C143.146 180.482 143.206 180.476 143.265 180.483C143.324 180.49 143.382 180.508 143.434 180.537C143.486 180.566 143.532 180.605 143.569 180.652C143.605 180.699 143.632 180.753 143.648 180.811C143.664 180.868 143.668 180.928 143.66 180.988C143.54 182.067 142.809 184.263 139.257 186.843C139.181 186.899 139.089 186.929 138.994 186.929ZM141.279 191.902C141.176 191.902 141.076 191.867 140.996 191.802C140.916 191.737 140.861 191.646 140.84 191.546C140.819 191.445 140.833 191.34 140.88 191.248C140.927 191.157 141.005 191.084 141.099 191.043C142.215 190.554 144.65 188.754 145.048 186.312C145.067 186.194 145.132 186.089 145.229 186.02C145.325 185.95 145.445 185.922 145.563 185.941C145.68 185.96 145.785 186.025 145.854 186.122C145.924 186.218 145.952 186.339 145.933 186.456C145.492 189.162 142.954 191.209 141.458 191.864C141.402 191.889 141.341 191.902 141.279 191.902ZM143.538 196.668C143.436 196.668 143.337 196.634 143.258 196.57C143.178 196.506 143.123 196.418 143.1 196.318C143.078 196.219 143.09 196.115 143.134 196.023C143.179 195.932 143.253 195.858 143.345 195.814C145.061 194.998 146.754 192.716 146.829 191.119C146.84 190.872 147.05 190.686 147.298 190.692C147.357 190.695 147.414 190.709 147.468 190.735C147.521 190.76 147.569 190.795 147.608 190.838C147.648 190.882 147.679 190.933 147.699 190.988C147.718 191.044 147.727 191.103 147.725 191.161C147.634 193.103 145.767 195.655 143.73 196.624C143.67 196.653 143.604 196.668 143.538 196.668Z" fill="#232323"/>
<path d="M105.306 118.339C92.3585 104.2 52.095 135.569 42.3921 162.286C45.7796 155.264 81.8733 171.65 92.1032 179.954C109.387 155.14 112.713 126.428 105.306 118.339Z" fill="#6738DD"/>
<path d="M91.7471 180.119C91.6685 180.119 91.5913 180.098 91.5233 180.059C91.4552 180.02 91.3987 179.963 91.3594 179.895C91.3201 179.827 91.2994 179.75 91.2993 179.671C91.2993 179.592 91.3199 179.515 91.3591 179.447C98.8558 166.415 103.387 154.701 104.462 145.572C104.476 145.454 104.537 145.346 104.63 145.272C104.723 145.199 104.842 145.165 104.96 145.179C105.019 145.186 105.075 145.204 105.126 145.233C105.178 145.262 105.223 145.3 105.259 145.346C105.296 145.393 105.323 145.446 105.339 145.502C105.355 145.559 105.36 145.618 105.353 145.677C104.248 155.058 99.8008 166.57 92.1362 179.894C92.0969 179.963 92.0402 180.02 91.9719 180.059C91.9036 180.099 91.826 180.119 91.7471 180.119Z" fill="white"/>
<path d="M120.479 139.105C118.203 139.105 115.905 136.796 113.457 132.047C110.712 126.724 107.308 118.293 106.005 114.501C105.985 114.445 105.976 114.386 105.979 114.326C105.982 114.267 105.997 114.209 106.022 114.155C106.048 114.101 106.084 114.053 106.128 114.013C106.173 113.974 106.225 113.943 106.281 113.924C106.337 113.905 106.397 113.897 106.456 113.901C106.516 113.905 106.574 113.92 106.627 113.947C106.68 113.973 106.728 114.01 106.766 114.055C106.805 114.101 106.835 114.153 106.853 114.21C108.147 117.977 111.527 126.35 114.253 131.636C116.503 135.997 118.597 138.209 120.48 138.209L120.52 138.208C123.361 138.161 125.747 133.132 127.852 128.695C128.204 127.952 128.537 127.25 128.875 126.562C128.93 126.459 129.022 126.381 129.133 126.345C129.244 126.309 129.365 126.318 129.469 126.369C129.574 126.421 129.655 126.511 129.694 126.621C129.733 126.731 129.728 126.852 129.68 126.958C129.344 127.64 129.013 128.339 128.662 129.079C126.336 133.981 123.932 139.049 120.535 139.105C120.516 139.105 120.497 139.105 120.479 139.105Z" fill="white"/>
<path d="M139.237 137.575C136.763 137.575 133.398 134.052 129.217 127.081C129.186 127.03 129.165 126.974 129.156 126.916C129.147 126.857 129.149 126.797 129.163 126.74C129.177 126.682 129.203 126.628 129.238 126.58C129.273 126.532 129.317 126.492 129.368 126.462C129.419 126.431 129.475 126.411 129.534 126.402C129.592 126.394 129.652 126.397 129.709 126.412C129.767 126.426 129.821 126.452 129.868 126.488C129.915 126.523 129.955 126.568 129.985 126.619C135.661 136.082 138.475 136.948 139.649 136.624C141.008 136.247 141.853 133.758 141.853 130.127C141.853 127.365 141.315 118.76 140.046 114.836C140.028 114.78 140.021 114.721 140.026 114.663C140.031 114.604 140.047 114.547 140.074 114.494C140.101 114.442 140.137 114.395 140.182 114.357C140.227 114.319 140.279 114.29 140.335 114.272C140.391 114.254 140.45 114.247 140.509 114.251C140.567 114.256 140.625 114.272 140.677 114.299C140.729 114.326 140.776 114.363 140.814 114.408C140.852 114.452 140.881 114.504 140.899 114.56C142.199 118.578 142.749 127.324 142.749 130.127C142.749 131.961 142.539 133.576 142.141 134.8C141.652 136.305 140.894 137.21 139.888 137.488C139.676 137.546 139.457 137.576 139.237 137.575Z" fill="white"/>
<path d="M134.481 148.535C133.405 148.535 132.54 148.271 131.855 147.738C130.103 146.372 129.804 143.38 129.488 140.211C128.849 133.795 129.002 126.76 129.003 126.69C129.009 126.443 129.217 126.244 129.462 126.252C129.581 126.255 129.694 126.305 129.776 126.391C129.858 126.477 129.902 126.592 129.9 126.711C129.898 126.78 129.747 133.762 130.381 140.122C130.729 143.613 131.058 145.98 132.406 147.03C133.125 147.589 134.154 147.76 135.55 147.552C135.667 147.536 135.785 147.568 135.878 147.638C135.972 147.709 136.034 147.814 136.052 147.93C136.069 148.046 136.04 148.165 135.971 148.26C135.902 148.355 135.799 148.419 135.683 148.438C135.256 148.503 134.855 148.535 134.481 148.535Z" fill="white"/>
<path d="M131.765 134.611C132.147 134.611 132.457 134.3 132.457 133.918C132.457 133.535 132.147 133.224 131.765 133.224C131.382 133.224 131.072 133.535 131.072 133.918C131.072 134.3 131.382 134.611 131.765 134.611Z" fill="white"/>
<path d="M132.482 142.488C132.865 142.488 133.175 142.177 133.175 141.795C133.175 141.412 132.865 141.101 132.482 141.101C132.099 141.101 131.789 141.412 131.789 141.795C131.789 142.177 132.099 142.488 132.482 142.488Z" fill="white"/>
</g>
<g clip-path="url(#clip3_985_3724)">
<path d="M193.882 52.668C195.01 52.668 195.924 51.7391 195.924 50.5932C195.924 49.4473 195.01 48.5184 193.882 48.5184C192.754 48.5184 191.839 49.4473 191.839 50.5932C191.839 51.7391 192.754 52.668 193.882 52.668Z" fill="#232323"/>
<path d="M201.681 52.668C202.809 52.668 203.724 51.7391 203.724 50.5932C203.724 49.4473 202.809 48.5184 201.681 48.5184C200.554 48.5184 199.639 49.4473 199.639 50.5932C199.639 51.7391 200.554 52.668 201.681 52.668Z" fill="#232323"/>
<path d="M209.481 52.668C210.609 52.668 211.523 51.7391 211.523 50.5932C211.523 49.4473 210.609 48.5184 209.481 48.5184C208.353 48.5184 207.439 49.4473 207.439 50.5932C207.439 51.7391 208.353 52.668 209.481 52.668Z" fill="#232323"/>
</g>
</g>
<defs>
<clipPath id="clip0_985_3724">
<rect width="266" height="266" fill="white"/>
</clipPath>
<clipPath id="clip1_985_3724">
<rect width="70.3304" height="59.584" fill="white" transform="translate(161.09 27.132)"/>
</clipPath>
<clipPath id="clip2_985_3724">
<rect width="177.582" height="171.517" fill="white" transform="translate(41.0703 59.1584)"/>
</clipPath>
<clipPath id="clip3_985_3724">
<rect width="19.684" height="4.1496" fill="white" transform="translate(191.839 48.5184)"/>
</clipPath>
</defs>
</svg>
