<svg width="24" height="24" viewBox="0 0 24 24" fill="none" xmlns="http://www.w3.org/2000/svg">
<g id="icons8-mode-d&#195;&#169;veloppeur">
<path id="Vector" opacity="0.35" d="M19 4C19 2.343 17.657 1 16 1H8C6.343 1 5 2.343 5 4V20C5 21.657 6.343 23 8 23H16C17.657 23 19 21.657 19 20V4Z" fill="#5627CD"/>
<path id="Vector_2" d="M14 19C13.814 19 10.186 19 10 19C9.448 19 9 19.448 9 20C9 20.552 9.448 21 10 21C10.186 21 13.814 21 14 21C14.552 21 15 20.552 15 20C15 19.448 14.552 19 14 19Z" fill="#5627CD"/>
<path id="Vector_3" d="M7.5 15.9999C7.078 15.9999 6.657 15.8219 6.361 15.4759L3.361 11.9759C2.879 11.4139 2.879 10.5849 3.361 10.0239L6.361 6.52389C6.901 5.89389 7.848 5.82289 8.476 6.36089C9.105 6.89989 9.178 7.84689 8.639 8.47589L6.476 10.9999L8.639 13.5239C9.179 14.1529 9.105 15.0999 8.476 15.6389C8.193 15.8809 7.846 15.9999 7.5 15.9999Z" fill="#5627CD"/>
<path id="Vector_4" d="M16.5 16.0001C16.154 16.0001 15.807 15.8811 15.524 15.6391C14.895 15.1001 14.822 14.1531 15.361 13.5241L17.524 11.0001L15.361 8.47605C14.821 7.84705 14.895 6.90005 15.524 6.36105C16.152 5.82205 17.1 5.89405 17.639 6.52405L20.639 10.0241C21.121 10.5861 21.121 11.4151 20.639 11.9761L17.639 15.4761C17.342 15.8221 16.922 16.0001 16.5 16.0001Z" fill="#5627CD"/>
</g>
</svg>
