<svg width="300" height="300" viewBox="0 0 300 300" fill="none" xmlns="http://www.w3.org/2000/svg">
<g clip-path="url(#clip0_1395_6382)">
<path d="M157.92 274.92C164.348 274.92 169.56 273.846 169.56 272.52C169.56 271.195 164.348 270.12 157.92 270.12C151.491 270.12 146.28 271.195 146.28 272.52C146.28 273.846 151.491 274.92 157.92 274.92Z" fill="#070707"/>
</g>
<g clip-path="url(#clip1_1395_6382)">
<path d="M191.672 233.242C172.144 225.895 156.251 224.777 151.961 231.331C150.78 233.136 150.577 235.529 151.856 237.562C155.25 242.958 170.485 240.487 191.672 233.242Z" fill="#070707"/>
<path d="M195.136 229.788C195.063 230.251 194.987 230.713 194.907 231.174L194.906 231.175C194.333 234.509 193.395 239.042 192.376 243.569C191.351 248.133 190.243 252.69 189.339 256.006L178.456 255.077C178.456 255.077 171.254 251.247 170.037 248.955C170.296 242.725 170.307 235.808 169.928 229.636C169.823 227.91 169.729 226.979 169.729 226.979C169.729 226.979 186.878 227 195.137 229.788L195.136 229.788Z" fill="white"/>
<path d="M192.376 243.569C192.151 244.571 191.922 245.571 191.69 246.571C191.585 247.018 191.481 247.463 191.376 247.904C190.663 250.92 189.954 253.751 189.339 256.006L178.455 255.077L170.036 248.956C170.078 247.959 170.112 246.99 170.138 246.048C170.151 245.589 170.163 245.136 170.171 244.691C170.197 243.599 170.212 242.506 170.219 241.414L192.376 243.57V243.569Z" fill="#E7DEFF"/>
<path d="M191.69 246.571C191.585 247.018 191.481 247.463 191.376 247.904L170.138 246.048C170.151 245.588 170.163 245.135 170.171 244.69L191.69 246.571Z" fill="white"/>
<path d="M189.339 256.321C189.33 256.321 189.321 256.32 189.312 256.32L178.429 255.39C178.386 255.387 178.345 255.375 178.308 255.355C178.01 255.196 171.007 251.453 169.759 249.102C169.733 249.053 169.72 248.997 169.722 248.942C170.002 242.206 169.963 235.356 169.613 229.655C169.51 227.957 169.416 227.02 169.415 227.01C169.406 226.922 169.435 226.834 169.495 226.768C169.555 226.702 169.639 226.664 169.728 226.664H169.729C169.772 226.664 174.087 226.674 179.356 227.024C184.229 227.348 190.939 228.039 195.237 229.49C195.307 229.514 195.367 229.561 195.406 229.625C195.444 229.688 195.459 229.763 195.447 229.837C195.374 230.301 195.297 230.765 195.217 231.228C195.216 231.234 195.215 231.24 195.213 231.245C194.668 234.413 193.77 238.813 192.683 243.638C191.628 248.335 190.52 252.873 189.643 256.089C189.624 256.156 189.585 256.214 189.53 256.256C189.475 256.298 189.408 256.321 189.339 256.321V256.321ZM178.547 254.769L189.104 255.67C189.967 252.48 191.043 248.066 192.069 243.5C193.155 238.676 194.053 234.28 194.595 231.122C194.597 231.116 194.598 231.11 194.599 231.104C194.663 230.738 194.724 230.37 194.784 230.003C191.415 228.914 186.079 228.102 179.318 227.652C174.925 227.36 171.197 227.306 170.074 227.296C170.111 227.716 170.174 228.505 170.242 229.617C170.592 235.314 170.632 242.151 170.355 248.88C171.566 250.966 177.881 254.41 178.547 254.769L178.547 254.769Z" fill="#070707"/>
<path d="M213.917 270.238C212.686 271.639 210.132 273.562 204.872 273.903C195.178 274.533 166.023 273.412 166.023 273.412C166.658 270.255 167.071 268.199 167.407 266.38C167.396 266.389 167.383 266.4 167.371 266.41C169.923 249.71 170.241 247.277 170.278 247.278C173.847 247.627 175.171 250.882 178.284 251.975C180.679 252.823 185.921 253.695 189.675 254.211C198.932 255.481 208.664 260.712 213.199 268.762C213.422 269.162 213.73 269.759 213.895 270.181V270.183C213.904 270.201 213.911 270.226 213.917 270.238Z" fill="white"/>
<path d="M196.255 274.408C183.928 274.408 166.239 273.734 166.011 273.725C165.966 273.724 165.921 273.712 165.88 273.691C165.84 273.671 165.804 273.641 165.776 273.606C165.748 273.57 165.728 273.528 165.717 273.484C165.707 273.44 165.706 273.394 165.715 273.349C166.356 270.162 166.743 268.234 167.067 266.491C167.055 266.449 167.053 266.405 167.059 266.362C168.463 257.181 169.182 252.372 169.568 249.789C169.722 248.756 169.818 248.115 169.877 247.734C169.907 247.539 169.928 247.411 169.942 247.331C169.962 247.22 170.009 246.963 170.276 246.963C170.287 246.963 170.298 246.963 170.309 246.964C172.431 247.172 173.8 248.36 175.123 249.51C176.093 250.352 177.096 251.224 178.388 251.677C181.237 252.686 187.78 253.632 189.718 253.898C194.501 254.555 199.221 256.206 203.369 258.673C207.804 261.312 211.299 264.747 213.473 268.607C213.708 269.028 214.019 269.632 214.189 270.066C214.19 270.07 214.191 270.074 214.193 270.077C214.197 270.089 214.202 270.101 214.206 270.113C214.256 270.225 214.234 270.353 214.153 270.446C211.711 273.224 207.769 274.03 204.892 274.217C202.781 274.354 199.73 274.408 196.255 274.408L196.255 274.408ZM166.405 273.11C169.823 273.237 195.874 274.172 204.851 273.589C207.559 273.413 211.242 272.675 213.552 270.172C213.385 269.777 213.117 269.261 212.924 268.915C208.771 261.544 199.629 255.894 189.632 254.522C187.68 254.254 181.083 253.3 178.178 252.271C176.773 251.778 175.724 250.866 174.71 249.985C173.469 248.907 172.293 247.886 170.531 247.626C170.476 247.969 170.371 248.675 170.19 249.883C169.807 252.45 169.094 257.215 167.708 266.286C167.723 266.334 167.727 266.385 167.717 266.437C167.398 268.163 167.024 270.036 166.405 273.111V273.11Z" fill="#070707"/>
<path d="M212.905 268.258C204.43 274.005 194.706 270.657 189.923 268.539C185.798 266.713 184.369 268.915 180.997 267.758C178.182 266.793 177.339 264.742 173.737 264.238C171.709 263.955 168.905 265.119 167.371 266.409C169.607 251.779 170.265 247.277 170.278 247.277C173.848 247.626 175.172 250.881 178.284 251.974C180.679 252.822 185.921 253.694 189.675 254.21C200.448 255.688 209.208 261.918 212.905 268.258V268.258Z" fill="#070707"/>
<path d="M181.797 255.056C181.768 255.101 181.728 255.139 181.682 255.167C181.636 255.195 181.585 255.213 181.531 255.218C177.366 255.675 177.108 256.579 174.078 258.63C171.006 260.707 168.609 260.444 168.509 260.432C168.027 260.374 168.115 259.645 168.597 259.703C168.632 259.707 170.847 259.929 173.667 258.022C176.678 255.985 177.061 254.97 181.451 254.489C181.521 254.481 181.591 254.493 181.653 254.524C181.716 254.554 181.768 254.602 181.805 254.662C181.841 254.721 181.86 254.79 181.858 254.859C181.857 254.929 181.836 254.997 181.798 255.055L181.797 255.056L181.797 255.056Z" fill="white"/>
<path d="M213.062 268.522C206.012 273.292 197.583 272.267 189.799 268.82C185.75 267.026 184.148 268.995 180.971 267.987C178.037 267.056 177.66 265.09 174.265 264.489C171.082 263.925 167.714 266.346 167.68 266.37C167.353 266.608 166.993 266.114 167.32 265.876C167.466 265.769 170.936 263.278 174.372 263.887C177.934 264.518 178.388 266.525 181.156 267.404C184.094 268.335 185.866 266.409 190.047 268.26C197.672 271.637 205.887 272.647 212.734 268.005C213.074 267.772 213.427 268.304 213.062 268.522L213.062 268.522Z" fill="#070707"/>
<path d="M173.568 271.589C172.608 271.589 171.616 271.377 170.802 270.879C169.608 270.15 169.634 269.34 169.755 268.923C170.069 267.846 171.619 267.082 173.466 267.082C173.506 267.082 173.547 267.082 173.587 267.083C174.611 267.102 175.57 267.353 176.287 267.791C177.006 268.23 177.395 268.803 177.384 269.406C177.372 270.015 176.958 270.574 176.217 270.98C175.525 271.36 174.563 271.589 173.568 271.589ZM173.463 267.712C171.771 267.712 170.561 268.407 170.36 269.098C170.202 269.641 170.692 270.074 171.131 270.342C172.575 271.224 174.738 271.074 175.915 270.428C176.224 270.259 176.745 269.899 176.754 269.394C176.761 269.024 176.479 268.645 175.959 268.328C175.336 267.948 174.49 267.729 173.576 267.712C173.538 267.712 173.501 267.712 173.463 267.712Z" fill="#070707"/>
<path d="M196.279 255.209C196.155 255.395 195.968 255.53 195.752 255.588C190.554 256.99 188.27 261.301 188.248 261.345C188.016 261.796 187.463 261.974 187.013 261.743C186.562 261.512 186.384 260.959 186.615 260.508C186.721 260.302 189.267 255.437 195.276 253.817C196.093 253.596 196.742 254.509 196.279 255.209ZM200.182 257.565C194.859 258.7 192.501 263.031 192.478 263.075C192.24 263.522 191.685 263.693 191.237 263.455C190.79 263.217 190.62 262.662 190.858 262.214C190.97 262.006 193.65 257.082 199.8 255.77C200.601 255.599 201.208 256.491 200.756 257.174C200.756 257.174 200.574 257.482 200.182 257.565ZM204.872 259.438C204.805 259.539 204.719 259.626 204.619 259.693C204.519 259.761 204.406 259.808 204.287 259.832C199.532 260.786 197.387 264.462 197.365 264.499C197.112 264.938 196.551 265.089 196.112 264.836C195.679 264.586 195.526 264.037 195.767 263.599C195.868 263.418 198.319 259.159 203.927 258.033C204.726 257.872 205.32 258.762 204.872 259.438Z" fill="#E7DEFF"/>
<path d="M199.345 209.64C197.427 219.664 195.93 228.644 194.288 236.359C181.603 236.776 154.545 224.961 151.209 232.855C154.988 222.414 158.478 211.87 161.673 201.236C161.656 201.24 161.639 201.245 161.622 201.25C161.369 201.321 161.118 201.392 160.868 201.462C155.751 202.904 150.662 204.447 145.604 206.087C135.19 209.468 129.312 211.843 126.965 212.824C126.792 212.896 126.639 212.96 126.504 213.017C126.455 213.038 126.407 213.059 126.358 213.079C124.785 213.744 123.221 214.429 121.666 215.135C120.356 207.892 119.166 200.628 118.097 193.346C116.936 185.439 115.918 177.512 115.042 169.569C124.192 167.091 182.629 149.553 199.619 171.197C204.74 178.154 203.715 186.794 199.345 209.64L199.345 209.64Z" fill="#682DFE"/>
<path d="M65.9275 232.624C56.4218 250.651 53.3993 267.292 59.2322 272.248C60.8376 273.613 63.1337 274.102 65.261 273.111C70.9075 270.48 70.3689 254.038 65.9275 232.624Z" fill="#070707"/>
<path d="M69.3326 255.839C61.9685 254.825 50.2162 252.433 42.9761 250.665L43.6483 239.766C43.6483 239.766 47.3078 232.479 49.5716 231.208C56.7333 231.781 63.9176 232.025 71.1017 231.942C71.3556 234.616 71.4583 237.304 71.4092 239.99C71.297 246.118 70.4079 251.471 69.3326 255.839Z" fill="white"/>
<path d="M55.4857 253.406C50.8971 252.489 46.3132 251.491 42.9761 250.665L43.6484 239.766L49.5717 231.208C52.071 231.35 54.5697 231.502 57.068 231.661L55.4857 253.406Z" fill="#E7DEFF"/>
<mask id="mask0_1395_6382" style="mask-type:luminance" maskUnits="userSpaceOnUse" x="42" y="231" width="16" height="23">
<path d="M55.4857 253.406C50.8971 252.489 46.3132 251.491 42.9761 250.665L43.6484 239.766L49.5717 231.208C52.1357 231.361 54.7 231.509 57.2645 231.653L55.4857 253.406Z" fill="white"/>
</mask>
<g mask="url(#mask0_1395_6382)">
<path d="M51.3921 253.871C51.2892 253.806 51.2057 253.714 51.1505 253.606C51.0953 253.497 51.0705 253.376 51.0787 253.254L52.5777 229.73C52.6017 229.354 52.9241 229.067 53.2979 229.087C53.6717 229.108 53.9554 229.429 53.9315 229.804L52.4325 253.329C52.4088 253.705 52.0865 253.993 51.7127 253.972C51.5991 253.966 51.4889 253.931 51.3926 253.871L51.3923 253.871L51.3921 253.871Z" fill="white"/>
</g>
<path d="M69.3333 256.154C69.3189 256.154 69.3045 256.153 69.29 256.151C61.8577 255.127 50.0364 252.713 42.9017 250.97C42.83 250.952 42.7667 250.91 42.7229 250.851C42.6792 250.791 42.6577 250.718 42.6622 250.645L43.3344 239.746C43.3369 239.704 43.3482 239.662 43.3673 239.624C43.5184 239.323 47.0966 232.236 49.4178 230.933C49.4722 230.902 49.5347 230.888 49.597 230.894C53.612 231.215 57.69 231.435 61.718 231.549C64.8304 231.637 67.9865 231.663 71.0984 231.626C71.264 231.622 71.4001 231.748 71.4154 231.911C71.6698 234.598 71.7729 237.297 71.7242 239.995C71.6265 245.333 70.9248 250.689 69.6386 255.914C69.6217 255.982 69.5825 256.043 69.5272 256.086C69.4718 256.13 69.4035 256.153 69.3332 256.154L69.3333 256.154ZM43.3068 250.421C50.3591 252.132 61.7577 254.458 69.0946 255.488C70.3267 250.395 70.9996 245.181 71.0949 239.984C71.1414 237.406 71.0481 234.827 70.8156 232.259C67.7892 232.29 64.7242 232.263 61.7004 232.178C57.6775 232.064 53.6581 231.848 49.6462 231.529C47.5881 232.801 44.3018 239.177 43.9591 239.85L43.307 250.421H43.3068Z" fill="#070707"/>
<path d="M29.3268 275.563C27.8967 274.366 25.9134 271.86 25.4476 266.611C24.5889 256.938 25.0216 227.774 25.0216 227.774C28.1932 228.335 30.259 228.698 32.0865 228.991C32.0774 228.98 32.0658 228.967 32.0555 228.955C35.0569 229.341 38.1859 229.743 41.0262 230.106C45.0019 230.615 48.413 231.031 50.1086 231.248C50.1225 231.249 50.137 231.25 50.1511 231.253C50.8587 231.343 51.2567 231.399 51.2568 231.409C51 234.886 47.8719 236.407 46.8471 239.239C46.8129 239.332 46.7803 239.426 46.7493 239.52C45.9575 241.935 45.2091 247.194 44.7825 250.958C44.2582 255.583 42.7171 259.701 41.8003 261.779C41.6608 262.1 41.5136 262.416 41.3586 262.729C41.1403 263.168 40.9136 263.603 40.6788 264.034C40.6027 264.171 40.5262 264.308 40.4495 264.444C40.3308 264.654 40.2097 264.862 40.0863 265.068C40.0489 265.131 40.0129 265.193 39.9756 265.255C39.1866 266.572 38.3041 267.831 37.3351 269.022C37.2552 269.121 37.1741 269.218 37.0934 269.314C37.065 269.349 37.0367 269.384 37.007 269.417C36.9773 269.451 36.9503 269.485 36.9221 269.519C36.9131 269.528 36.9054 269.538 36.8979 269.547C36.8822 269.564 36.8682 269.582 36.8527 269.599C36.8476 269.605 36.8424 269.61 36.8372 269.616C36.7625 269.704 36.6864 269.79 36.6118 269.875C36.55 269.946 36.4873 270.017 36.4236 270.086C36.4069 270.106 36.3888 270.125 36.3707 270.144C36.3154 270.206 36.2614 270.267 36.2059 270.327C36.2008 270.332 36.1956 270.339 36.1904 270.344L36.1325 270.406C36.1118 270.428 36.0925 270.449 36.0718 270.471C36.0345 270.513 35.9946 270.554 35.956 270.595C35.9365 270.617 35.916 270.637 35.894 270.659C35.886 270.669 35.8771 270.679 35.8681 270.688C35.8591 270.697 35.8501 270.708 35.8399 270.719C35.7806 270.779 35.7227 270.84 35.6646 270.899C35.5832 270.982 35.5033 271.063 35.424 271.143C35.3892 271.179 35.3545 271.214 35.3197 271.248C35.2776 271.292 35.2333 271.333 35.1908 271.375C35.1134 271.451 35.0361 271.526 34.9589 271.599C34.9086 271.647 34.8596 271.695 34.8094 271.742C34.7823 271.767 34.7565 271.791 34.7308 271.815C34.6833 271.861 34.6343 271.906 34.5866 271.948C34.5495 271.982 34.5132 272.016 34.4758 272.05C34.3632 272.153 34.2494 272.255 34.1343 272.355C34.0814 272.402 34.0287 272.449 33.9771 272.493C33.8895 272.569 33.8032 272.642 33.7169 272.714C33.646 272.774 33.5764 272.831 33.5068 272.889L33.4025 272.974C33.369 273.003 33.3342 273.03 33.2994 273.057C33.2311 273.112 33.1643 273.166 33.0961 273.219C32.9597 273.328 32.8214 273.434 32.6814 273.538C32.635 273.573 32.5912 273.607 32.546 273.639C32.2831 273.834 32.0154 274.023 31.7433 274.205C31.6918 274.24 31.6417 274.274 31.5913 274.307C31.5057 274.364 31.4193 274.42 31.3322 274.475C31.2064 274.555 31.0797 274.634 30.9522 274.711C30.897 274.745 30.8417 274.778 30.786 274.811C30.3595 275.062 30.0116 275.243 29.7629 275.366C29.638 275.428 29.5112 275.486 29.3828 275.541H29.3815C29.3661 275.549 29.3535 275.552 29.3455 275.556C29.339 275.558 29.3327 275.561 29.3265 275.563L29.3268 275.563Z" fill="white"/>
<path d="M31.2824 274.506C25.3352 266.172 28.4532 256.375 30.4581 251.545C32.1875 247.379 29.9512 246.003 31.0287 242.607C31.9273 239.77 33.9579 238.88 34.377 235.267C34.6279 233.098 33.2414 230.297 32.0864 228.992C32.0774 228.98 32.0657 228.968 32.0554 228.956C35.0568 229.342 38.1858 229.744 41.0261 230.107C45.0018 230.616 51.2568 231.4 51.2571 231.41C51.0003 234.887 47.8721 236.408 46.8473 239.239C46.8131 239.333 46.7805 239.427 46.7495 239.521C45.9578 241.936 45.2094 247.195 44.7828 250.959C44.2585 255.584 42.7173 259.702 41.8005 261.78C41.6611 262.1 41.5138 262.417 41.3589 262.73C41.1406 263.169 40.9139 263.604 40.6791 264.034C40.6029 264.172 40.5265 264.309 40.4497 264.445C40.3311 264.655 40.21 264.862 40.0865 265.069C40.0492 265.132 40.0132 265.194 39.9759 265.256C39.1868 266.573 38.3044 267.832 37.3353 269.023C37.2555 269.122 37.1743 269.218 37.0936 269.315C37.0653 269.35 37.037 269.385 37.0073 269.418C36.9776 269.452 36.9506 269.486 36.9224 269.52C36.9133 269.529 36.9057 269.539 36.8981 269.548C36.8825 269.565 36.8684 269.583 36.853 269.599C36.8478 269.606 36.8427 269.611 36.8375 269.617C36.818 269.641 36.7988 269.664 36.7794 269.686C36.7244 269.75 36.6686 269.813 36.612 269.876C36.5503 269.947 36.4876 270.018 36.4239 270.087C36.4072 270.106 36.389 270.126 36.371 270.145C36.3157 270.207 36.2616 270.267 36.2062 270.328C36.2011 270.333 36.1958 270.34 36.1907 270.345L36.1327 270.407C36.1121 270.428 36.0928 270.45 36.0721 270.472C36.0347 270.513 35.9948 270.555 35.9562 270.596C35.9368 270.618 35.9162 270.638 35.8943 270.66C35.8862 270.67 35.8774 270.679 35.8684 270.688C35.8594 270.698 35.8503 270.709 35.8401 270.719C35.7809 270.78 35.7229 270.84 35.6649 270.9C35.5834 270.983 35.5036 271.064 35.4242 271.144L35.3779 271.192C35.3584 271.211 35.3401 271.229 35.3199 271.249C35.2778 271.293 35.2336 271.334 35.191 271.376C35.1394 271.429 35.0878 271.479 35.0364 271.527L34.959 271.6L34.923 271.636C34.8843 271.672 34.8469 271.708 34.8097 271.743C34.7826 271.768 34.7568 271.792 34.7311 271.816C34.6835 271.862 34.6345 271.907 34.5869 271.949C34.5497 271.983 34.5135 272.017 34.476 272.051C34.3635 272.154 34.2497 272.256 34.1345 272.356C34.0817 272.402 34.029 272.45 33.9773 272.494C33.8898 272.57 33.8034 272.643 33.7172 272.715C33.6462 272.774 33.5766 272.832 33.5071 272.89L33.4027 272.975C33.3693 273.004 33.3344 273.031 33.2997 273.058C33.2314 273.113 33.1645 273.167 33.0964 273.22C32.9599 273.329 32.8217 273.435 32.6817 273.539C32.6353 273.574 32.5915 273.607 32.5463 273.64C32.2833 273.835 32.0157 274.024 31.7435 274.206C31.6921 274.241 31.6419 274.275 31.5916 274.308C31.506 274.365 31.4196 274.421 31.3325 274.476C31.3145 274.486 31.299 274.496 31.2823 274.507L31.2824 274.506Z" fill="#070707"/>
<path d="M43.7503 243.106C43.7046 243.077 43.6658 243.039 43.6366 242.994C43.6074 242.948 43.5886 242.897 43.5816 242.844C43.1449 239.577 42.4907 238.737 41.1878 237.063C40.8375 236.614 40.4407 236.103 39.994 235.476C37.8435 232.454 38.0505 230.053 38.0604 229.953C38.065 229.905 38.079 229.858 38.1017 229.816C38.1243 229.773 38.1551 229.735 38.1923 229.705C38.2295 229.674 38.2724 229.651 38.3185 229.637C38.3646 229.623 38.413 229.618 38.461 229.623C38.5579 229.632 38.6471 229.68 38.709 229.755C38.7709 229.83 38.8004 229.926 38.7911 230.023C38.7881 230.058 38.6182 232.277 40.592 235.051C41.0296 235.665 41.4214 236.168 41.7671 236.613C43.108 238.335 43.8464 239.283 44.3095 242.747C44.3187 242.816 44.3081 242.886 44.2789 242.949C44.2497 243.012 44.203 243.066 44.1445 243.104C44.0859 243.141 44.0178 243.162 43.9482 243.162C43.8785 243.162 43.8102 243.143 43.7511 243.106H43.7502L43.7503 243.106Z" fill="white"/>
<path d="M29.327 275.88C29.2528 275.879 29.1812 275.853 29.1248 275.805C26.2879 273.43 25.3887 269.509 25.1341 266.639C24.2839 257.06 24.7027 228.062 24.707 227.77C24.7077 227.724 24.7183 227.68 24.738 227.639C24.7578 227.597 24.7862 227.561 24.8213 227.532C24.8565 227.503 24.8975 227.482 24.9416 227.47C24.9857 227.459 25.0317 227.457 25.0766 227.465C28.1348 228.005 31.8247 228.608 32.0771 228.642C32.0834 228.642 32.0896 228.643 32.0959 228.644C41.3115 229.829 46.1367 230.434 48.7289 230.759C49.7662 230.889 50.4086 230.969 50.7915 231.019C50.9865 231.045 51.1156 231.062 51.1959 231.075C51.3081 231.092 51.5712 231.133 51.5719 231.409C51.5719 231.417 51.5716 231.425 51.5711 231.433C51.4142 233.559 50.2577 234.954 49.1394 236.304C48.3196 237.293 47.472 238.316 47.0489 239.618C46.1074 242.489 45.3157 249.051 45.0955 250.994C44.2439 258.507 41.2676 264.079 38.9208 267.43C36.1523 271.383 32.6323 274.524 29.5047 275.832L29.4941 275.836C29.4822 275.841 29.47 275.846 29.4588 275.85C29.4177 275.87 29.3726 275.88 29.327 275.88ZM25.3315 228.149C25.2856 231.568 24.9663 257.625 25.7614 266.583C26.0011 269.285 26.8266 272.949 29.3846 275.198C32.3763 273.904 35.7386 270.877 38.4049 267.069C40.7099 263.778 43.633 258.305 44.4698 250.923C44.6917 248.965 45.4904 242.35 46.4502 239.423C46.9103 238.007 47.797 236.937 48.6544 235.902C49.7029 234.637 50.6963 233.438 50.9149 231.671C50.5704 231.624 49.8616 231.535 48.6505 231.383C46.0579 231.058 41.232 230.454 32.0154 229.268L32.0158 229.265C31.9602 229.261 31.8996 229.252 31.8333 229.242C31.7206 229.224 31.5563 229.198 31.3494 229.164C29.3415 228.838 27.3356 228.499 25.3317 228.149L25.3315 228.149Z" fill="#070707"/>
<path d="M31.1203 274.766C31.081 274.741 31.0478 274.708 31.0232 274.669C28.396 270.98 27.2388 266.613 27.5832 261.69C27.8072 258.482 28.6799 255.03 30.1754 251.428C31.126 249.138 30.9149 247.653 30.7103 246.217C30.5541 245.118 30.3925 243.983 30.7999 242.585C31.1834 241.269 31.803 240.433 32.4021 239.625C33.1487 238.617 33.8541 237.665 34.1395 235.8C34.6282 232.607 32.128 229.297 32.1027 229.264C32.0783 229.232 32.0604 229.196 32.0501 229.157C32.0397 229.118 32.0372 229.078 32.0425 229.038C32.0478 228.998 32.0609 228.96 32.081 228.925C32.1011 228.89 32.1279 228.86 32.1598 228.835C32.1917 228.811 32.2281 228.793 32.2669 228.783C32.3057 228.772 32.3462 228.77 32.386 228.775C32.4258 228.78 32.4642 228.794 32.4989 228.814C32.5336 228.834 32.5641 228.861 32.5885 228.892C32.6984 229.036 35.272 232.445 34.7443 235.893C34.4358 237.908 33.6521 238.966 32.894 239.989C32.3006 240.79 31.7405 241.546 31.3874 242.756C31.0168 244.028 31.1621 245.049 31.3162 246.131C31.5221 247.578 31.7555 249.218 30.7407 251.662C29.2704 255.204 28.4135 258.592 28.1937 261.733C27.859 266.518 28.9826 270.756 31.5322 274.329C31.5737 274.387 31.5938 274.457 31.5892 274.528C31.5845 274.599 31.5553 274.666 31.5066 274.718C31.4579 274.769 31.3927 274.802 31.3223 274.811C31.2518 274.82 31.1805 274.804 31.1205 274.766H31.1204L31.1203 274.766Z" fill="#070707"/>
<path d="M29.2999 239.644C28.4462 239.642 27.6846 239.132 27.1531 238.207C26.1743 236.504 26.1676 233.859 27.1378 232.184C27.7875 231.062 28.7624 230.548 29.7454 230.809C30.928 231.123 32.1273 232.597 32.1414 235.181C32.1468 236.183 31.9042 237.26 31.4924 238.062C30.9632 239.092 30.205 239.64 29.2998 239.645L29.2999 239.644ZM29.2425 231.372C28.6612 231.372 28.1066 231.767 27.6828 232.499C26.8292 233.973 26.8365 236.393 27.6991 237.893C27.9926 238.404 28.5084 239.013 29.2992 239.015C30.1243 239.011 30.6429 238.338 30.9324 237.774C31.3001 237.058 31.5167 236.09 31.5118 235.185C31.4996 232.944 30.5039 231.661 29.5839 231.417C29.4726 231.387 29.3579 231.372 29.2426 231.372L29.2425 231.372Z" fill="#070707"/>
<path d="M43.94 257.581C43.7506 257.462 43.6112 257.278 43.5482 257.064C42.0234 251.902 37.6585 249.721 37.6143 249.7C37.1578 249.48 36.9663 248.931 37.1866 248.475C37.4069 248.019 37.9556 247.828 38.4121 248.049C38.6209 248.149 43.5459 250.579 45.3086 256.546C45.3427 256.661 45.3538 256.783 45.3411 256.902C45.3284 257.022 45.2922 257.138 45.2346 257.244C45.177 257.35 45.0991 257.443 45.0054 257.519C44.9117 257.594 44.8039 257.651 44.6884 257.685C44.5634 257.722 44.432 257.731 44.303 257.713C44.174 257.696 44.0502 257.65 43.94 257.581ZM42.0807 262.102C41.8769 261.974 41.7315 261.771 41.6762 261.537C40.4148 256.245 36.0279 253.99 35.9836 253.969C35.5305 253.742 35.3472 253.19 35.5743 252.738C35.8014 252.285 36.3529 252.102 36.806 252.33C37.0173 252.436 42.0041 254.999 43.4616 261.114C43.4896 261.231 43.4941 261.352 43.4751 261.471C43.456 261.59 43.4137 261.704 43.3505 261.807C43.2874 261.909 43.2047 261.998 43.107 262.069C43.0094 262.14 42.8989 262.19 42.7817 262.218C42.663 262.246 42.5399 262.25 42.4196 262.231C42.2992 262.211 42.1841 262.167 42.0808 262.102L42.0807 262.102ZM39.9134 266.269C39.8109 266.205 39.7221 266.121 39.6522 266.022C39.5824 265.923 39.5328 265.812 39.5063 265.694C38.4393 260.964 34.712 258.907 34.6746 258.886C34.2297 258.644 34.0658 258.086 34.3086 257.642C34.5478 257.204 35.0939 257.038 35.5372 257.268C35.7206 257.365 40.0381 259.713 41.2967 265.292C41.3232 265.409 41.3263 265.531 41.3058 265.649C41.2853 265.768 41.2416 265.881 41.1772 265.983C41.1129 266.085 41.029 266.173 40.9306 266.242C40.8321 266.312 40.7209 266.361 40.6034 266.387C40.3668 266.441 40.1188 266.398 39.9135 266.269H39.9134Z" fill="#E7DEFF"/>
<mask id="mask1_1395_6382" style="mask-type:luminance" maskUnits="userSpaceOnUse" x="63" y="169" width="74" height="106">
<path d="M136.563 256.348C136.37 258.971 135.534 261.5 134.156 263.741C122.468 282.76 94.7722 270.224 63.1289 273.614C74.4842 271.899 61.5612 252.676 65.7967 231.585C69.8255 231.628 73.9503 231.551 78.1832 231.46C80.6735 231.407 82.1241 231.291 84.3349 231.173C84.5868 231.16 84.8485 231.146 85.1233 231.133C85.1272 231.133 85.1312 231.133 85.1351 231.133C81.9214 225.757 75.4285 217.233 72.2805 203.531C66.8934 180.082 74.3792 173.901 76.5422 169.052C91.0121 170.982 105.482 172.911 119.953 174.84C119.218 180.456 121.127 197.401 123.576 203.784C128.683 222.026 137.547 243.007 136.563 256.347L136.563 256.348Z" fill="white"/>
</mask>
<g mask="url(#mask1_1395_6382)">
<path d="M136.563 256.348C136.37 258.971 135.534 261.5 134.156 263.741C122.468 282.76 94.7722 270.224 63.1289 273.614C74.4842 271.899 61.5612 252.676 65.7967 231.585C69.8255 231.628 73.9503 231.551 78.1832 231.46C80.6735 231.407 82.1241 231.291 84.3349 231.173C84.5868 231.16 84.8485 231.146 85.1233 231.133C85.1272 231.133 85.1312 231.133 85.1351 231.133C81.9214 225.757 75.4285 217.233 72.2805 203.531C66.8934 180.082 74.3792 173.901 76.5422 169.052C91.0121 170.982 105.482 172.911 119.953 174.84C119.218 180.456 121.127 197.401 123.576 203.784C128.683 222.026 137.547 243.007 136.563 256.347L136.563 256.348Z" fill="#682DFE"/>
<path d="M88.5468 236.593C88.4991 236.593 88.452 236.582 88.4091 236.562C88.3661 236.541 88.3285 236.51 88.2991 236.473C84.9645 232.233 82.4742 228.272 81.5585 226.766C81.5175 226.694 81.5061 226.61 81.5265 226.53C81.547 226.451 81.5977 226.382 81.6679 226.34C81.7382 226.297 81.8223 226.284 81.9023 226.302C81.9824 226.32 82.0521 226.369 82.0965 226.439C83.0065 227.935 85.4806 231.871 88.7941 236.084C88.8306 236.13 88.8533 236.186 88.8596 236.245C88.8659 236.303 88.8556 236.363 88.8298 236.416C88.804 236.469 88.7638 236.514 88.7138 236.545C88.6637 236.576 88.6058 236.593 88.5468 236.593Z" fill="white"/>
</g>
<path d="M145.109 233.772C145.145 233.64 145.184 233.51 145.227 233.381C145.187 233.511 145.148 233.642 145.109 233.772Z" fill="#E7DEFF"/>
<mask id="mask2_1395_6382" style="mask-type:luminance" maskUnits="userSpaceOnUse" x="115" y="160" width="89" height="77">
<path d="M199.345 209.64C197.427 219.664 195.568 228.633 193.925 236.348C181.241 236.765 154.545 224.961 151.208 232.855C154.988 222.414 158.477 211.87 161.672 201.236C161.655 201.24 161.638 201.245 161.622 201.25C161.369 201.321 161.117 201.392 160.867 201.462C155.75 202.904 150.661 204.447 145.604 206.087C135.189 209.468 129.311 211.843 126.964 212.824C126.792 212.896 126.638 212.96 126.503 213.017C126.455 213.038 126.406 213.059 126.358 213.079C124.785 213.744 123.22 214.429 121.666 215.135C120.356 207.892 119.166 200.628 118.096 193.346C116.936 185.439 115.917 177.512 115.042 169.569C124.192 167.091 182.629 149.553 199.618 171.197C204.739 178.154 203.715 186.794 199.345 209.64L199.345 209.64Z" fill="white"/>
</mask>
<g mask="url(#mask2_1395_6382)">
<path d="M128.947 220.186C128.882 220.186 128.819 220.165 128.765 220.128C128.712 220.091 128.672 220.038 128.65 219.977C125.948 212.4 122.083 199.216 119.537 186.843C119.529 186.803 119.529 186.761 119.536 186.72C119.544 186.68 119.56 186.641 119.583 186.606C119.605 186.572 119.635 186.542 119.669 186.519C119.703 186.496 119.742 186.48 119.782 186.471C119.823 186.463 119.864 186.463 119.905 186.47C119.946 186.478 119.984 186.494 120.019 186.517C120.053 186.539 120.083 186.569 120.106 186.603C120.129 186.637 120.146 186.676 120.154 186.716C122.693 199.06 126.549 212.209 129.243 219.765C129.26 219.813 129.266 219.864 129.259 219.913C129.252 219.963 129.233 220.011 129.204 220.052C129.175 220.094 129.137 220.127 129.092 220.15C129.047 220.174 128.997 220.186 128.947 220.186V220.186ZM158.426 209.58C158.373 209.58 158.322 209.567 158.275 209.542C158.229 209.517 158.19 209.481 158.162 209.437C158.133 209.393 158.116 209.343 158.112 209.29C158.108 209.238 158.117 209.186 158.138 209.138C160.496 203.827 163.255 194.164 164.042 188.459C164.047 188.418 164.061 188.379 164.082 188.343C164.103 188.307 164.13 188.276 164.163 188.251C164.196 188.226 164.234 188.208 164.274 188.197C164.314 188.187 164.356 188.185 164.397 188.19C164.438 188.196 164.477 188.21 164.513 188.231C164.548 188.251 164.58 188.279 164.605 188.312C164.63 188.345 164.648 188.383 164.658 188.423C164.669 188.463 164.671 188.504 164.666 188.545C163.872 194.297 161.091 204.039 158.714 209.393C158.689 209.449 158.649 209.496 158.597 209.529C158.546 209.563 158.487 209.58 158.426 209.58Z" fill="white"/>
</g>
<path d="M82.6298 203.959C82.5531 203.959 82.4791 203.931 82.4216 203.88C82.3641 203.829 82.3271 203.759 82.3174 203.683C82.3078 203.607 82.3262 203.531 82.3693 203.467C82.4123 203.404 82.477 203.358 82.5512 203.339C87.7161 202.004 91.4684 199.374 93.704 195.52C96.0382 191.497 96.1725 187.065 95.8742 184.056C95.866 183.973 95.8911 183.89 95.944 183.825C95.9969 183.76 96.0733 183.72 96.1564 183.711C96.3289 183.695 96.4837 183.82 96.5008 183.993C96.8083 187.095 96.6671 191.667 94.2487 195.836C91.9253 199.841 88.0426 202.57 82.7087 203.949C82.6829 203.955 82.6563 203.959 82.6297 203.959L82.6298 203.959Z" fill="white"/>
<path d="M79.8716 180.062C81.4608 184.319 83.2549 188.498 85.2477 192.582L82.8443 191.772C81.9904 190.435 81.2296 189.04 80.5674 187.599C79.7284 185.772 79.0511 183.875 78.5435 181.93C78.9026 181.252 79.349 180.624 79.8716 180.062Z" fill="#070707"/>
<path d="M85.2477 192.897C85.2142 192.897 85.1802 192.891 85.1472 192.88L82.7438 192.07C82.6758 192.047 82.6176 192.002 82.5789 191.941C81.7177 190.592 80.95 189.185 80.2813 187.73C79.4352 185.886 78.7518 183.972 78.2389 182.01C78.219 181.933 78.2284 181.852 78.2653 181.783C78.5437 181.257 78.8729 180.76 79.248 180.299C79.3741 180.144 79.5051 179.993 79.6409 179.847C79.6775 179.808 79.7235 179.778 79.7746 179.762C79.8257 179.745 79.8802 179.742 79.9329 179.753C79.9856 179.763 80.0347 179.787 80.0756 179.822C80.1165 179.856 80.1479 179.901 80.1666 179.951C80.9948 182.169 81.8786 184.366 82.8172 186.539C83.6765 188.528 84.5812 190.497 85.5307 192.444C85.5541 192.492 85.5649 192.545 85.5621 192.598C85.5593 192.652 85.543 192.703 85.5147 192.749C85.4864 192.794 85.4471 192.831 85.4004 192.857C85.3537 192.883 85.3011 192.897 85.2477 192.897ZM83.0504 191.509L84.6375 192.044C83.8025 190.309 83.0029 188.557 82.2391 186.789C81.366 184.767 80.5401 182.725 79.7619 180.665L79.7364 180.696C79.4129 181.094 79.1261 181.52 78.8795 181.97C79.3795 183.856 80.0399 185.695 80.8536 187.467C81.4948 188.862 82.2286 190.213 83.0504 191.509ZM85.6855 136.847C78.0797 124.755 57.4675 111.999 52.8823 116.515C51.7958 117.585 52.5138 120.207 55.8168 122.604C64.6394 129.003 85.6855 136.847 85.6855 136.847Z" fill="#070707"/>
<path d="M85.6854 137.161C85.6486 137.161 85.6114 137.155 85.5755 137.141C85.3646 137.063 64.3878 129.209 55.632 122.858C53.5389 121.339 52.2201 119.514 52.1045 117.974C52.0525 117.283 52.2451 116.701 52.6614 116.291C53.5244 115.441 54.9011 115.119 56.7543 115.334C60.531 115.774 66.2062 118.491 71.9353 122.604C77.9194 126.9 83.0282 132.03 85.9522 136.679C85.9822 136.727 85.9988 136.781 86.0005 136.838C86.0021 136.894 85.9885 136.949 85.9613 136.999C85.9341 137.048 85.8941 137.089 85.8456 137.118C85.7971 137.146 85.7418 137.161 85.6855 137.161L85.6854 137.161ZM55.691 115.899C54.5387 115.899 53.6709 116.18 53.1033 116.739C52.823 117.015 52.6946 117.426 52.7324 117.927C52.8344 119.284 54.0566 120.937 56.0018 122.349C63.6534 127.899 80.7789 134.63 84.8947 136.209C78.2669 126.373 63.8546 116.794 56.6814 115.96C56.331 115.919 56.0007 115.899 55.691 115.899V115.899Z" fill="#070707"/>
<path d="M84.1909 138.299L70.8902 129.516L56.6997 120.146C58.43 118.034 60.3395 116.109 62.4543 114.42C90.2316 92.2168 110.251 92.2392 114.51 96.108C126.269 106.786 91.6059 132.923 84.191 138.299L84.1909 138.299Z" fill="white"/>
<path d="M83.9261 138.806C83.8595 138.806 83.7945 138.785 83.7406 138.746C83.6867 138.706 83.6466 138.651 83.6261 138.588C83.6056 138.524 83.6057 138.456 83.6264 138.393C83.6472 138.33 83.6875 138.275 83.7415 138.236C89.1049 134.365 115.896 114.43 116.593 102.009C116.721 99.7468 115.948 97.84 114.298 96.3415C112.224 94.4576 106.188 93.5571 97.3787 95.7926C89.9489 97.6779 77.8928 102.483 62.6506 114.666C60.4968 116.386 58.4613 118.44 56.6007 120.769C56.5481 120.833 56.4725 120.873 56.3904 120.882C56.3082 120.891 56.226 120.866 56.1614 120.815C56.0969 120.763 56.0551 120.689 56.0452 120.607C56.0353 120.525 56.0581 120.442 56.1085 120.377C57.9984 118.011 60.0672 115.924 62.2574 114.174C70.7189 107.411 83.6539 98.6259 97.2239 95.1825C101.394 94.1246 105.295 93.682 108.507 93.9015C111.325 94.0945 113.533 94.7955 114.722 95.8757C116.519 97.508 117.361 99.5835 117.222 102.045C116.919 107.432 111.977 114.692 102.533 123.621C95.1484 130.602 87.1893 136.524 84.1101 138.746C84.0565 138.785 83.9922 138.806 83.9261 138.806V138.806Z" fill="#070707"/>
<path d="M220.839 127.07C223.007 125.657 217.118 123.846 214.163 123.958C221.02 121.662 217.829 118.161 202.019 122.805C202.761 119.833 202.352 113.449 199.312 117.945C196.272 122.441 193.144 125.756 186.757 129.715C185.395 130.562 179.795 132.994 173.197 136.592C153.061 110.003 143.494 119.723 144.711 155.594C144.774 159.179 145.537 162.412 146.757 165.225C146.982 168.427 148.409 171.73 151.435 175.081C163.6 185.921 180.745 171.68 190.605 156.078C198.676 143.311 207.965 135.782 213.614 134.388C219.264 132.994 221.545 131.708 217.047 130.542C224.151 129.246 222.796 127.715 220.839 127.07Z" fill="white"/>
<path d="M161.059 179.196C157.421 179.196 154.121 177.896 151.226 175.316C151.218 175.308 151.209 175.3 151.202 175.292C148.301 172.08 146.702 168.719 146.447 165.301C145.147 162.285 144.457 159.021 144.396 155.6C144.058 145.632 144.554 137.674 145.87 131.952C147.22 126.083 149.442 122.561 152.474 121.486C157.504 119.702 164.506 124.647 173.284 136.186C177.122 134.102 180.567 132.436 183.096 131.213C184.813 130.382 186.054 129.782 186.591 129.448C193.134 125.393 196.21 121.973 199.052 117.769C199.996 116.373 200.795 115.846 201.495 116.158C202.782 116.732 202.829 120.229 202.437 122.355C207.971 120.763 211.466 120.317 213.44 120.226C216.739 120.074 217.66 120.767 217.851 121.376C218.094 122.149 217.305 122.976 215.656 123.719C218.025 123.99 221.193 124.932 221.581 126.152C221.639 126.333 221.671 126.636 221.43 126.958C222.066 127.233 222.764 127.69 222.718 128.358C222.641 129.47 220.435 130.161 218.333 130.61C219.303 130.978 219.747 131.382 219.744 131.872C219.737 133.04 216.83 133.919 213.69 134.693C210.793 135.409 207.078 137.72 203.229 141.202C198.878 145.138 194.605 150.34 190.872 156.247C187.196 162.063 182.832 167.244 178.251 171.23C173.134 175.682 167.972 178.381 163.323 179.034C162.555 179.142 161.8 179.196 161.059 179.196ZM151.658 174.857C154.995 177.826 158.891 179.021 163.236 178.411C167.763 177.775 172.813 175.127 177.838 170.755C182.373 166.809 186.695 161.676 190.339 155.91C198.67 142.731 207.994 135.451 213.539 134.082C218.707 132.807 219.113 132.065 219.114 131.868C219.114 131.82 219.057 131.388 216.969 130.847C216.899 130.829 216.838 130.788 216.795 130.73C216.752 130.673 216.73 130.602 216.733 130.53C216.736 130.459 216.763 130.39 216.81 130.336C216.857 130.282 216.921 130.245 216.991 130.232C221.778 129.359 222.078 128.481 222.09 128.314C222.106 128.078 221.691 127.682 220.741 127.369C220.685 127.35 220.635 127.316 220.597 127.271C220.559 127.225 220.535 127.17 220.527 127.111C220.52 127.052 220.529 126.992 220.553 126.938C220.578 126.885 220.618 126.839 220.667 126.806C221.05 126.558 220.998 126.396 220.981 126.343C220.68 125.396 216.673 124.177 214.176 124.273C214.021 124.278 213.882 124.169 213.854 124.015C213.841 123.94 213.854 123.863 213.893 123.798C213.931 123.733 213.992 123.684 214.064 123.66C216.598 122.811 217.363 121.924 217.25 121.565C216.988 120.732 212.812 119.963 202.108 123.106C202.055 123.122 201.998 123.123 201.944 123.11C201.891 123.097 201.841 123.07 201.801 123.031C201.761 122.993 201.732 122.945 201.717 122.892C201.701 122.838 201.7 122.782 201.714 122.728C202.297 120.393 202.035 117.088 201.239 116.733C200.889 116.577 200.267 117.096 199.573 118.121C196.685 122.394 193.561 125.868 186.923 129.983C186.358 130.334 185.105 130.94 183.37 131.779C180.795 133.025 177.268 134.731 173.348 136.868C173.282 136.904 173.205 136.915 173.131 136.899C173.057 136.883 172.992 136.841 172.946 136.781C168.558 130.986 164.579 126.808 161.122 124.364C157.824 122.031 154.985 121.263 152.684 122.079C148.72 123.485 144.173 130.44 145.026 155.583C145.085 158.946 145.765 162.146 147.047 165.1C147.061 165.133 147.069 165.168 147.072 165.203C147.303 168.491 148.846 171.739 151.658 174.857L151.658 174.857Z" fill="#070707"/>
<path d="M143.596 108.179C142.877 107.816 141.279 106.724 141.279 106.724L123.114 99.7231L119.041 99.8321C119.041 99.8321 113.51 87.6331 91.6602 94.0536C82.7506 96.6754 64.3883 106.788 52.8711 116.526C58.1951 112.352 80.4689 126.905 85.7929 136.857C82.3299 139.846 78.9335 141.91 76.9322 145.269C70.9381 155.328 68.8962 177.886 68.8962 177.886H68.8965C68.412 181.847 67.9932 185.834 67.4811 190.222C69.5037 190.637 72.6896 190.992 74.7123 191.406C75.1518 189.364 75.8151 187.377 76.6901 185.48C77.5771 183.558 78.6747 181.741 79.9626 180.061C80.5511 181.761 81.1893 183.444 81.8764 185.106C82.9278 187.65 84.0928 190.145 85.3677 192.584C88.0905 192.688 92.0441 192.579 96.6094 191.466C99.7237 190.708 102.201 189.683 104.319 188.729C113.355 184.657 130.129 169.841 142.119 167.194L142.098 166.654C145.234 165.425 146.831 164.769 146.831 164.769C146.831 164.769 144.672 160.639 144.683 156.012C151.963 144.455 177.387 136.643 180.973 141.994C172.824 124.765 158.373 102.614 143.596 108.179Z" fill="white"/>
<path d="M86.9627 192.93C86.4279 192.93 85.8922 192.92 85.3556 192.899C85.3002 192.897 85.2463 192.88 85.1994 192.851C85.1525 192.821 85.1142 192.78 85.0885 192.73C83.8098 190.283 82.641 187.779 81.5854 185.227C80.9714 183.741 80.3961 182.239 79.8601 180.722C78.7374 182.252 77.7712 183.89 76.976 185.612C76.1111 187.488 75.4552 189.453 75.02 191.472C75.0026 191.553 74.9538 191.624 74.8844 191.67C74.8149 191.715 74.7303 191.731 74.649 191.715C73.6465 191.509 72.3274 191.314 71.0516 191.126C69.7667 190.936 68.4381 190.74 67.418 190.531C67.3408 190.515 67.2723 190.471 67.2261 190.407C67.1799 190.343 67.1594 190.264 67.1685 190.186C67.38 188.374 67.5764 186.622 67.7664 184.928C68.04 182.488 68.2985 180.183 68.5824 177.862L68.5827 177.858C68.5878 177.801 69.109 172.125 70.3567 165.293C71.5107 158.975 73.5414 150.345 76.6617 145.108C78.1598 142.594 80.4485 140.772 82.8715 138.843C83.694 138.188 84.5424 137.512 85.3945 136.785C83.3654 133.145 78.8115 128.527 73.1471 124.377C67.4519 120.203 61.6389 117.204 57.5974 116.354C55.5059 115.915 53.9813 116.056 53.0654 116.773C53.0006 116.825 52.9179 116.849 52.8353 116.841C52.7527 116.832 52.6769 116.791 52.6244 116.726C52.572 116.662 52.5471 116.58 52.5552 116.497C52.5633 116.414 52.6038 116.338 52.6677 116.285C58.0435 111.74 65.2953 106.79 73.0875 102.348C80.3597 98.2015 87.0968 95.0684 91.5711 93.7518C96.591 92.2766 101.169 91.6643 105.177 91.934C108.4 92.1501 111.266 92.9323 113.695 94.259C117.312 96.235 118.854 98.7949 119.233 99.5122L123.106 99.4085C123.146 99.4071 123.189 99.4146 123.227 99.4295L141.392 106.431C141.415 106.439 141.437 106.451 141.457 106.464C141.472 106.475 142.88 107.435 143.618 107.835C150.32 105.384 157.513 108.24 165.001 116.325C168.898 120.533 174.881 128.379 181.257 141.859C181.291 141.931 181.297 142.013 181.273 142.089C181.249 142.164 181.197 142.228 181.128 142.267C181.059 142.307 180.978 142.318 180.9 142.3C180.823 142.282 180.755 142.235 180.711 142.169C179.994 141.099 178.229 140.553 175.592 140.59C171.172 140.652 164.837 142.392 159.058 145.129C152.53 148.222 147.541 152.117 144.998 156.103C145.015 160.559 147.089 164.583 147.11 164.624C147.151 164.702 147.157 164.794 147.127 164.877C147.112 164.919 147.088 164.956 147.058 164.988C147.028 165.019 146.991 165.044 146.951 165.061C146.935 165.067 145.388 165.702 142.421 166.865L142.434 167.182C142.437 167.256 142.414 167.328 142.368 167.386C142.323 167.445 142.259 167.486 142.187 167.502C134.818 169.129 125.608 175.402 117.482 180.937C112.56 184.289 107.912 187.455 104.449 189.016C102.382 189.947 99.8429 191.003 96.6837 191.772C93.5268 192.542 90.2638 192.93 86.9625 192.93L86.9627 192.93ZM85.5622 192.277C89.2898 192.402 92.9811 192.027 96.5348 191.161C99.6442 190.403 102.149 189.361 104.19 188.442C107.603 186.904 112.229 183.753 117.128 180.416C125.207 174.913 134.353 168.684 141.795 166.945L141.784 166.666C141.781 166.601 141.799 166.537 141.835 166.482C141.871 166.427 141.922 166.385 141.983 166.361C144.303 165.452 145.792 164.852 146.399 164.606C145.898 163.552 144.359 159.99 144.368 156.011C144.368 155.952 144.385 155.895 144.416 155.844C147.007 151.731 152.112 147.724 158.789 144.561C164.644 141.787 171.079 140.024 175.584 139.961C177.493 139.934 179 140.212 180.041 140.776C173.943 128.193 168.274 120.786 164.539 116.753C157.193 108.82 150.184 106.035 143.707 108.474C143.667 108.489 143.623 108.496 143.58 108.493C143.536 108.491 143.493 108.48 143.455 108.46C142.771 108.116 141.364 107.163 141.132 107.005L123.06 100.04L119.049 100.147C118.987 100.148 118.926 100.131 118.874 100.098C118.822 100.066 118.78 100.018 118.754 99.9622C118.74 99.9328 117.346 96.9561 113.353 94.7895C111.004 93.5152 108.228 92.7651 105.1 92.5597C101.175 92.3017 96.6823 92.9061 91.7488 94.3557C83.3102 96.8388 66.0653 106.24 54.5621 115.537C55.4438 115.413 56.5014 115.481 57.7269 115.738C61.8518 116.606 67.7555 119.645 73.5193 123.869C79.4588 128.221 84.0335 132.901 86.0705 136.709C86.1043 136.772 86.1155 136.845 86.1025 136.915C86.0894 136.985 86.0528 137.049 85.9987 137.096C85.0724 137.895 84.1529 138.627 83.2636 139.335C80.7837 141.309 78.6419 143.015 77.2025 145.43C71.3721 155.215 69.2722 177.243 69.211 177.901C69.2105 177.909 69.2098 177.917 69.2089 177.924C68.9248 180.247 68.666 182.555 68.392 184.998C68.212 186.603 68.0262 188.259 67.8273 189.971C68.7884 190.156 69.9838 190.332 71.1434 190.503C72.3035 190.675 73.4991 190.851 74.471 191.038C74.9152 189.079 75.563 187.173 76.404 185.349C77.3011 183.406 78.4106 181.568 79.7124 179.87C79.7471 179.825 79.7933 179.79 79.8461 179.769C79.8989 179.748 79.9564 179.741 80.0126 179.75C80.0687 179.76 80.1213 179.784 80.1648 179.82C80.2083 179.857 80.2411 179.905 80.2597 179.958C80.8464 181.653 81.4825 183.329 82.1671 184.986C83.1922 187.465 84.3249 189.897 85.562 192.277L85.5622 192.277Z" fill="#070707"/>
<path d="M134.403 121.31C134.336 121.31 134.27 121.308 134.204 121.302C133.509 121.244 132.508 120.808 131.698 119.059C130.833 117.189 130.346 114.178 130.249 110.108C129.492 111.67 127.828 113.78 126.142 115.304C123.956 117.278 121.969 118.122 120.546 117.683C119.165 117.257 118.32 115.676 118.034 112.985C117.594 108.898 117.808 104.453 118.669 99.7744C118.677 99.7337 118.692 99.6949 118.714 99.6602C118.737 99.6255 118.766 99.5955 118.8 99.5721C118.834 99.5486 118.872 99.5321 118.913 99.5235C118.953 99.5149 118.995 99.5143 119.036 99.5219C119.118 99.537 119.19 99.5841 119.238 99.6528C119.285 99.7215 119.303 99.8063 119.288 99.8883C118.438 104.507 118.227 108.891 118.66 112.918C118.917 115.336 119.614 116.737 120.732 117.081C121.935 117.454 123.706 116.656 125.72 114.837C127.407 113.312 129.065 111.194 129.751 109.686L130.252 108.604C130.282 108.539 130.333 108.486 130.397 108.454C130.46 108.422 130.533 108.413 130.603 108.427C130.672 108.442 130.735 108.48 130.781 108.535C130.826 108.59 130.851 108.659 130.853 108.73L130.874 109.918C130.959 113.99 131.429 116.977 132.27 118.795C132.81 119.962 133.497 120.612 134.258 120.675C135.574 120.79 137.367 119.314 139.05 116.723C140.882 113.673 142.128 111.003 143.092 108.066C143.104 108.026 143.125 107.989 143.152 107.957C143.178 107.925 143.211 107.899 143.248 107.88C143.285 107.861 143.326 107.849 143.367 107.846C143.409 107.843 143.451 107.848 143.49 107.861C143.53 107.874 143.567 107.894 143.598 107.922C143.63 107.949 143.655 107.982 143.674 108.019C143.693 108.057 143.704 108.097 143.706 108.139C143.709 108.18 143.704 108.222 143.69 108.262C142.711 111.247 141.445 113.958 139.587 117.052L139.581 117.061C137.818 119.778 135.944 121.31 134.403 121.31Z" fill="#070707"/>
<path d="M127.669 125.547C127.945 125.547 128.169 125.327 128.169 125.055C128.169 124.783 127.945 124.562 127.669 124.562C127.393 124.562 127.169 124.783 127.169 125.055C127.169 125.327 127.393 125.547 127.669 125.547Z" fill="#070707"/>
<path d="M128.94 119.254C129.216 119.254 129.44 119.034 129.44 118.762C129.44 118.49 129.216 118.27 128.94 118.27C128.664 118.27 128.44 118.49 128.44 118.762C128.44 119.034 128.664 119.254 128.94 119.254Z" fill="#070707"/>
<path d="M146.195 72.955C142.606 75.3071 135.383 88.1389 135.383 88.1389C135.383 88.1389 128.763 83.9162 126.158 83.5333C125.031 80.8748 123.444 79.9012 122.503 78.9056C119.002 75.198 122.559 68.5245 128.03 69.7174C127.873 64.6081 134.4 61.9035 137.781 64.8746C137.933 65.0068 138.079 65.1526 138.218 65.309C138.253 65.2743 138.29 65.2408 138.327 65.2061C138.327 65.2051 138.328 65.2051 138.328 65.2051C139.741 63.8947 141.863 62.6358 144.827 63.3062C148.427 64.1161 150.988 69.8265 146.195 72.955H146.195Z" fill="#070707"/>
<path d="M138.327 65.2065C137.447 66.1937 136.899 67.3751 136.693 68.7326C136.681 68.8071 136.644 68.875 136.586 68.9241C136.529 68.9731 136.456 69.0001 136.381 69.0002C136.365 69.0002 136.35 68.9991 136.334 68.996C136.251 68.9835 136.177 68.9389 136.128 68.8718C136.078 68.8047 136.057 68.7207 136.069 68.6382C136.29 67.1936 136.863 65.9346 137.781 64.875C137.933 65.0072 138.079 65.153 138.218 65.3093C138.253 65.2747 138.29 65.2411 138.327 65.2065ZM128.489 92.832C127.449 94.8011 124.67 98.0719 123.007 99.7237C122.799 103.027 125.064 108.541 130.656 110.302C136.86 112.271 141.172 106.725 141.172 106.725C141.588 103.213 143.273 95.5231 143.273 95.5231C143.273 95.5231 147.387 95.3591 149.784 94.3855C153.089 93.04 157.225 89.4191 153.45 85.3279C152.695 84.5075 151.349 83.3369 150.309 81.9695C147.934 78.8628 146.578 74.148 146.195 72.9557C143.163 73.5682 138.754 75.0012 136.97 77.7908C135.942 79.4634 135.24 81.3156 134.902 83.2494C134.497 85.678 134.333 86.7937 132.199 85.5576C129.901 84.2339 128.697 83.2166 126.377 83.2714C123.992 83.326 122.328 85.7436 122.569 87.9861C122.908 91.1695 126.421 92.515 128.489 92.8322L128.489 92.832Z" fill="white"/>
<path d="M133.315 111.035C132.395 111.035 131.473 110.891 130.561 110.602C124.776 108.779 122.477 103.132 122.693 99.7036C122.698 99.6268 122.73 99.5544 122.785 99.5002C124.296 97.9997 126.837 95.0397 127.999 93.0632C127.218 92.9031 125.914 92.538 124.708 91.7466C123.263 90.7979 122.415 89.5089 122.256 88.019C122.118 86.736 122.56 85.3739 123.436 84.3758C124.218 83.4858 125.26 82.9816 126.37 82.9562C128.388 82.9073 129.605 83.639 131.285 84.6499C131.623 84.8533 131.973 85.0636 132.356 85.2845C133.051 85.6872 133.535 85.8294 133.793 85.7074C134.205 85.5134 134.371 84.5209 134.58 83.2646L134.591 83.1973C134.939 81.2123 135.649 79.3385 136.702 77.6256C138.739 74.4401 143.975 73.0827 146.132 72.6468C146.208 72.6316 146.287 72.6448 146.354 72.6839C146.421 72.723 146.471 72.7854 146.495 72.859C146.524 72.9523 146.56 73.0669 146.602 73.2006C147.095 74.775 148.403 78.9569 150.559 81.7781C151.255 82.6927 152.111 83.5382 152.798 84.2177C153.126 84.5416 153.436 84.8475 153.682 85.1144C155.003 86.5469 155.503 88.0374 155.167 89.5445C154.625 91.971 151.993 93.8258 149.903 94.6767C147.793 95.5338 144.461 95.7735 143.529 95.8253C143.244 97.1429 141.853 103.649 141.485 106.762C141.478 106.818 141.456 106.872 141.421 106.918C141.375 106.976 140.286 108.363 138.406 109.52C136.77 110.526 135.046 111.035 133.315 111.035L133.315 111.035ZM123.315 99.8607C123.238 101.588 123.835 103.658 124.925 105.426C125.88 106.977 127.667 109.03 130.751 110.001C133.227 110.787 135.685 110.448 138.058 108.994C139.622 108.036 140.634 106.881 140.87 106.596C141.301 103.069 142.949 95.5316 142.966 95.4554C142.981 95.3874 143.018 95.3262 143.071 95.2815C143.124 95.2367 143.191 95.211 143.261 95.2082C143.301 95.2066 147.349 95.0349 149.666 94.0935C151.615 93.3001 154.064 91.5965 154.553 89.4074C154.841 88.1137 154.392 86.8129 153.219 85.5408C152.983 85.2846 152.678 84.9838 152.356 84.6654C151.654 83.972 150.781 83.109 150.059 82.1595C147.835 79.2506 146.503 74.9918 146.001 73.3884L145.98 73.3212C143.761 73.7956 139.06 75.107 137.235 77.9598C136.227 79.6 135.546 81.3993 135.212 83.3033L135.201 83.3678C134.943 84.918 134.772 85.9421 134.062 86.2768C133.585 86.5012 132.962 86.3631 132.041 85.8295C131.653 85.6059 131.301 85.3941 130.96 85.1891C129.312 84.1972 128.228 83.5424 126.385 83.5854C125.452 83.6068 124.573 84.0349 123.909 84.791C123.147 85.6591 122.763 86.8407 122.882 87.9519C123.031 89.3497 124.39 91.8844 128.537 92.5206C128.587 92.5282 128.634 92.5475 128.674 92.577C128.715 92.6065 128.748 92.6452 128.771 92.6901C128.793 92.7349 128.805 92.7844 128.804 92.8346C128.804 92.8848 128.791 92.9341 128.768 92.9785C127.724 94.9565 124.966 98.2041 123.315 99.8607Z" fill="#070707"/>
<path d="M144.214 75.3068C144.465 75.3907 145.708 75.2435 146.971 75.3177C146.588 74.2458 146.337 73.3815 146.194 72.9658C145.812 73.0424 145.407 73.1299 144.98 73.2393C144.947 73.2502 144.914 73.2722 144.881 73.2831C143.793 73.8767 143.414 75.0491 144.214 75.3068ZM142.551 99.0011C142.955 97.0211 143.284 95.5115 143.284 95.5115C143.284 95.5115 140.449 95.2817 138.633 94.5816C138.327 95.238 138.939 98.1259 142.551 99.0011Z" fill="#070707"/>
<path d="M142.551 99.3162C142.526 99.3161 142.501 99.3132 142.476 99.3073C140.033 98.7152 139.014 97.2649 138.623 96.4531C138.261 95.7007 138.148 94.8765 138.348 94.4489C138.381 94.3766 138.441 94.3198 138.515 94.29C138.589 94.2603 138.672 94.2596 138.746 94.2883C140.498 94.9637 143.281 95.1957 143.309 95.198C143.354 95.2017 143.397 95.2149 143.437 95.2367C143.476 95.2585 143.51 95.2884 143.537 95.3245C143.563 95.3605 143.582 95.4018 143.591 95.4456C143.601 95.4895 143.601 95.5348 143.591 95.5787C143.588 95.5938 143.259 97.1092 142.859 99.0645C142.844 99.1355 142.806 99.1994 142.75 99.2452C142.693 99.2911 142.623 99.3162 142.551 99.3163V99.3162ZM138.879 95.0043C138.881 95.2713 138.953 95.6855 139.191 96.1803C139.516 96.8566 140.346 98.0401 142.309 98.6115C142.503 97.6706 142.7 96.7306 142.901 95.7914C142.138 95.7118 140.313 95.4834 138.879 95.0043ZM139.301 75.5588C139.811 75.3431 140.503 75.2722 141.106 75.5041C141.467 75.6464 141.653 76.062 141.511 76.423C141.448 76.6108 141.381 76.5964 139.924 78.2827C138.951 79.4719 138.663 80.4377 137.834 80.4377C137.648 80.4268 137.484 80.3283 137.396 80.1752C136.876 79.6554 136.906 76.5339 139.301 75.5588ZM138.961 81.5206C139.563 81.1815 141.008 80.4158 142.211 79.2453C142.251 79.2058 142.298 79.1746 142.351 79.1537C142.403 79.1329 142.458 79.1226 142.515 79.1236C142.571 79.1246 142.626 79.1369 142.677 79.1597C142.729 79.1824 142.775 79.2153 142.813 79.2562C143.229 79.6938 143.787 80.5251 142.868 81.2143C141.363 82.3531 138.431 82.2558 138.885 81.5753C138.907 81.5644 138.928 81.5424 138.961 81.5206ZM147.289 77.5388C145.725 78.252 144.487 77.8734 144.597 78.6436C144.901 80.318 147.595 79.6452 147.595 77.7466C147.595 77.6886 147.572 77.6331 147.531 77.5921C147.49 77.5511 147.434 77.528 147.376 77.5279C147.354 77.5169 147.322 77.5169 147.289 77.5388ZM143.459 86.3885C143.76 85.184 145.561 84.4481 146.807 85.3275C147.19 85.579 147.464 85.962 147.584 86.3995C147.652 86.6704 147.292 86.8183 147.146 86.5855L147.135 86.5746C146.577 85.7136 145.476 85.477 144.63 85.9511C144.162 86.1846 143.959 86.5279 143.907 86.5856C143.768 86.8412 143.375 86.6409 143.459 86.3886L143.459 86.3885ZM129.501 93.211C128.586 93.211 127.727 93.0665 126.915 92.778C126.876 92.7643 126.84 92.7429 126.809 92.7153C126.778 92.6876 126.753 92.6541 126.735 92.6168C126.717 92.5794 126.707 92.5389 126.705 92.4976C126.703 92.4562 126.709 92.4149 126.723 92.3758C126.737 92.3368 126.758 92.3009 126.786 92.2702C126.814 92.2395 126.847 92.2145 126.884 92.1968C126.922 92.1791 126.962 92.1689 127.004 92.1668C127.045 92.1648 127.087 92.1709 127.126 92.1848C128.812 92.7837 130.735 92.704 133.005 91.9412C133.084 91.9178 133.168 91.9256 133.241 91.9632C133.313 92.0008 133.368 92.0651 133.394 92.1426C133.421 92.22 133.415 92.3046 133.38 92.3784C133.345 92.4522 133.283 92.5094 133.206 92.538C131.87 92.9869 130.641 93.2111 129.501 93.2111V93.211Z" fill="#070707"/>
<path d="M125.581 86.5666C127.522 86.0476 129.827 86.7548 131.2 88.9609L125.581 86.5666Z" fill="white"/>
<path d="M131.201 89.2748C131.147 89.2749 131.095 89.2613 131.048 89.2353C131.001 89.2093 130.961 89.1718 130.933 89.1263C129.745 87.2173 127.675 86.3317 125.663 86.8699C125.583 86.8885 125.499 86.8754 125.429 86.8333C125.359 86.7913 125.308 86.7236 125.287 86.6446C125.265 86.5656 125.276 86.4815 125.316 86.41C125.355 86.3386 125.421 86.2854 125.5 86.2617C127.787 85.6507 130.129 86.6442 131.468 88.7938C131.497 88.8414 131.514 88.8961 131.515 88.9522C131.517 89.0083 131.503 89.0637 131.476 89.1128C131.448 89.1618 131.409 89.2027 131.36 89.2312C131.312 89.2597 131.257 89.2747 131.201 89.2748H131.201Z" fill="#070707"/>
<path d="M194.015 151.078C192.864 152.643 191.723 154.311 190.606 156.079C180.746 171.68 163.601 185.92 151.435 175.081C133.988 155.761 169.674 138.061 182.623 131.79L194.015 151.078Z" fill="white"/>
<path d="M161.059 179.195C157.42 179.195 154.121 177.895 151.225 175.315C151.163 175.26 151.125 175.182 151.121 175.098C151.116 175.015 151.144 174.933 151.2 174.871C151.255 174.808 151.334 174.771 151.417 174.766C151.5 174.761 151.582 174.79 151.644 174.845C154.985 177.822 158.886 179.022 163.236 178.41C167.764 177.774 172.813 175.126 177.838 170.754C182.373 166.809 186.695 161.676 190.339 155.91C191.527 154.032 192.775 152.212 194.05 150.501C194.075 150.467 194.106 150.439 194.141 150.418C194.177 150.397 194.216 150.383 194.257 150.377C194.298 150.371 194.34 150.373 194.38 150.383C194.42 150.393 194.457 150.411 194.491 150.436C194.524 150.461 194.552 150.492 194.573 150.527C194.594 150.563 194.608 150.602 194.614 150.643C194.62 150.684 194.618 150.726 194.608 150.766C194.598 150.806 194.58 150.843 194.555 150.877C193.29 152.575 192.051 154.382 190.871 156.246C187.195 162.063 182.832 167.244 178.252 171.229C173.135 175.681 167.973 178.38 163.324 179.034C162.556 179.142 161.8 179.195 161.059 179.195L161.059 179.195ZM154.267 150.148C154.205 150.148 154.144 150.129 154.092 150.095C154.04 150.06 154 150.01 153.976 149.953C153.952 149.895 153.946 149.831 153.959 149.77C153.971 149.709 154.002 149.653 154.046 149.609C162.682 141.086 176.399 134.451 182.991 131.262C183.028 131.244 183.068 131.233 183.11 131.231C183.151 131.229 183.192 131.234 183.231 131.248C183.27 131.262 183.306 131.283 183.337 131.31C183.368 131.338 183.393 131.371 183.411 131.408C183.448 131.483 183.453 131.57 183.425 131.649C183.398 131.728 183.34 131.792 183.265 131.829C176.703 135.003 163.05 141.608 154.488 150.057C154.43 150.115 154.35 150.148 154.267 150.148Z" fill="#070707"/>
<path d="M126.412 170.172C126.412 170.172 143.5 175.145 146.566 176.295C162.017 182.089 184.921 179.568 201.131 192.714C202.699 181.758 202.218 174.803 199.955 171.672C189.736 157.534 162.925 158.861 143.536 163.496C140.274 164.275 126.412 170.172 126.412 170.172Z" fill="#682DFE"/>
<path d="M135.456 167.751C134.753 167.751 133.79 167.596 132.586 167.26C137.52 170.915 137.576 172.87 133.064 171.74C137.841 174.881 133.159 175.074 127.021 174.26C135.517 176.752 129.254 178.416 116.821 177.73C99.398 176.78 70.5216 171.686 56.7185 158.722C46.1112 149.621 47.3751 133.79 53.8536 124.013C54.7448 122.668 55.692 121.376 56.6995 120.146C66.6786 121.058 77.5729 129.192 84.1717 138.119C83.3006 138.75 82.8248 139.275 82.8248 139.275C83.1102 139.532 91.9405 145.51 103.332 151.15C115.342 157.089 125.866 159.573 130.485 161.937C136.953 165.253 138.281 167.751 135.456 167.751Z" fill="white"/>
<path d="M122.089 178.201C120.471 178.201 118.697 178.149 116.803 178.045C106.475 177.482 95.003 175.656 85.3297 173.035C79.3561 171.417 73.9791 169.492 69.3483 167.313C64.1067 164.846 59.7868 162.035 56.5077 158.957C53.9359 156.749 51.947 154.058 50.5961 150.96C49.3535 148.111 48.6699 144.972 48.5641 141.631C48.368 135.441 50.2003 128.956 53.5909 123.839C54.5017 122.465 55.4655 121.155 56.4558 119.947C56.5087 119.883 56.5851 119.842 56.6682 119.834C56.7513 119.825 56.8343 119.85 56.8989 119.903C56.9635 119.956 57.0044 120.033 57.0126 120.116C57.0209 120.199 56.9958 120.282 56.9428 120.346C55.966 121.538 55.015 122.83 54.1159 124.187C50.7955 129.198 49.0014 135.549 49.1934 141.611C49.3455 146.413 50.81 153.238 56.9233 158.484C56.9269 158.487 56.9304 158.49 56.9338 158.493C60.1651 161.528 64.4322 164.304 69.6166 166.743C74.2142 168.907 79.5562 170.819 85.4945 172.428C95.1271 175.037 106.551 176.855 116.838 177.416C120.856 177.638 124.331 177.623 126.887 177.373C130.452 177.023 130.604 176.375 130.609 176.348C130.61 176.341 130.681 175.662 126.932 174.563C126.856 174.54 126.791 174.49 126.751 174.422C126.71 174.354 126.697 174.273 126.713 174.195C126.729 174.118 126.774 174.049 126.839 174.003C126.904 173.957 126.984 173.938 127.062 173.948C134.096 174.881 134.662 173.938 134.703 173.827C134.735 173.742 134.796 173.256 132.891 172.004C132.829 171.963 132.783 171.901 132.762 171.83C132.741 171.759 132.746 171.682 132.776 171.614C132.805 171.546 132.858 171.491 132.925 171.458C132.992 171.425 133.068 171.417 133.14 171.435C135.064 171.917 135.9 171.763 136.031 171.485C136.198 171.133 135.62 169.899 132.398 167.513C132.339 167.469 132.297 167.406 132.28 167.334C132.262 167.263 132.27 167.187 132.303 167.121C132.335 167.055 132.39 167.003 132.457 166.973C132.524 166.942 132.6 166.937 132.671 166.957C133.792 167.271 134.756 167.436 135.456 167.436C136.08 167.436 136.484 167.303 136.538 167.081C136.683 166.478 135.154 164.685 130.341 162.218C128.532 161.292 125.822 160.352 122.391 159.163C117.077 157.321 110.464 155.028 103.192 151.432C91.6694 145.727 82.895 139.762 82.6142 139.51C82.5803 139.479 82.5534 139.442 82.5355 139.4C82.5175 139.358 82.5089 139.312 82.5102 139.267C82.5116 139.221 82.5228 139.176 82.5432 139.135C82.5635 139.095 82.5925 139.059 82.6281 139.03C82.6281 139.03 83.2949 138.497 84.065 137.887C84.1306 137.837 84.2133 137.815 84.2952 137.825C84.3771 137.835 84.4517 137.877 84.503 137.942C84.5542 138.007 84.578 138.089 84.5692 138.171C84.5604 138.253 84.5197 138.329 84.4559 138.381C84.0171 138.728 83.612 139.05 83.345 139.263C85.0406 140.433 93.2964 145.83 103.472 150.868C110.708 154.446 117.3 156.732 122.597 158.568C126.051 159.765 128.78 160.711 130.628 161.658C135.012 163.905 137.449 165.987 137.15 167.229C137.058 167.611 136.689 168.066 135.456 168.066C135.018 168.066 134.506 168.011 133.926 167.902C135.591 169.261 137.051 170.802 136.6 171.755C136.345 172.295 135.615 172.483 134.383 172.322C135.182 173.005 135.473 173.565 135.293 174.047C135.069 174.649 134.16 174.946 132.434 174.981C131.658 174.996 130.73 174.959 129.661 174.869C131.146 175.552 131.294 176.081 131.229 176.455C131.053 177.48 128.702 177.827 126.948 177.999C125.57 178.134 123.931 178.201 122.089 178.201Z" fill="#070707"/>
<path d="M82.8452 139.6C82.7832 139.6 82.7227 139.581 82.6711 139.547C78.0714 136.487 72.8781 134.531 68.4225 134.18C68.3813 134.177 68.3411 134.166 68.3043 134.147C68.2674 134.128 68.2346 134.102 68.2078 134.071C68.1809 134.039 68.1605 134.003 68.1477 133.964C68.135 133.924 68.1301 133.883 68.1333 133.842C68.147 133.668 68.2991 133.54 68.472 133.553C73.0311 133.912 78.3336 135.906 83.0199 139.023C83.0761 139.06 83.1187 139.115 83.1415 139.179C83.1643 139.242 83.166 139.311 83.1464 139.376C83.1268 139.441 83.087 139.497 83.0328 139.538C82.9785 139.578 82.9128 139.6 82.8452 139.6ZM132.857 167.727C132.806 167.727 132.755 167.714 132.707 167.688C130.356 166.409 126.912 164.794 124.519 164.072C124.439 164.048 124.372 163.993 124.333 163.92C124.293 163.846 124.284 163.76 124.309 163.68C124.333 163.6 124.388 163.533 124.461 163.494C124.535 163.454 124.621 163.445 124.701 163.47C127.137 164.205 130.628 165.84 133.008 167.135C133.069 167.169 133.118 167.222 133.146 167.286C133.174 167.35 133.18 167.422 133.162 167.49C133.145 167.557 133.106 167.617 133.05 167.66C132.995 167.703 132.927 167.727 132.857 167.726L132.857 167.727ZM133.312 172.212C133.259 172.212 133.205 172.198 133.156 172.17C130.951 170.902 125.056 168.744 121.893 168.047C121.723 168.009 121.616 167.841 121.653 167.672C121.691 167.502 121.858 167.394 122.028 167.432C125.3 168.153 131.181 170.308 133.47 171.624C133.53 171.659 133.577 171.712 133.604 171.777C133.63 171.841 133.635 171.912 133.617 171.979C133.599 172.046 133.559 172.105 133.504 172.147C133.449 172.19 133.382 172.212 133.312 172.212ZM128.103 174.885C128.073 174.885 128.043 174.881 128.013 174.872C125.12 174.017 121.645 173.249 119.563 173.006C119.48 172.995 119.406 172.952 119.355 172.887C119.304 172.822 119.28 172.739 119.29 172.657C119.3 172.574 119.341 172.499 119.406 172.448C119.471 172.396 119.553 172.372 119.636 172.38C121.75 172.627 125.269 173.404 128.192 174.269C128.264 174.29 128.327 174.337 128.368 174.401C128.408 174.465 128.425 174.541 128.414 174.616C128.403 174.69 128.366 174.759 128.309 174.808C128.251 174.858 128.178 174.885 128.103 174.885ZM129.655 131C129.65 131 129.645 131 129.64 131C128.92 130.966 128.216 130.784 127.57 130.465C126.587 129.963 125.393 128.905 125.266 126.701C125.177 125.074 125.965 121.772 127.607 116.888C128.281 114.884 128.983 112.992 129.448 111.741C129.688 111.095 129.878 110.585 129.976 110.295C130.004 110.217 130.061 110.153 130.135 110.117C130.21 110.08 130.296 110.075 130.374 110.102C130.453 110.128 130.517 110.185 130.555 110.259C130.592 110.333 130.598 110.418 130.572 110.497C130.471 110.795 130.28 111.309 130.038 111.96C129.575 113.208 128.874 115.093 128.204 117.089C126.587 121.897 125.81 125.119 125.894 126.666C126.005 128.571 127.02 129.477 127.853 129.902C128.42 130.182 129.038 130.342 129.67 130.371C129.752 130.375 129.829 130.41 129.886 130.471C129.942 130.531 129.972 130.611 129.97 130.693C129.968 130.775 129.934 130.853 129.875 130.911C129.816 130.968 129.737 131 129.655 131ZM144.711 156.102C144.662 156.102 144.614 156.091 144.57 156.069C144.526 156.047 144.488 156.015 144.459 155.976C144.429 155.936 144.41 155.891 144.401 155.842C144.392 155.794 144.395 155.744 144.409 155.697C145.41 152.351 146.237 148.612 146.937 144.266C148.086 137.149 148.288 130.599 147.523 125.324C147.517 125.283 147.519 125.241 147.53 125.201C147.54 125.161 147.558 125.124 147.582 125.091C147.607 125.057 147.638 125.03 147.674 125.008C147.709 124.987 147.749 124.973 147.79 124.967C147.83 124.961 147.872 124.964 147.912 124.974C147.952 124.984 147.99 125.002 148.023 125.027C148.056 125.051 148.084 125.082 148.105 125.118C148.126 125.153 148.14 125.193 148.146 125.234C148.92 130.571 148.717 137.187 147.559 144.366C146.854 148.739 146.022 152.505 145.013 155.878C144.993 155.943 144.953 156 144.899 156.04C144.845 156.081 144.779 156.102 144.711 156.102L144.711 156.102ZM200.067 127.124C200.009 127.124 199.952 127.108 199.902 127.078C199.853 127.047 199.812 127.003 199.786 126.951C199.76 126.899 199.749 126.841 199.754 126.783C199.758 126.725 199.779 126.669 199.814 126.623C200.652 125.489 201.305 124.139 201.756 122.611C201.779 122.53 201.834 122.463 201.907 122.423C201.98 122.383 202.066 122.374 202.147 122.398C202.227 122.421 202.294 122.476 202.334 122.549C202.374 122.622 202.383 122.708 202.36 122.789C201.888 124.388 201.202 125.803 200.32 126.997C200.291 127.036 200.253 127.069 200.209 127.091C200.165 127.113 200.116 127.125 200.067 127.124V127.124ZM207.983 125.703C207.91 125.703 207.839 125.678 207.783 125.631C207.726 125.585 207.688 125.52 207.674 125.448C207.66 125.376 207.672 125.302 207.707 125.238C207.742 125.174 207.798 125.124 207.866 125.096C210.175 124.171 212.034 123.635 214.708 123.634C214.791 123.634 214.871 123.667 214.931 123.726C214.99 123.785 215.023 123.865 215.023 123.949C215.023 124.032 214.99 124.112 214.931 124.171C214.871 124.23 214.791 124.264 214.708 124.264C212.136 124.264 210.338 124.783 208.101 125.681C208.063 125.696 208.024 125.703 207.983 125.703ZM208.866 128.493C208.791 128.493 208.718 128.466 208.662 128.417C208.605 128.369 208.567 128.301 208.555 128.227C208.544 128.153 208.559 128.077 208.598 128.013C208.637 127.95 208.698 127.902 208.769 127.879C212.765 126.585 215.649 126.096 221.228 126.816C221.31 126.826 221.386 126.869 221.437 126.936C221.488 127.002 221.51 127.085 221.5 127.168C221.489 127.251 221.446 127.326 221.38 127.377C221.314 127.428 221.23 127.451 221.147 127.44C215.653 126.731 212.948 127.187 208.963 128.478C208.932 128.488 208.899 128.493 208.866 128.493ZM210.397 131.754C210.321 131.754 210.249 131.727 210.191 131.678C210.134 131.629 210.097 131.561 210.085 131.486C210.074 131.412 210.09 131.336 210.13 131.272C210.171 131.208 210.232 131.161 210.304 131.139C212.888 130.345 214.948 129.958 217.833 130.331C217.915 130.344 217.988 130.387 218.037 130.453C218.087 130.519 218.109 130.601 218.098 130.683C218.088 130.764 218.046 130.839 217.981 130.89C217.916 130.941 217.834 130.964 217.753 130.956C214.981 130.597 212.99 130.972 210.49 131.74C210.46 131.75 210.428 131.754 210.397 131.754Z" fill="#070707"/>
<path d="M195.833 137.303C195.782 137.303 195.731 137.291 195.685 137.266C195.64 137.242 195.601 137.207 195.572 137.164C195.543 137.121 195.525 137.072 195.52 137.02C195.515 136.969 195.522 136.917 195.542 136.869C195.931 135.919 196.845 134.102 198.607 132.603C200.469 131.018 202.761 130.199 205.421 130.168C205.462 130.168 205.503 130.175 205.541 130.191C205.58 130.206 205.615 130.229 205.644 130.258C205.674 130.286 205.697 130.321 205.714 130.359C205.73 130.397 205.739 130.438 205.739 130.479C205.74 130.52 205.732 130.561 205.717 130.6C205.701 130.638 205.678 130.673 205.65 130.703C205.621 130.732 205.586 130.756 205.548 130.772C205.51 130.788 205.469 130.797 205.428 130.797C202.92 130.827 200.762 131.595 199.015 133.082C197.355 134.495 196.492 136.21 196.125 137.108C196.101 137.165 196.061 137.215 196.009 137.25C195.957 137.285 195.896 137.303 195.833 137.303Z" fill="black"/>
<path d="M146.924 82.7327C146.865 82.7327 146.807 82.716 146.757 82.6847C146.707 82.6533 146.667 82.6085 146.641 82.5553C146.615 82.5022 146.605 82.4429 146.611 82.3841C146.617 82.3254 146.64 82.2696 146.677 82.2232C146.806 82.0598 147.197 81.5624 147.153 81.3441C147.118 81.1674 146.695 80.9317 146.322 80.7237C144.688 79.8097 144.606 78.7675 144.607 78.5678C144.607 78.4843 144.64 78.4043 144.699 78.3453C144.758 78.2863 144.838 78.2531 144.922 78.2529H144.922C144.963 78.2529 145.004 78.261 145.042 78.2768C145.08 78.2926 145.115 78.3158 145.144 78.3449C145.173 78.3741 145.197 78.4088 145.212 78.4469C145.228 78.4851 145.236 78.526 145.236 78.5672C145.236 78.6023 145.251 79.4035 146.629 80.1741C147.215 80.5008 147.678 80.7591 147.771 81.2205C147.854 81.638 147.592 82.079 147.171 82.6126C147.142 82.65 147.104 82.6803 147.062 82.7011C147.019 82.7219 146.972 82.7327 146.924 82.7327ZM85.793 137.173C85.7285 137.173 85.6657 137.153 85.6128 137.116C85.5599 137.079 85.5197 137.027 85.4974 136.967C85.4751 136.906 85.472 136.84 85.4883 136.778C85.5047 136.716 85.5398 136.66 85.5889 136.618C93.9132 129.537 102.761 119.583 106.628 112.951C106.648 112.915 106.676 112.884 106.709 112.859C106.742 112.834 106.779 112.816 106.819 112.805C106.859 112.795 106.901 112.792 106.942 112.798C106.983 112.803 107.023 112.817 107.058 112.838C107.094 112.858 107.125 112.886 107.15 112.919C107.175 112.952 107.194 112.989 107.204 113.029C107.215 113.069 107.217 113.111 107.212 113.152C107.206 113.193 107.192 113.232 107.172 113.268C103.274 119.954 94.3687 129.976 85.997 137.098C85.9401 137.146 85.8678 137.173 85.7931 137.173L85.793 137.173Z" fill="#070707"/>
</g>
<g clip-path="url(#clip2_1395_6382)">
<path d="M146.402 88.5287C144.862 88.7616 143.425 87.7021 143.192 86.1622C142.959 84.6223 144.018 83.1851 145.558 82.9521C147.098 82.7191 148.536 83.7786 148.769 85.3185C149.001 86.8585 147.942 88.2957 146.402 88.5287Z" fill="white"/>
<path d="M147.751 85.8547C147.502 86.0822 147.194 86.234 146.862 86.292C146.535 86.3594 146.196 86.3506 145.873 86.2665C145.556 86.1687 145.268 85.9941 145.034 85.7584C144.798 85.5177 144.633 85.2162 144.558 84.8875L144.557 84.8818C144.551 84.8568 144.541 84.8332 144.526 84.8123C144.511 84.7914 144.492 84.7737 144.47 84.7601C144.448 84.7466 144.424 84.7375 144.399 84.7334C144.374 84.7293 144.348 84.7302 144.323 84.7361C144.28 84.7459 144.242 84.7694 144.215 84.803C144.187 84.8366 144.171 84.8785 144.17 84.922C144.169 85.3645 144.327 85.7927 144.613 86.13C144.752 86.3013 144.917 86.4497 145.103 86.5699C145.379 86.7514 145.692 86.8693 146.019 86.9149C146.346 86.9605 146.68 86.9327 146.995 86.8335C147.202 86.7733 147.399 86.6839 147.581 86.568C147.768 86.4467 147.927 86.2866 148.048 86.0985C148.061 86.0767 148.071 86.0524 148.075 86.0271C148.079 86.0017 148.078 85.9757 148.072 85.9507C148.066 85.9257 148.055 85.9022 148.04 85.8815C148.024 85.8609 148.005 85.8435 147.983 85.8304C147.946 85.8076 147.903 85.7975 147.86 85.8018C147.817 85.8061 147.776 85.8244 147.745 85.8539L147.751 85.8547Z" fill="#070707"/>
</g>
<g clip-path="url(#clip3_1395_6382)">
<path d="M237.314 28.125L238.388 29.4383L236.976 30.5958L235.915 29.1752L237.314 28.125ZM246.349 50.3409L247.01 51.7693L244.275 52.3751L244.291 50.0871L246.349 50.3409ZM188.621 72.3806L188.784 74.0906L190.507 72.4085L189.723 70.7609L188.621 72.3806ZM180.279 50.2084L180.248 51.8384L182.165 51.1406L181.914 49.375L180.279 50.2084Z" fill="#070707"/>
<path d="M227.549 45.7219C227.41 45.7099 227.277 45.6589 227.165 45.5747C227.053 45.4905 226.967 45.3764 226.917 45.2456C226.867 45.1148 226.854 44.9724 226.881 44.8349C226.907 44.6973 226.972 44.5701 227.067 44.4677C234.729 36.2463 238.772 29.7208 237.314 28.1244C235.381 26.0088 224.182 33.3851 211.352 44.8929C211.216 45.0143 211.041 45.0819 210.859 45.0829C193.636 45.1539 180.297 47.3401 180.279 50.2077C180.266 52.3712 187.723 54.3568 198.913 55.315C199.052 55.327 199.185 55.378 199.297 55.4623C199.409 55.5465 199.495 55.6606 199.545 55.7914C199.595 55.9222 199.608 56.0646 199.581 56.2021C199.555 56.3397 199.49 56.4669 199.395 56.5693C191.733 64.7906 187.424 71.3752 188.882 72.9716C190.815 75.0875 202.281 67.6517 215.11 56.144C215.245 56.0226 215.421 55.9551 215.603 55.9542C232.826 55.8832 246.431 53.6376 246.449 50.7704C246.463 48.6068 238.739 46.6802 227.549 45.7219Z" fill="#070707"/>
<path d="M227.039 47.1682C226.998 47.165 226.96 47.1504 226.927 47.1261C226.895 47.1018 226.87 47.0688 226.855 47.0309C226.841 46.993 226.837 46.9518 226.845 46.912C226.853 46.8721 226.872 46.8354 226.9 46.8059C235.085 38.1486 239.905 31.0988 238.388 29.4382C236.44 27.3066 224.757 34.8245 211.834 46.4166C211.692 46.5434 211.509 46.6138 211.319 46.6147C193.969 46.6874 180.266 48.9494 180.248 51.8382C180.234 54.0957 188.58 56.0969 200.506 57.0242C200.537 57.0268 200.567 57.0379 200.591 57.0564C200.616 57.075 200.635 57.1001 200.646 57.129C200.657 57.1578 200.66 57.1892 200.654 57.2196C200.648 57.2499 200.634 57.2779 200.613 57.3004C192.383 65.9931 187.529 73.0801 189.051 74.7459C190.999 76.8782 202.685 69.3563 215.612 57.7615C215.749 57.6384 215.927 57.57 216.111 57.5691C233.465 57.4974 247.173 55.235 247.191 52.3456C247.205 50.095 238.908 48.0989 227.039 47.1682Z" fill="#E7DEFF"/>
<path d="M182.541 57.2965C178.483 58.1951 174.764 57.1056 173.632 54.4304C172.266 51.2011 175.181 46.8645 180.131 44.7645C185.081 42.6644 190.219 43.5829 191.585 46.8125C192.951 50.0421 190.036 54.3782 185.086 56.4785C184.265 56.8283 183.412 57.1022 182.541 57.2965ZM182.856 44.6035C182.014 44.7915 181.191 45.0562 180.397 45.3943C175.793 47.3477 173.04 51.2825 174.26 54.1646C175.479 57.0466 180.215 57.8027 184.82 55.849C189.425 53.8953 192.177 49.9609 190.958 47.0788C189.956 44.7115 186.58 43.7786 182.856 44.6035ZM235.843 37.5062C231.786 38.4048 228.066 37.3153 226.934 34.6401C225.568 31.4107 228.483 27.0742 233.433 24.9741C238.383 22.8741 243.521 23.7926 244.888 27.0222C246.254 30.2517 243.339 34.5879 238.389 36.6882C237.567 37.038 236.715 37.3118 235.843 37.5062ZM236.158 24.8132C235.316 25.0012 234.493 25.2659 233.7 25.604C229.096 27.5574 226.343 31.4922 227.562 34.3742C228.781 37.2563 233.517 38.0123 238.123 36.0584C242.728 34.1046 245.479 30.1703 244.26 27.2882C243.258 24.9212 239.883 23.9883 236.158 24.8132Z" fill="#070707"/>
<path d="M234.417 35.1036C234.395 35.1085 234.372 35.1112 234.349 35.1115C232.453 35.1423 231.002 34.4059 230.467 33.1414C230.449 33.0999 230.439 33.0552 230.438 33.0098C230.437 32.9645 230.445 32.9194 230.461 32.8772C230.478 32.835 230.503 32.7966 230.534 32.7641C230.566 32.7317 230.604 32.7059 230.645 32.6882C230.687 32.6705 230.732 32.6613 230.777 32.6612C230.822 32.661 230.867 32.6699 230.909 32.6873C230.951 32.7047 230.989 32.7303 231.021 32.7625C231.052 32.7947 231.078 32.833 231.095 32.8751C231.517 33.8733 232.729 34.4536 234.337 34.4276C234.422 34.4261 234.504 34.4562 234.567 34.5121C234.631 34.5679 234.672 34.6454 234.682 34.7296C234.692 34.8138 234.67 34.8987 234.621 34.9678C234.572 35.0368 234.499 35.0852 234.417 35.1034L234.417 35.1036ZM237.373 34.4478C237.29 34.4662 237.203 34.4528 237.129 34.4102C237.056 34.3676 237 34.2989 236.974 34.2176C236.949 34.1363 236.954 34.0482 236.989 33.9708C237.025 33.8933 237.088 33.832 237.166 33.7988C238.478 33.2423 239.569 32.3973 240.24 31.4192C240.878 30.4876 241.051 29.5531 240.728 28.7876C240.556 28.3948 240.271 28.0623 239.91 27.833C239.871 27.8089 239.837 27.7773 239.811 27.7399C239.784 27.7026 239.766 27.6603 239.756 27.6156C239.746 27.571 239.745 27.5247 239.753 27.4797C239.762 27.4347 239.779 27.3919 239.804 27.3537C239.829 27.3155 239.862 27.2828 239.9 27.2574C239.938 27.2321 239.98 27.2147 240.025 27.2062C240.07 27.1977 240.116 27.1983 240.161 27.208C240.205 27.2177 240.247 27.2363 240.285 27.2627C240.759 27.5657 241.131 28.004 241.355 28.5211C241.773 29.5091 241.576 30.676 240.801 31.8067C240.058 32.8907 238.861 33.8219 237.432 34.4284C237.413 34.4367 237.393 34.4432 237.373 34.4478ZM244.413 56.4345C243.489 56.6519 242.531 56.6769 241.597 56.5078C241.552 56.5 241.509 56.4834 241.471 56.4588C241.432 56.4343 241.399 56.4023 241.374 56.3647C241.348 56.3272 241.33 56.2848 241.32 56.2402C241.311 56.1956 241.311 56.1495 241.319 56.1048C241.328 56.06 241.346 56.0175 241.371 55.9797C241.396 55.9419 241.429 55.9096 241.467 55.8846C241.505 55.8597 241.548 55.8426 241.593 55.8344C241.637 55.8263 241.683 55.8271 241.728 55.837C242.905 56.07 244.353 55.876 245.7 55.3046C246.852 54.8157 247.86 54.083 248.537 53.2418C248.565 53.2069 248.6 53.1778 248.639 53.1564C248.679 53.1349 248.722 53.1215 248.766 53.1167C248.811 53.112 248.856 53.1161 248.899 53.1288C248.942 53.1416 248.982 53.1626 249.017 53.1909C249.051 53.2191 249.08 53.2539 249.102 53.2934C249.123 53.3328 249.137 53.3761 249.142 53.4207C249.146 53.4654 249.142 53.5105 249.13 53.5536C249.117 53.5966 249.096 53.6368 249.068 53.6717C248.322 54.5988 247.22 55.4025 245.966 55.9344C245.465 56.1482 244.945 56.3155 244.413 56.4345ZM249.829 51.2353C249.813 51.2388 249.796 51.2412 249.78 51.2425C249.736 51.2458 249.691 51.2404 249.648 51.2263C249.606 51.2123 249.566 51.19 249.532 51.1607C249.498 51.1314 249.47 51.0957 249.45 51.0556C249.43 51.0155 249.418 50.9718 249.414 50.9271C249.398 50.7089 249.347 50.4948 249.262 50.2933C248.876 49.3822 247.84 48.8187 246.417 48.7472C246.372 48.7455 246.328 48.7348 246.287 48.7158C246.246 48.6967 246.209 48.6698 246.178 48.6364C246.148 48.603 246.124 48.5639 246.109 48.5214C246.094 48.4788 246.087 48.4337 246.089 48.3885C246.091 48.3433 246.103 48.299 246.122 48.2582C246.141 48.2174 246.169 48.1809 246.202 48.1507C246.236 48.1206 246.275 48.0974 246.318 48.0826C246.36 48.0678 246.405 48.0616 246.45 48.0643C248.144 48.1494 249.398 48.8648 249.889 50.0269C250.003 50.2969 250.073 50.5837 250.094 50.8759C250.1 50.9579 250.077 51.0393 250.028 51.1053C249.979 51.1713 249.909 51.2174 249.829 51.2353ZM187.192 76.4318C187.134 76.4448 187.073 76.4421 187.016 76.4242C186.959 76.4063 186.908 76.3737 186.867 76.3297C186.656 76.1012 186.486 75.8378 186.364 75.551C185.903 74.4613 186.199 73.136 187.176 71.917C187.233 71.8486 187.315 71.8055 187.404 71.7968C187.493 71.7882 187.581 71.8147 187.651 71.8707C187.72 71.9268 187.765 72.0079 187.776 72.0966C187.787 72.1854 187.762 72.2748 187.708 72.3456C186.893 73.3628 186.632 74.434 186.991 75.2846C187.083 75.4987 187.21 75.6954 187.368 75.8661C187.409 75.9103 187.437 75.9644 187.45 76.0231C187.463 76.0817 187.461 76.1428 187.443 76.2002C187.425 76.2575 187.393 76.3091 187.348 76.3498C187.304 76.3904 187.25 76.4187 187.192 76.4317L187.192 76.4318ZM191.78 77.337C191.098 77.4921 190.398 77.5495 189.7 77.5075C189.655 77.5045 189.611 77.4927 189.571 77.4728C189.531 77.4529 189.495 77.4253 189.466 77.3915C189.436 77.3577 189.414 77.3185 189.399 77.2759C189.385 77.2334 189.379 77.1884 189.382 77.1436C189.385 77.0988 189.396 77.0551 189.416 77.0148C189.436 76.9746 189.463 76.9386 189.497 76.9091C189.531 76.8795 189.57 76.8569 189.612 76.8425C189.655 76.8281 189.699 76.8222 189.744 76.8252C190.883 76.8763 192.019 76.6652 193.064 76.2081C194.06 75.7986 194.957 75.1785 195.692 74.39C195.753 74.3241 195.837 74.2851 195.927 74.2813C196.017 74.2775 196.104 74.3092 196.171 74.3697C196.237 74.4301 196.277 74.5144 196.282 74.6042C196.287 74.694 196.257 74.7821 196.198 74.8495C195.396 75.7116 194.417 76.3899 193.33 76.838C192.83 77.0513 192.311 77.2183 191.78 77.337ZM182.597 54.7116C180.638 55.1454 178.773 54.823 177.747 53.7939C177.715 53.7624 177.688 53.7246 177.67 53.6829C177.652 53.6411 177.643 53.5961 177.642 53.5506C177.642 53.5051 177.65 53.46 177.668 53.4179C177.685 53.3758 177.71 53.3376 177.742 53.3054C177.774 53.2733 177.812 53.2479 177.854 53.2307C177.896 53.2136 177.941 53.205 177.987 53.2055C178.032 53.206 178.077 53.2156 178.119 53.2337C178.16 53.2518 178.198 53.278 178.229 53.3109C179.33 54.4153 181.647 54.5293 183.864 53.5892C183.947 53.5538 184.041 53.5532 184.125 53.5873C184.209 53.6214 184.276 53.6874 184.311 53.771C184.346 53.8545 184.347 53.9486 184.313 54.0326C184.279 54.1167 184.214 54.1837 184.13 54.219C183.635 54.4297 183.122 54.5946 182.597 54.7116ZM177.498 51.3404C177.44 51.3532 177.38 51.3506 177.323 51.3327C177.266 51.3149 177.215 51.2824 177.174 51.2386C177.134 51.1948 177.106 51.1412 177.092 51.083C177.079 51.0249 177.081 50.9643 177.098 50.9072C177.565 49.358 179.093 47.8704 181.087 47.0246C181.128 47.0071 181.172 46.9979 181.217 46.9976C181.262 46.9973 181.306 47.0058 181.348 47.0227C181.389 47.0396 181.427 47.0645 181.459 47.096C181.491 47.1275 181.516 47.165 181.534 47.2064C181.551 47.2477 181.56 47.2921 181.561 47.337C181.561 47.3819 181.553 47.4265 181.536 47.4681C181.519 47.5097 181.494 47.5476 181.463 47.5795C181.432 47.6115 181.394 47.637 181.353 47.6544C179.542 48.4231 178.161 49.7456 177.751 51.1059C177.733 51.164 177.701 51.2163 177.656 51.2575C177.612 51.2988 177.557 51.3274 177.498 51.3404Z" fill="#070707"/>
<path d="M244.377 59.0121C240.32 59.9107 236.6 58.8211 235.469 56.1459C234.102 52.9163 237.018 48.5802 241.967 46.4797C246.917 44.3793 252.056 45.2982 253.422 48.5278C254.788 51.7573 251.873 56.0935 246.923 58.1938C246.101 58.5437 245.249 58.8176 244.377 59.0121ZM244.692 46.3188C243.85 46.5068 243.027 46.7715 242.234 47.1096C237.63 49.063 234.877 52.9978 236.096 55.8798C237.315 58.7619 242.052 59.518 246.657 57.5643C251.262 55.6106 254.013 51.6762 252.794 48.7941C251.792 46.427 248.417 45.4941 244.692 46.3191L244.692 46.3188ZM191.741 79.9158C187.683 80.8144 183.963 79.7249 182.832 77.0497C181.465 73.8203 184.381 69.4838 189.331 67.3838C194.281 65.2837 199.419 66.2022 200.785 69.4318C202.151 72.6613 199.236 76.9975 194.286 79.0978C193.464 79.4476 192.612 79.7214 191.741 79.9158ZM192.055 67.2226C191.213 67.4105 190.391 67.6752 189.597 68.0133C184.993 69.9668 182.24 73.9015 183.459 76.7836C184.679 79.6657 189.415 80.4218 194.02 78.468C198.625 76.5143 201.377 72.5799 200.157 69.6978C199.156 67.3308 195.78 66.3979 192.055 67.2228L192.055 67.2226Z" fill="#070707"/>
<path d="M209.259 54.7046C209.737 54.5987 210.038 54.1243 209.932 53.6449C209.826 53.1655 209.352 52.8626 208.874 52.9685C208.396 53.0743 208.095 53.5488 208.201 54.0282C208.307 54.5076 208.781 54.8104 209.259 54.7046Z" fill="white"/>
<path d="M214.325 52.8432C214.803 52.7374 215.104 52.2629 214.998 51.7835C214.892 51.3041 214.419 51.0013 213.941 51.1072C213.463 51.213 213.161 51.6875 213.267 52.1669C213.374 52.6463 213.847 52.9491 214.325 52.8432Z" fill="white"/>
<path d="M219.399 50.7661C219.877 50.6602 220.178 50.1858 220.072 49.7064C219.966 49.227 219.492 48.9242 219.014 49.03C218.536 49.1359 218.235 49.6103 218.341 50.0897C218.447 50.5691 218.921 50.8719 219.399 50.7661Z" fill="white"/>
</g>
<g clip-path="url(#clip4_1395_6382)">
<path d="M239.9 63.6339C239.927 63.5774 239.945 63.5175 239.953 63.4576C239.962 63.3977 239.96 63.339 239.949 63.2849C239.938 63.2307 239.917 63.1821 239.888 63.1419C239.858 63.1017 239.822 63.0706 239.779 63.0505L215.908 51.7699C215.822 51.7293 215.718 51.7356 215.619 51.7875C215.52 51.8394 215.434 51.9326 215.38 52.0466C215.326 52.1606 215.309 52.2861 215.332 52.3955C215.354 52.5048 215.415 52.5891 215.501 52.6297L239.373 63.9103C239.459 63.9509 239.563 63.9446 239.661 63.8928C239.76 63.841 239.846 63.7478 239.9 63.6339Z" fill="#070707"/>
</g>
<g clip-path="url(#clip5_1395_6382)">
<path d="M202.483 77.0312C202.426 77.0054 202.373 76.9715 202.328 76.9312C202.283 76.891 202.246 76.8453 202.22 76.7967C202.193 76.7481 202.178 76.6976 202.174 76.6481C202.17 76.5985 202.178 76.5509 202.197 76.508L213.097 52.4603C213.136 52.3737 213.219 52.3112 213.328 52.2868C213.437 52.2623 213.563 52.2778 213.678 52.3298C213.793 52.3819 213.887 52.4663 213.941 52.5644C213.994 52.6625 214.002 52.7663 213.963 52.8529L203.064 76.9006C203.024 76.9873 202.941 77.0497 202.832 77.0742C202.723 77.0987 202.597 77.0832 202.483 77.0312Z" fill="#070707"/>
</g>
<g clip-path="url(#clip6_1395_6382)">
<path d="M248.236 87.5833L211.049 100.719L202.486 76.5789L239.673 63.4437L248.236 87.5833Z" fill="white"/>
<path d="M248.58 87.6617C248.567 87.7195 248.539 87.7729 248.499 87.8172C248.46 87.8614 248.41 87.895 248.354 87.9148L211.165 101.05C211.077 101.082 210.98 101.076 210.895 101.036C210.811 100.996 210.746 100.924 210.715 100.836L202.152 76.6948C202.136 76.6513 202.129 76.6051 202.132 76.5589C202.134 76.5128 202.146 76.4675 202.166 76.4258C202.186 76.3841 202.213 76.3467 202.248 76.3158C202.282 76.2849 202.322 76.2611 202.366 76.2457L239.555 63.11C239.644 63.0789 239.74 63.084 239.825 63.1243C239.909 63.1645 239.974 63.2365 240.005 63.3245L248.568 87.4656C248.591 87.5286 248.595 87.5966 248.58 87.6617ZM211.261 100.27L247.787 87.3684L239.459 63.8909L202.934 76.792L211.261 100.27Z" fill="#070707"/>
<path d="M240.017 63.521C240.009 63.5564 239.995 63.5909 239.975 63.6236L226.777 85.5619C226.735 85.632 226.67 85.6852 226.593 85.7124C226.515 85.7396 226.431 85.7391 226.354 85.7109L202.362 76.9083C202.319 76.8925 202.279 76.8682 202.245 76.8369C202.211 76.8056 202.183 76.7679 202.163 76.7259C202.144 76.6839 202.133 76.6385 202.131 76.5923C202.129 76.5461 202.137 76.4999 202.153 76.4566C202.185 76.369 202.251 76.2978 202.336 76.2586C202.42 76.2194 202.517 76.2155 202.605 76.2477L226.323 84.95L239.371 63.2609C239.414 63.1893 239.482 63.1355 239.561 63.109C239.641 63.0825 239.727 63.0852 239.805 63.1165C239.882 63.1478 239.946 63.2057 239.985 63.2798C240.024 63.354 240.035 63.4395 240.017 63.521Z" fill="#070707"/>
</g>
<g clip-path="url(#clip7_1395_6382)">
<path d="M213.177 53.373L216.033 52.3477C216.273 52.2614 216.404 52.012 216.324 51.7906L215.923 50.6722C215.843 50.4508 215.584 50.3414 215.344 50.4277L212.487 51.453C212.247 51.5393 212.116 51.7888 212.196 52.0101L212.597 53.1285C212.677 53.3499 212.936 53.4594 213.177 53.373Z" fill="#070707"/>
</g>
<g clip-path="url(#clip8_1395_6382)">
<path d="M279.397 54.4803C279.318 54.4802 279.241 54.5098 279.182 54.5635C273.554 59.6535 258.11 69.6007 249.706 72.2471C249.625 72.2735 249.558 72.3308 249.519 72.4066C249.48 72.4823 249.473 72.5704 249.498 72.6516C249.524 72.7329 249.58 72.8008 249.655 72.8406C249.73 72.8804 249.818 72.8889 249.899 72.8642C258.377 70.1946 273.944 60.1712 279.613 55.0439C279.662 55.0001 279.696 54.9426 279.711 54.879C279.726 54.8154 279.722 54.7487 279.698 54.6877C279.675 54.6266 279.634 54.5741 279.58 54.5371C279.526 54.5001 279.463 54.4803 279.397 54.4803ZM267.579 71.9617C267.52 71.9617 267.462 71.9779 267.411 72.0087C261.246 75.7671 255.807 78.48 252.097 79.6481C252.016 79.6738 251.948 79.731 251.908 79.8071C251.869 79.8832 251.861 79.9719 251.886 80.0538C251.912 80.1356 251.969 80.2039 252.045 80.2436C252.121 80.2833 252.209 80.2911 252.291 80.2654C256.049 79.0822 261.538 76.3463 267.747 72.5617C267.807 72.5251 267.854 72.4697 267.88 72.404C267.905 72.3382 267.909 72.2658 267.89 72.1978C267.871 72.1298 267.83 72.0699 267.774 72.0272C267.718 71.9846 267.65 71.9615 267.579 71.9617H267.579Z" fill="#070707"/>
</g>
<defs>
<clipPath id="clip0_1395_6382">
<rect width="23.28" height="4.80002" fill="white" transform="translate(146.28 270.12)"/>
</clipPath>
<clipPath id="clip1_1395_6382">
<rect width="198.12" height="212.76" fill="white" transform="translate(24.6001 63.1201)"/>
</clipPath>
<clipPath id="clip2_1395_6382">
<rect width="5.64" height="5.64" fill="white" transform="matrix(-0.988748 0.149588 0.149588 0.988748 148.347 82.5303)"/>
</clipPath>
<clipPath id="clip3_1395_6382">
<rect width="79.32" height="44.88" fill="white" transform="translate(170.086 38.7471) rotate(-12.4878)"/>
</clipPath>
<clipPath id="clip4_1395_6382">
<rect width="0.96" height="27.12" fill="white" transform="matrix(-0.427567 0.903983 0.903984 0.427567 215.587 51.6084)"/>
</clipPath>
<clipPath id="clip5_1395_6382">
<rect width="0.96" height="27.12" fill="white" transform="translate(213.236 52.1299) rotate(24.3618)"/>
</clipPath>
<clipPath id="clip6_1395_6382">
<rect width="43.44" height="47.76" fill="white" transform="translate(197.226 97.9072) rotate(-77.0723)"/>
</clipPath>
<clipPath id="clip7_1395_6382">
<rect width="2.04" height="3.95999" fill="white" transform="translate(215.779 50.2715) rotate(70.2533)"/>
</clipPath>
<clipPath id="clip8_1395_6382">
<rect width="30.24" height="25.8" fill="white" transform="matrix(1 0 0 -1 249.48 80.2803)"/>
</clipPath>
</defs>
</svg>
