<svg width="179" height="48" viewBox="0 0 179 48" fill="none" xmlns="http://www.w3.org/2000/svg">
<path d="M32.4366 19.015V44.6418L28.9293 42.8693L20.4971 38.7336V22.9291L28.9293 20.1966L32.4366 19.015Z" fill="#682DFE"/>
<path d="M44.376 3.35822V15.1008L32.4365 19.015V15.1008H32.5111H32.4365V7.2724L44.376 3.35822Z" fill="#682DFE"/>
<path d="M28.9294 4.46603V16.2086L20.4971 19.015L8.55762 22.9292V11.1128L20.4971 7.19858L28.9294 4.46603Z" fill="#682DFE"/>
<path d="M58.4232 38.1467V23.5596H52.6475V19.342H69.4911V23.5596H63.7423V38.1467H58.4232ZM77.3912 38.3885C75.6719 38.3885 74.1675 38.0661 72.8781 37.4214C71.6065 36.7587 70.6126 35.8633 69.8962 34.735C69.1977 33.5888 68.8485 32.2904 68.8485 30.8397C68.8485 29.3891 69.1888 28.0996 69.8693 26.9713C70.5678 25.8251 71.5259 24.9386 72.7438 24.3118C73.9616 23.6671 75.3317 23.3447 76.8539 23.3447C78.2867 23.3447 79.5941 23.6402 80.7761 24.2312C81.9581 24.8043 82.8983 25.655 83.5968 26.7833C84.2952 27.9116 84.6445 29.2816 84.6445 30.8935C84.6445 31.0725 84.6355 31.2785 84.6176 31.5113C84.5997 31.7441 84.5818 31.9591 84.5639 32.1561H73.0393V29.4697H81.8506L79.9164 30.2219C79.9343 29.5592 79.809 28.9861 79.5403 28.5026C79.2896 28.019 78.9314 27.6429 78.4658 27.3743C78.018 27.1056 77.4897 26.9713 76.8808 26.9713C76.2719 26.9713 75.7346 27.1056 75.269 27.3743C74.8212 27.6429 74.472 28.028 74.2213 28.5294C73.9705 29.013 73.8452 29.5861 73.8452 30.2487V31.0278C73.8452 31.7441 73.9885 32.362 74.275 32.8814C74.5795 33.4007 75.0093 33.8037 75.5645 34.0903C76.1197 34.3589 76.7823 34.4932 77.5524 34.4932C78.2688 34.4932 78.8777 34.3947 79.3791 34.1977C79.8985 33.9828 80.4089 33.6604 80.9104 33.2306L83.5968 36.0245C82.8983 36.7946 82.0387 37.3856 81.0178 37.7975C79.997 38.1915 78.7881 38.3885 77.3912 38.3885ZM95.4962 38.1467V35.4334L95.147 34.7619V29.7652C95.147 28.9593 94.8962 28.3414 94.3948 27.9116C93.9112 27.4638 93.1322 27.24 92.0576 27.24C91.3592 27.24 90.6517 27.3564 89.9354 27.5892C89.219 27.8041 88.6101 28.1086 88.1086 28.5026L86.3893 25.0371C87.2132 24.4999 88.1982 24.0879 89.3444 23.8014C90.5085 23.4969 91.6636 23.3447 92.8098 23.3447C95.1738 23.3447 97.0006 23.8909 98.29 24.9834C99.5974 26.058 100.251 27.7504 100.251 30.0607V38.1467H95.4962ZM91.198 38.3885C90.0339 38.3885 89.0489 38.1915 88.243 37.7975C87.437 37.4035 86.8192 36.8662 86.3893 36.1856C85.9774 35.5051 85.7715 34.7439 85.7715 33.9022C85.7715 33.0067 85.9953 32.2366 86.4431 31.5919C86.9087 30.9293 87.6161 30.4278 88.5653 30.0875C89.5145 29.7294 90.7413 29.5503 92.2457 29.5503H95.6842V32.2098H92.9441C92.1203 32.2098 91.5383 32.3441 91.198 32.6127C90.8756 32.8814 90.7144 33.2396 90.7144 33.6873C90.7144 34.135 90.8846 34.4932 91.2248 34.7619C91.5651 35.0305 92.0308 35.1648 92.6218 35.1648C93.177 35.1648 93.6784 35.0305 94.1261 34.7619C94.5918 34.4753 94.9321 34.0455 95.147 33.4724L95.8454 35.3529C95.5768 36.3558 95.0485 37.1169 94.2605 37.6363C93.4904 38.1377 92.4695 38.3885 91.198 38.3885ZM122.439 23.3447C123.567 23.3447 124.57 23.5775 125.448 24.0432C126.343 24.4909 127.041 25.1894 127.543 26.1385C128.062 27.0877 128.322 28.3145 128.322 29.8189V38.1467H123.218V30.6517C123.218 29.6129 123.021 28.8608 122.627 28.3951C122.233 27.9116 121.696 27.6698 121.015 27.6698C120.531 27.6698 120.093 27.7862 119.699 28.019C119.305 28.2518 119 28.61 118.785 29.0936C118.57 29.5592 118.463 30.1681 118.463 30.9203V38.1467H113.359V30.6517C113.359 29.6129 113.162 28.8608 112.768 28.3951C112.392 27.9116 111.854 27.6698 111.156 27.6698C110.654 27.6698 110.207 27.7862 109.813 28.019C109.437 28.2518 109.132 28.61 108.899 29.0936C108.684 29.5592 108.577 30.1681 108.577 30.9203V38.1467H103.473V23.5865H108.335V27.6429L107.368 26.4878C107.905 25.449 108.64 24.67 109.571 24.1506C110.502 23.6133 111.541 23.3447 112.687 23.3447C113.995 23.3447 115.141 23.685 116.126 24.3655C117.129 25.0282 117.8 26.0669 118.141 27.4817L116.475 27.1325C116.994 25.9505 117.773 25.0282 118.812 24.3655C119.869 23.685 121.078 23.3447 122.439 23.3447ZM140.462 38.5228C137.686 38.5228 135.519 37.7616 133.961 36.2394C132.403 34.7171 131.624 32.559 131.624 29.7652V19.342H136.943V29.604C136.943 31.2158 137.257 32.371 137.883 33.0694C138.528 33.7679 139.406 34.1171 140.516 34.1171C141.626 34.1171 142.495 33.7679 143.122 33.0694C143.749 32.371 144.062 31.2158 144.062 29.604V19.342H149.301V29.7652C149.301 32.559 148.521 34.7171 146.963 36.2394C145.405 37.7616 143.238 38.5228 140.462 38.5228ZM161.823 38.3885C160.587 38.3885 159.53 38.1198 158.653 37.5826C157.775 37.0274 157.104 36.2035 156.638 35.1111C156.19 34.0007 155.966 32.5859 155.966 30.8666C155.966 29.1294 156.181 27.7146 156.611 26.6221C157.041 25.5117 157.686 24.6879 158.545 24.1506C159.423 23.6133 160.515 23.3447 161.823 23.3447C163.148 23.3447 164.348 23.6581 165.422 24.2849C166.515 24.8939 167.375 25.7625 168.001 26.8907C168.646 28.0011 168.968 29.3264 168.968 30.8666C168.968 32.4068 168.646 33.741 168.001 34.8693C167.375 35.9976 166.515 36.8662 165.422 37.4751C164.348 38.084 163.148 38.3885 161.823 38.3885ZM152.662 43.3583V23.5865H157.524V26.058L157.498 30.8666L157.766 35.7021V43.3583H152.662ZM160.748 34.332C161.321 34.332 161.832 34.1977 162.279 33.9291C162.745 33.6604 163.112 33.2664 163.381 32.7471C163.667 32.2277 163.811 31.6009 163.811 30.8666C163.811 30.1323 163.667 29.5055 163.381 28.9861C163.112 28.4668 162.745 28.0727 162.279 27.8041C161.832 27.5355 161.321 27.4012 160.748 27.4012C160.175 27.4012 159.656 27.5355 159.19 27.8041C158.742 28.0727 158.375 28.4668 158.089 28.9861C157.82 29.5055 157.686 30.1323 157.686 30.8666C157.686 31.6009 157.82 32.2277 158.089 32.7471C158.375 33.2664 158.742 33.6604 159.19 33.9291C159.656 34.1977 160.175 34.332 160.748 34.332Z" fill="#070707"/>
</svg>
