<svg width="32" height="32" viewBox="0 0 32 32" fill="none" xmlns="http://www.w3.org/2000/svg">
<path d="M4.10875 18.5927C3.4038 17.3255 3.05133 16.6918 3.05133 16C3.05133 15.3083 3.4038 14.6746 4.10875 13.4074L5.90775 10.1734L7.80897 6.99839C8.55398 5.75426 8.92648 5.1322 9.52558 4.7863C10.1247 4.44041 10.8497 4.42885 12.2996 4.40572L15.9998 4.34671L19.7001 4.40572C21.15 4.42885 21.875 4.44041 22.4741 4.7863C23.0732 5.1322 23.4457 5.75426 24.1907 6.99839L26.0919 10.1734L27.8909 13.4074C28.5959 14.6746 28.9483 15.3082 28.9483 16C28.9483 16.6918 28.5959 17.3255 27.8909 18.5927L26.0919 21.8267L24.1907 25.0017C23.4457 26.2458 23.0732 26.8679 22.4741 27.2138C21.875 27.5597 21.15 27.5712 19.7001 27.5944L15.9998 27.6534L12.2996 27.5944C10.8497 27.5712 10.1247 27.5597 9.52558 27.2138C8.92648 26.8679 8.55398 26.2458 7.80898 25.0017L5.90775 21.8267L4.10875 18.5927Z" stroke="#141414" stroke-width="2.66667"/>
<circle cx="16" cy="16" r="4" stroke="#141414" stroke-width="2.66667"/>
</svg>
