<svg width="178" height="48" viewBox="0 0 178 48" fill="none" xmlns="http://www.w3.org/2000/svg">
<path d="M31.7366 19.0149V44.6417L28.2294 42.8693L19.7971 38.7335V22.9291L28.2294 20.1965L31.7366 19.0149Z" fill="#682DFE"/>
<path d="M43.6762 3.35815V15.1007L31.7367 19.0149V15.1007H31.8113H31.7367V7.27234L43.6762 3.35815Z" fill="#682DFE"/>
<path d="M28.2294 4.46594V16.2085L19.7972 19.0149L7.85767 22.9291V11.1127L19.7972 7.19849L28.2294 4.46594Z" fill="#682DFE"/>
<path d="M57.7229 38.1466V23.5595H51.9472V19.3419H68.7908V23.5595H63.042V38.1466H57.7229ZM76.6909 38.3884C74.9716 38.3884 73.4672 38.066 72.1778 37.4213C70.9062 36.7586 69.9122 35.8632 69.1959 34.7349C68.4974 33.5887 68.1482 32.2903 68.1482 30.8396C68.1482 29.389 68.4885 28.0995 69.169 26.9712C69.8675 25.825 70.8256 24.9385 72.0434 24.3117C73.2613 23.667 74.6313 23.3446 76.1536 23.3446C77.5864 23.3446 78.8937 23.6401 80.0757 24.2311C81.2578 24.8042 82.198 25.6549 82.8964 26.7832C83.5949 27.9115 83.9441 29.2815 83.9441 30.8934C83.9441 31.0725 83.9352 31.2784 83.9173 31.5112C83.8994 31.7441 83.8815 31.959 83.8635 32.156H72.3389V29.4696H81.1503L79.2161 30.2218C79.234 29.5591 79.1086 28.986 78.84 28.5025C78.5893 28.0189 78.2311 27.6428 77.7655 27.3742C77.3177 27.1056 76.7894 26.9712 76.1805 26.9712C75.5716 26.9712 75.0343 27.1056 74.5687 27.3742C74.1209 27.6428 73.7717 28.0279 73.521 28.5293C73.2702 29.0129 73.1449 29.586 73.1449 30.2486V31.0277C73.1449 31.7441 73.2881 32.3619 73.5747 32.8813C73.8791 33.4007 74.309 33.8036 74.8642 34.0902C75.4193 34.3588 76.082 34.4931 76.8521 34.4931C77.5684 34.4931 78.1774 34.3946 78.6788 34.1976C79.1982 33.9827 79.7086 33.6603 80.2101 33.2305L82.8964 36.0244C82.198 36.7945 81.3383 37.3855 80.3175 37.7974C79.2967 38.1914 78.0878 38.3884 76.6909 38.3884ZM94.7959 38.1466V35.4334L94.4467 34.7618V29.7651C94.4467 28.9592 94.1959 28.3413 93.6945 27.9115C93.2109 27.4637 92.4319 27.2399 91.3573 27.2399C90.6588 27.2399 89.9514 27.3563 89.2351 27.5891C88.5187 27.804 87.9098 28.1085 87.4083 28.5025L85.689 25.037C86.5129 24.4998 87.4979 24.0879 88.6441 23.8013C89.8082 23.4968 90.9633 23.3446 92.1095 23.3446C94.4735 23.3446 96.3003 23.8908 97.5897 24.9833C98.8971 26.0579 99.5508 27.7503 99.5508 30.0606V38.1466H94.7959ZM90.4977 38.3884C89.3336 38.3884 88.3486 38.1914 87.5426 37.7974C86.7367 37.4034 86.1189 36.8661 85.689 36.1855C85.2771 35.505 85.0712 34.7439 85.0712 33.9021C85.0712 33.0067 85.295 32.2366 85.7428 31.5918C86.2084 30.9292 86.9158 30.4277 87.865 30.0874C88.8142 29.7293 90.041 29.5502 91.5454 29.5502H94.9839V32.2097H92.2438C91.42 32.2097 90.8379 32.344 90.4977 32.6126C90.1753 32.8813 90.0141 33.2395 90.0141 33.6872C90.0141 34.1349 90.1843 34.4931 90.5245 34.7618C90.8648 35.0304 91.3304 35.1647 91.9214 35.1647C92.4766 35.1647 92.9781 35.0304 93.4258 34.7618C93.8915 34.4752 94.2317 34.0454 94.4467 33.4723L95.1451 35.3528C94.8765 36.3557 94.3482 37.1168 93.5601 37.6362C92.79 38.1377 91.7692 38.3884 90.4977 38.3884ZM121.738 23.3446C122.867 23.3446 123.87 23.5774 124.747 24.0431C125.643 24.4908 126.341 25.1893 126.843 26.1385C127.362 27.0876 127.622 28.3144 127.622 29.8188V38.1466H122.518V30.6516C122.518 29.6129 122.321 28.8607 121.926 28.395C121.532 27.9115 120.995 27.6697 120.315 27.6697C119.831 27.6697 119.392 27.7861 118.998 28.0189C118.604 28.2517 118.3 28.6099 118.085 29.0935C117.87 29.5591 117.763 30.168 117.763 30.9202V38.1466H112.658V30.6516C112.658 29.6129 112.461 28.8607 112.067 28.395C111.691 27.9115 111.154 27.6697 110.456 27.6697C109.954 27.6697 109.506 27.7861 109.112 28.0189C108.736 28.2517 108.432 28.6099 108.199 29.0935C107.984 29.5591 107.877 30.168 107.877 30.9202V38.1466H102.773V23.5864H107.635V27.6428L106.668 26.4877C107.205 25.449 107.939 24.6699 108.871 24.1505C109.802 23.6133 110.841 23.3446 111.987 23.3446C113.294 23.3446 114.44 23.6849 115.425 24.3654C116.428 25.0281 117.1 26.0668 117.44 27.4817L115.775 27.1324C116.294 25.9504 117.073 25.0281 118.112 24.3654C119.168 23.6849 120.377 23.3446 121.738 23.3446ZM139.762 38.5227C136.986 38.5227 134.819 37.7616 133.261 36.2393C131.703 34.717 130.924 32.5589 130.924 29.7651V19.3419H136.243V29.6039C136.243 31.2157 136.556 32.3709 137.183 33.0693C137.828 33.7678 138.705 34.117 139.816 34.117C140.926 34.117 141.795 33.7678 142.422 33.0693C143.048 32.3709 143.362 31.2157 143.362 29.6039V19.3419H148.6V29.7651C148.6 32.5589 147.821 34.717 146.263 36.2393C144.705 37.7616 142.538 38.5227 139.762 38.5227ZM161.122 38.3884C159.887 38.3884 158.83 38.1197 157.952 37.5825C157.075 37.0273 156.403 36.2035 155.938 35.111C155.49 34.0006 155.266 32.5858 155.266 30.8665C155.266 29.1293 155.481 27.7145 155.911 26.622C156.341 25.5116 156.985 24.6878 157.845 24.1505C158.723 23.6133 159.815 23.3446 161.122 23.3446C162.448 23.3446 163.648 23.658 164.722 24.2849C165.815 24.8938 166.674 25.7624 167.301 26.8906C167.946 28.001 168.268 29.3263 168.268 30.8665C168.268 32.4067 167.946 33.7409 167.301 34.8692C166.674 35.9975 165.815 36.8661 164.722 37.475C163.648 38.0839 162.448 38.3884 161.122 38.3884ZM151.962 43.3582V23.5864H156.824V26.0579L156.797 30.8665L157.066 35.702V43.3582H151.962ZM160.048 34.3319C160.621 34.3319 161.131 34.1976 161.579 33.929C162.045 33.6603 162.412 33.2663 162.68 32.747C162.967 32.2276 163.11 31.6008 163.11 30.8665C163.11 30.1322 162.967 29.5054 162.68 28.986C162.412 28.4667 162.045 28.0727 161.579 27.804C161.131 27.5354 160.621 27.4011 160.048 27.4011C159.475 27.4011 158.955 27.5354 158.49 27.804C158.042 28.0727 157.675 28.4667 157.388 28.986C157.12 29.5054 156.985 30.1322 156.985 30.8665C156.985 31.6008 157.12 32.2276 157.388 32.747C157.675 33.2663 158.042 33.6603 158.49 33.929C158.955 34.1976 159.475 34.3319 160.048 34.3319Z" fill="#682DFE"/>
</svg>
