<svg width="48" height="48" viewBox="0 0 48 48" fill="none" xmlns="http://www.w3.org/2000/svg">
<path d="M0.5 24C0.5 18.329 0.501062 14.1261 0.934881 10.8994C1.36677 7.68704 2.2193 5.51725 3.86827 3.86827C5.51725 2.2193 7.68704 1.36677 10.8994 0.934881C14.1261 0.501062 18.329 0.5 24 0.5C29.671 0.5 33.8739 0.501062 37.1006 0.934881C40.313 1.36677 42.4828 2.2193 44.1317 3.86827C45.7807 5.51725 46.6332 7.68704 47.0651 10.8994C47.4989 14.1261 47.5 18.329 47.5 24C47.5 29.671 47.4989 33.8739 47.0651 37.1006C46.6332 40.313 45.7807 42.4828 44.1317 44.1317C42.4828 45.7807 40.313 46.6332 37.1006 47.0651C33.8739 47.4989 29.671 47.5 24 47.5C18.329 47.5 14.1261 47.4989 10.8994 47.0651C7.68704 46.6332 5.51725 45.7807 3.86827 44.1317C2.2193 42.4828 1.36677 40.313 0.934881 37.1006C0.501062 33.8739 0.5 29.671 0.5 24Z" stroke="white"/>
<g clip-path="url(#clip0_50_8220)">
<path d="M23.9998 21.8181V26.4654H30.4579C30.1743 27.9599 29.3233 29.2254 28.047 30.0763L31.9415 33.0982C34.2106 31.0037 35.5197 27.9273 35.5197 24.2728C35.5197 23.4219 35.4433 22.6036 35.3015 21.8182L23.9998 21.8181Z" fill="white"/>
<path d="M17.2746 26.284L16.3963 26.9564L13.2871 29.3782C15.2616 33.2945 19.3086 36 23.9995 36C27.2394 36 29.9557 34.9309 31.9412 33.0982L28.0467 30.0764C26.9776 30.7963 25.614 31.2328 23.9995 31.2328C20.8795 31.2328 18.2287 29.1273 17.2795 26.2909L17.2746 26.284Z" fill="white"/>
<path d="M13.2872 18.6218C12.469 20.2363 12 22.0581 12 23.9999C12 25.9417 12.469 27.7636 13.2872 29.378C13.2872 29.3889 17.28 26.2799 17.28 26.2799C17.04 25.5599 16.8981 24.7963 16.8981 23.9998C16.8981 23.2033 17.04 22.4398 17.28 21.7198L13.2872 18.6218Z" fill="white"/>
<path d="M23.9997 16.7782C25.767 16.7782 27.3379 17.3891 28.5925 18.5673L32.0288 15.1309C29.9452 13.1892 27.2398 12 23.9997 12C19.3089 12 15.2616 14.6945 13.2871 18.6218L17.2798 21.72C18.2288 18.8836 20.8798 16.7782 23.9997 16.7782Z" fill="white"/>
</g>
<defs>
<clipPath id="clip0_50_8220">
<rect width="24" height="24" fill="white" transform="translate(12 12)"/>
</clipPath>
</defs>
</svg>
