<svg width="48" height="48" viewBox="0 0 48 48" fill="none" xmlns="http://www.w3.org/2000/svg">
<path d="M0.5 24C0.5 18.329 0.501062 14.1261 0.934881 10.8994C1.36677 7.68704 2.2193 5.51725 3.86827 3.86827C5.51725 2.2193 7.68704 1.36677 10.8994 0.934881C14.1261 0.501062 18.329 0.5 24 0.5C29.671 0.5 33.8739 0.501062 37.1006 0.934881C40.313 1.36677 42.4828 2.2193 44.1317 3.86827C45.7807 5.51725 46.6332 7.68704 47.0651 10.8994C47.4989 14.1261 47.5 18.329 47.5 24C47.5 29.671 47.4989 33.8739 47.0651 37.1006C46.6332 40.313 45.7807 42.4828 44.1317 44.1317C42.4828 45.7807 40.313 46.6332 37.1006 47.0651C33.8739 47.4989 29.671 47.5 24 47.5C18.329 47.5 14.1261 47.4989 10.8994 47.0651C7.68704 46.6332 5.51725 45.7807 3.86827 44.1317C2.2193 42.4828 1.36677 40.313 0.934881 37.1006C0.501062 33.8739 0.5 29.671 0.5 24Z" stroke="white"/>
<g clip-path="url(#clip0_50_8221)">
<path d="M34.2234 12H13.7719C12.7922 12 12 12.7734 12 13.7297V34.2656C12 35.2219 12.7922 36 13.7719 36H34.2234C35.2031 36 36 35.2219 36 34.2703V13.7297C36 12.7734 35.2031 12 34.2234 12ZM19.1203 32.4516H15.5578V20.9953H19.1203V32.4516ZM17.3391 19.4344C16.1953 19.4344 15.2719 18.5109 15.2719 17.3719C15.2719 16.2328 16.1953 15.3094 17.3391 15.3094C18.4781 15.3094 19.4016 16.2328 19.4016 17.3719C19.4016 18.5062 18.4781 19.4344 17.3391 19.4344ZM32.4516 32.4516H28.8937V26.8828C28.8937 25.5562 28.8703 23.8453 27.0422 23.8453C25.1906 23.8453 24.9094 25.2937 24.9094 26.7891V32.4516H21.3563V20.9953H24.7687V22.5609H24.8156C25.2891 21.6609 26.4516 20.7094 28.1813 20.7094C31.7859 20.7094 32.4516 23.0813 32.4516 26.1656V32.4516Z" fill="white"/>
</g>
<defs>
<clipPath id="clip0_50_8221">
<rect width="24" height="24" fill="white" transform="translate(12 12)"/>
</clipPath>
</defs>
</svg>
